%TF.GenerationSoftware,KiCad,Pcbnew,6.0.0*%
%TF.CreationDate,2022-01-07T11:19:12-07:00*%
%TF.ProjectId,A0004-SWD-Adapter,41303030-342d-4535-9744-2d4164617074,rev?*%
%TF.SameCoordinates,Original*%
%TF.FileFunction,Copper,L2,Bot*%
%TF.FilePolarity,Positive*%
%FSLAX46Y46*%
G04 Gerber Fmt 4.6, Leading zero omitted, Abs format (unit mm)*
G04 Created by KiCad (PCBNEW 6.0.0) date 2022-01-07 11:19:12*
%MOMM*%
%LPD*%
G01*
G04 APERTURE LIST*
%TA.AperFunction,ComponentPad*%
%ADD10C,1.498600*%
%TD*%
%TA.AperFunction,ComponentPad*%
%ADD11C,1.066800*%
%TD*%
%TA.AperFunction,ViaPad*%
%ADD12C,0.711200*%
%TD*%
%TA.AperFunction,Conductor*%
%ADD13C,0.381000*%
%TD*%
G04 APERTURE END LIST*
D10*
%TO.P,P1,1,1*%
%TO.N,/MCU_VDD1*%
X124123450Y-112059999D03*
%TO.P,P1,2,2*%
%TO.N,/NC_2*%
X121583450Y-112059999D03*
%TO.P,P1,3,3*%
%TO.N,/NC_3*%
X124123450Y-109519999D03*
%TO.P,P1,4,4*%
%TO.N,/GND4*%
X121583450Y-109519999D03*
%TO.P,P1,5,5*%
%TO.N,/NC_5*%
X124123450Y-106979999D03*
%TO.P,P1,6,6*%
%TO.N,/GND6*%
X121583450Y-106979999D03*
%TO.P,P1,7,7*%
%TO.N,/SWDIO*%
X124123450Y-104439999D03*
%TO.P,P1,8,8*%
%TO.N,/GND8*%
X121583450Y-104439999D03*
%TO.P,P1,9,9*%
%TO.N,/SWCLK*%
X124123450Y-101899999D03*
%TO.P,P1,10,10*%
%TO.N,/GND10*%
X121583450Y-101899999D03*
%TO.P,P1,11,11*%
%TO.N,/NC_11*%
X124123450Y-99359999D03*
%TO.P,P1,12,12*%
%TO.N,/GND12*%
X121583450Y-99359999D03*
%TO.P,P1,13,13*%
%TO.N,/SWO*%
X124123450Y-96819999D03*
%TO.P,P1,14,14*%
%TO.N,/GND14*%
X121583450Y-96819999D03*
%TO.P,P1,15,15*%
%TO.N,/NRST*%
X124123450Y-94279999D03*
%TO.P,P1,16,16*%
%TO.N,/GND16*%
X121583450Y-94279999D03*
%TO.P,P1,17,17*%
%TO.N,/NC_17*%
X124123450Y-91739999D03*
%TO.P,P1,18,18*%
%TO.N,/GND18*%
X121583450Y-91739999D03*
%TO.P,P1,19,19*%
%TO.N,/NC_19*%
X124123450Y-89199999D03*
%TO.P,P1,20,20*%
%TO.N,/GND20*%
X121583450Y-89199999D03*
%TD*%
D11*
%TO.P,P2,1,1*%
%TO.N,/MCU_VDD1*%
X148832950Y-92837000D03*
%TO.P,P2,2,2*%
%TO.N,/NC_2*%
X150102950Y-92837000D03*
%TO.P,P2,3,3*%
%TO.N,/NC_3*%
X148832950Y-94107000D03*
%TO.P,P2,4,4*%
%TO.N,/GND4*%
X150102950Y-94107000D03*
%TO.P,P2,5,5*%
%TO.N,/NC_5*%
X148832950Y-95377000D03*
%TO.P,P2,6,6*%
%TO.N,/GND6*%
X150102950Y-95377000D03*
%TO.P,P2,7,7*%
%TO.N,/SWDIO*%
X148832950Y-96647000D03*
%TO.P,P2,8,8*%
%TO.N,/GND8*%
X150102950Y-96647000D03*
%TO.P,P2,9,9*%
%TO.N,/SWCLK*%
X148832950Y-97917000D03*
%TO.P,P2,10,10*%
%TO.N,/GND10*%
X150102950Y-97917000D03*
%TO.P,P2,11,11*%
%TO.N,/NC_11*%
X148832950Y-99187000D03*
%TO.P,P2,12,12*%
%TO.N,/GND12*%
X150102950Y-99187000D03*
%TO.P,P2,13,13*%
%TO.N,/SWO*%
X148832950Y-100457000D03*
%TO.P,P2,14,14*%
%TO.N,/GND14*%
X150102950Y-100457000D03*
%TO.P,P2,15,15*%
%TO.N,/NRST*%
X148832950Y-101727000D03*
%TO.P,P2,16,16*%
%TO.N,/GND16*%
X150102950Y-101727000D03*
%TO.P,P2,17,17*%
%TO.N,/NC_17*%
X148832950Y-102997000D03*
%TO.P,P2,18,18*%
%TO.N,/GND18*%
X150102950Y-102997000D03*
%TO.P,P2,19,19*%
%TO.N,/NC_19*%
X148832950Y-104267000D03*
%TO.P,P2,20,20*%
%TO.N,/GND20*%
X150102950Y-104267000D03*
%TD*%
D12*
%TO.N,/MCU_VDD1*%
X139492000Y-92964000D03*
X139492000Y-112060000D03*
%TO.N,/NC_2*%
X153924000Y-109220000D03*
%TO.N,/NC_3*%
X140508000Y-94280000D03*
X140508000Y-109520000D03*
%TO.N,/GND4*%
X152400000Y-112268000D03*
%TO.N,/NC_5*%
X141524000Y-95204000D03*
X141524000Y-106980000D03*
%TO.N,/GND6*%
X150876000Y-109728000D03*
X126746000Y-115570000D03*
%TO.N,/SWDIO*%
X142494000Y-96520000D03*
X142494000Y-104394000D03*
%TO.N,/GND8*%
X145034000Y-83566000D03*
%TO.N,/SWCLK*%
X143302000Y-101900000D03*
X143256000Y-97790000D03*
%TO.N,/SWO*%
X138176000Y-100584000D03*
X138176000Y-96774000D03*
%TO.N,/GND14*%
X126238000Y-90170000D03*
X128524000Y-90170000D03*
%TO.N,/NRST*%
X136906000Y-94234000D03*
X136906000Y-103124000D03*
%TO.N,/GND16*%
X129540000Y-88138000D03*
X125476000Y-87884000D03*
%TO.N,/NC_17*%
X135382000Y-105664000D03*
X135382000Y-91948000D03*
%TO.N,/GND18*%
X130810000Y-113538000D03*
X130810000Y-85852000D03*
%TO.N,/NC_19*%
X133858000Y-108204000D03*
X133858000Y-89916000D03*
%TO.N,/GND20*%
X132334000Y-87122000D03*
X132334000Y-110998000D03*
%TO.N,/GND10*%
X152400000Y-88646000D03*
X134620000Y-86868000D03*
%TO.N,/GND12*%
X153670000Y-88138000D03*
%TD*%
D13*
%TO.N,/MCU_VDD1*%
X139492000Y-112060000D02*
X139492000Y-92964000D01*
%TO.N,/NC_2*%
X152908000Y-92710000D02*
X150114000Y-92710000D01*
X153924000Y-109220000D02*
X153924000Y-93726000D01*
X153924000Y-93726000D02*
X152908000Y-92710000D01*
%TO.N,/NC_3*%
X140508000Y-109520000D02*
X140508000Y-94280000D01*
%TO.N,/GND4*%
X153343480Y-107768520D02*
X153343480Y-94923480D01*
X152400000Y-108712000D02*
X153343480Y-107768520D01*
X152400000Y-112268000D02*
X152400000Y-108712000D01*
X152400000Y-93980000D02*
X150114000Y-93980000D01*
X153343480Y-94923480D02*
X152400000Y-93980000D01*
%TO.N,/NC_5*%
X141524000Y-106980000D02*
X141524000Y-95204000D01*
%TO.N,/GND6*%
X152654000Y-95758000D02*
X152146000Y-95250000D01*
X121583450Y-106980000D02*
X119634000Y-108929450D01*
X119634000Y-114046000D02*
X121158000Y-115570000D01*
X150876000Y-108458000D02*
X152654000Y-106680000D01*
X150876000Y-109728000D02*
X150876000Y-108458000D01*
X152654000Y-106680000D02*
X152654000Y-95758000D01*
X119634000Y-108929450D02*
X119634000Y-114046000D01*
X121158000Y-115570000D02*
X126746000Y-115570000D01*
X152146000Y-95250000D02*
X150114000Y-95250000D01*
%TO.N,/SWDIO*%
X142494000Y-104394000D02*
X142494000Y-96520000D01*
%TO.N,/GND8*%
X116840000Y-89662000D02*
X122936000Y-83566000D01*
X116840000Y-99822000D02*
X116840000Y-89662000D01*
X121583450Y-104440000D02*
X121458000Y-104440000D01*
X121458000Y-104440000D02*
X116840000Y-99822000D01*
X122936000Y-83566000D02*
X145034000Y-83566000D01*
%TO.N,/SWCLK*%
X143302000Y-101900000D02*
X143256000Y-101854000D01*
X143256000Y-97790000D02*
X148590000Y-97790000D01*
X148590000Y-97790000D02*
X148844000Y-98044000D01*
X143256000Y-101854000D02*
X143256000Y-97790000D01*
%TO.N,/SWO*%
X138176000Y-96774000D02*
X138176000Y-100584000D01*
%TO.N,/GND14*%
X151892000Y-105664000D02*
X151892000Y-101346000D01*
X130302000Y-115062000D02*
X142298980Y-115062000D01*
X128524000Y-90170000D02*
X128524000Y-113284000D01*
X151130000Y-100584000D02*
X150114000Y-100584000D01*
X122571760Y-85779480D02*
X124192460Y-85779480D01*
X119053480Y-94290030D02*
X119053480Y-89297760D01*
X124192460Y-85779480D02*
X124895480Y-85779480D01*
X128524000Y-113284000D02*
X130302000Y-115062000D01*
X119053480Y-89297760D02*
X122571760Y-85779480D01*
X124895480Y-85779480D02*
X126238000Y-87122000D01*
X121583450Y-96820000D02*
X119053480Y-94290030D01*
X126238000Y-87122000D02*
X126238000Y-90170000D01*
X151892000Y-101346000D02*
X151130000Y-100584000D01*
X142298980Y-115062000D02*
X151892000Y-105664000D01*
%TO.N,/NRST*%
X136906000Y-94234000D02*
X136906000Y-103124000D01*
%TO.N,/GND16*%
X151130000Y-104902000D02*
X151130000Y-101854000D01*
X151130000Y-101854000D02*
X150876000Y-101600000D01*
X130501157Y-114283611D02*
X139970389Y-114283611D01*
X148336000Y-105918000D02*
X150368000Y-105918000D01*
X119634000Y-92330550D02*
X119634000Y-89538220D01*
X129540000Y-113322454D02*
X130501157Y-114283611D01*
X150876000Y-101600000D02*
X150114000Y-101600000D01*
X123190000Y-86360000D02*
X123952000Y-86360000D01*
X123952000Y-86360000D02*
X125476000Y-87884000D01*
X150368000Y-105918000D02*
X151130000Y-104902000D01*
X119634000Y-89538220D02*
X121542220Y-87630000D01*
X139970389Y-114283611D02*
X148336000Y-105918000D01*
X121542220Y-87630000D02*
X121920000Y-87630000D01*
X129540000Y-88138000D02*
X129540000Y-113322454D01*
X121583450Y-94280000D02*
X119634000Y-92330550D01*
X121920000Y-87630000D02*
X123190000Y-86360000D01*
%TO.N,/NC_17*%
X135382000Y-91948000D02*
X135382000Y-105664000D01*
%TO.N,/GND18*%
X130810000Y-85852000D02*
X130810000Y-113538000D01*
%TO.N,/NC_19*%
X133858000Y-89916000D02*
X133858000Y-108204000D01*
%TO.N,/GND20*%
X132334000Y-87122000D02*
X132334000Y-110998000D01*
%TO.N,/GND10*%
X150622000Y-86868000D02*
X152400000Y-88646000D01*
X134620000Y-86868000D02*
X150622000Y-86868000D01*
%TO.N,/GND12*%
X122694261Y-84836000D02*
X150368000Y-84836000D01*
X118472960Y-96249510D02*
X118472960Y-89057301D01*
X121583450Y-99360000D02*
X118472960Y-96249510D01*
X118472960Y-89057301D02*
X122694261Y-84836000D01*
X150368000Y-84836000D02*
X153670000Y-88138000D01*
%TD*%
M02*
