M48
; DRILL file {KiCad 6.0.0} date Fri Jan  7 11:19:22 2022
; FORMAT={-:-/ absolute / inch / decimal}
; #@! TF.CreationDate,2022-01-07T11:19:22-07:00
; #@! TF.GenerationSoftware,Kicad,Pcbnew,6.0.0
; #@! TF.FileFunction,Plated,1,2,PTH
FMAT,2
INCH
; #@! TA.AperFunction,Plated,PTH,ViaDrill
T1C0.0190
; #@! TA.AperFunction,Plated,PTH,ComponentDrill
T2C0.0290
; #@! TA.AperFunction,Plated,PTH,ComponentDrill
T3C0.0390
%
G90
G05
T1
X4.94Y-3.46
X4.97Y-3.55
X4.99Y-4.55
X5.06Y-3.55
X5.1Y-3.47
X5.15Y-3.38
X5.15Y-4.47
X5.21Y-3.43
X5.21Y-4.37
X5.27Y-3.54
X5.27Y-4.26
X5.3Y-3.42
X5.33Y-3.62
X5.33Y-4.16
X5.39Y-3.71
X5.39Y-4.06
X5.44Y-3.81
X5.44Y-3.96
X5.4918Y-3.66
X5.4918Y-4.4118
X5.5318Y-3.7118
X5.5318Y-4.3118
X5.5718Y-3.7482
X5.5718Y-4.2118
X5.61Y-3.8
X5.61Y-4.11
X5.64Y-3.85
X5.6418Y-4.0118
X5.71Y-3.29
X5.94Y-4.32
X6.0Y-3.49
X6.0Y-4.42
X6.05Y-3.47
X6.06Y-4.3
T2
X5.8596Y-3.655
X5.8596Y-3.705
X5.8596Y-3.755
X5.8596Y-3.805
X5.8596Y-3.855
X5.8596Y-3.905
X5.8596Y-3.955
X5.8596Y-4.005
X5.8596Y-4.055
X5.8596Y-4.105
X5.9096Y-3.655
X5.9096Y-3.705
X5.9096Y-3.755
X5.9096Y-3.805
X5.9096Y-3.855
X5.9096Y-3.905
X5.9096Y-3.955
X5.9096Y-4.005
X5.9096Y-4.055
X5.9096Y-4.105
T3
X4.7867Y-3.5118
X4.7867Y-3.6118
X4.7867Y-3.7118
X4.7867Y-3.8118
X4.7867Y-3.9118
X4.7867Y-4.0118
X4.7867Y-4.1118
X4.7867Y-4.2118
X4.7867Y-4.3118
X4.7867Y-4.4118
X4.8868Y-3.5118
X4.8868Y-3.6118
X4.8868Y-3.7118
X4.8868Y-3.8118
X4.8868Y-3.9118
X4.8868Y-4.0118
X4.8868Y-4.1118
X4.8868Y-4.2118
X4.8868Y-4.3118
X4.8868Y-4.4118
T0
M30
