%TF.GenerationSoftware,KiCad,Pcbnew,7.0.6*%
%TF.CreationDate,2023-08-02T20:25:14-07:00*%
%TF.ProjectId,A0004-SWD-Adapter,41303030-342d-4535-9744-2d4164617074,rev?*%
%TF.SameCoordinates,Original*%
%TF.FileFunction,Legend,Top*%
%TF.FilePolarity,Positive*%
%FSLAX46Y46*%
G04 Gerber Fmt 4.6, Leading zero omitted, Abs format (unit mm)*
G04 Created by KiCad (PCBNEW 7.0.6) date 2023-08-02 20:25:14*
%MOMM*%
%LPD*%
G01*
G04 APERTURE LIST*
%ADD10C,0.300000*%
%ADD11C,0.150000*%
%ADD12C,0.177800*%
%ADD13C,0.120000*%
%ADD14C,0.203200*%
%ADD15C,0.050800*%
%ADD16C,0.127000*%
G04 APERTURE END LIST*
D10*
X143622346Y-81633528D02*
X143693774Y-81562100D01*
X143693774Y-81562100D02*
X143908060Y-81490671D01*
X143908060Y-81490671D02*
X144050917Y-81490671D01*
X144050917Y-81490671D02*
X144265203Y-81562100D01*
X144265203Y-81562100D02*
X144408060Y-81704957D01*
X144408060Y-81704957D02*
X144479489Y-81847814D01*
X144479489Y-81847814D02*
X144550917Y-82133528D01*
X144550917Y-82133528D02*
X144550917Y-82347814D01*
X144550917Y-82347814D02*
X144479489Y-82633528D01*
X144479489Y-82633528D02*
X144408060Y-82776385D01*
X144408060Y-82776385D02*
X144265203Y-82919242D01*
X144265203Y-82919242D02*
X144050917Y-82990671D01*
X144050917Y-82990671D02*
X143908060Y-82990671D01*
X143908060Y-82990671D02*
X143693774Y-82919242D01*
X143693774Y-82919242D02*
X143622346Y-82847814D01*
X142979489Y-81490671D02*
X142979489Y-82490671D01*
X142979489Y-82204957D02*
X142908060Y-82347814D01*
X142908060Y-82347814D02*
X142836632Y-82419242D01*
X142836632Y-82419242D02*
X142693774Y-82490671D01*
X142693774Y-82490671D02*
X142550917Y-82490671D01*
X141836632Y-81490671D02*
X141979489Y-81562100D01*
X141979489Y-81562100D02*
X142050918Y-81633528D01*
X142050918Y-81633528D02*
X142122346Y-81776385D01*
X142122346Y-81776385D02*
X142122346Y-82204957D01*
X142122346Y-82204957D02*
X142050918Y-82347814D01*
X142050918Y-82347814D02*
X141979489Y-82419242D01*
X141979489Y-82419242D02*
X141836632Y-82490671D01*
X141836632Y-82490671D02*
X141622346Y-82490671D01*
X141622346Y-82490671D02*
X141479489Y-82419242D01*
X141479489Y-82419242D02*
X141408061Y-82347814D01*
X141408061Y-82347814D02*
X141336632Y-82204957D01*
X141336632Y-82204957D02*
X141336632Y-81776385D01*
X141336632Y-81776385D02*
X141408061Y-81633528D01*
X141408061Y-81633528D02*
X141479489Y-81562100D01*
X141479489Y-81562100D02*
X141622346Y-81490671D01*
X141622346Y-81490671D02*
X141836632Y-81490671D01*
X140765203Y-81562100D02*
X140622346Y-81490671D01*
X140622346Y-81490671D02*
X140336632Y-81490671D01*
X140336632Y-81490671D02*
X140193775Y-81562100D01*
X140193775Y-81562100D02*
X140122346Y-81704957D01*
X140122346Y-81704957D02*
X140122346Y-81776385D01*
X140122346Y-81776385D02*
X140193775Y-81919242D01*
X140193775Y-81919242D02*
X140336632Y-81990671D01*
X140336632Y-81990671D02*
X140550918Y-81990671D01*
X140550918Y-81990671D02*
X140693775Y-82062100D01*
X140693775Y-82062100D02*
X140765203Y-82204957D01*
X140765203Y-82204957D02*
X140765203Y-82276385D01*
X140765203Y-82276385D02*
X140693775Y-82419242D01*
X140693775Y-82419242D02*
X140550918Y-82490671D01*
X140550918Y-82490671D02*
X140336632Y-82490671D01*
X140336632Y-82490671D02*
X140193775Y-82419242D01*
X139550917Y-81562100D02*
X139408060Y-81490671D01*
X139408060Y-81490671D02*
X139122346Y-81490671D01*
X139122346Y-81490671D02*
X138979489Y-81562100D01*
X138979489Y-81562100D02*
X138908060Y-81704957D01*
X138908060Y-81704957D02*
X138908060Y-81776385D01*
X138908060Y-81776385D02*
X138979489Y-81919242D01*
X138979489Y-81919242D02*
X139122346Y-81990671D01*
X139122346Y-81990671D02*
X139336632Y-81990671D01*
X139336632Y-81990671D02*
X139479489Y-82062100D01*
X139479489Y-82062100D02*
X139550917Y-82204957D01*
X139550917Y-82204957D02*
X139550917Y-82276385D01*
X139550917Y-82276385D02*
X139479489Y-82419242D01*
X139479489Y-82419242D02*
X139336632Y-82490671D01*
X139336632Y-82490671D02*
X139122346Y-82490671D01*
X139122346Y-82490671D02*
X138979489Y-82419242D01*
X138050917Y-81490671D02*
X138193774Y-81562100D01*
X138193774Y-81562100D02*
X138265203Y-81633528D01*
X138265203Y-81633528D02*
X138336631Y-81776385D01*
X138336631Y-81776385D02*
X138336631Y-82204957D01*
X138336631Y-82204957D02*
X138265203Y-82347814D01*
X138265203Y-82347814D02*
X138193774Y-82419242D01*
X138193774Y-82419242D02*
X138050917Y-82490671D01*
X138050917Y-82490671D02*
X137836631Y-82490671D01*
X137836631Y-82490671D02*
X137693774Y-82419242D01*
X137693774Y-82419242D02*
X137622346Y-82347814D01*
X137622346Y-82347814D02*
X137550917Y-82204957D01*
X137550917Y-82204957D02*
X137550917Y-81776385D01*
X137550917Y-81776385D02*
X137622346Y-81633528D01*
X137622346Y-81633528D02*
X137693774Y-81562100D01*
X137693774Y-81562100D02*
X137836631Y-81490671D01*
X137836631Y-81490671D02*
X138050917Y-81490671D01*
X137050917Y-82490671D02*
X136693774Y-81490671D01*
X136693774Y-81490671D02*
X136336631Y-82490671D01*
X135193774Y-81562100D02*
X135336631Y-81490671D01*
X135336631Y-81490671D02*
X135622346Y-81490671D01*
X135622346Y-81490671D02*
X135765203Y-81562100D01*
X135765203Y-81562100D02*
X135836631Y-81704957D01*
X135836631Y-81704957D02*
X135836631Y-82276385D01*
X135836631Y-82276385D02*
X135765203Y-82419242D01*
X135765203Y-82419242D02*
X135622346Y-82490671D01*
X135622346Y-82490671D02*
X135336631Y-82490671D01*
X135336631Y-82490671D02*
X135193774Y-82419242D01*
X135193774Y-82419242D02*
X135122346Y-82276385D01*
X135122346Y-82276385D02*
X135122346Y-82133528D01*
X135122346Y-82133528D02*
X135836631Y-81990671D01*
X134479489Y-81490671D02*
X134479489Y-82490671D01*
X134479489Y-82204957D02*
X134408060Y-82347814D01*
X134408060Y-82347814D02*
X134336632Y-82419242D01*
X134336632Y-82419242D02*
X134193774Y-82490671D01*
X134193774Y-82490671D02*
X134050917Y-82490671D01*
X132550918Y-82990671D02*
X132193775Y-81490671D01*
X132193775Y-81490671D02*
X131908061Y-82562100D01*
X131908061Y-82562100D02*
X131622346Y-81490671D01*
X131622346Y-81490671D02*
X131265204Y-82990671D01*
X130693775Y-81490671D02*
X130693775Y-82490671D01*
X130693775Y-82990671D02*
X130765203Y-82919242D01*
X130765203Y-82919242D02*
X130693775Y-82847814D01*
X130693775Y-82847814D02*
X130622346Y-82919242D01*
X130622346Y-82919242D02*
X130693775Y-82990671D01*
X130693775Y-82990671D02*
X130693775Y-82847814D01*
X129979489Y-81490671D02*
X129979489Y-82490671D01*
X129979489Y-82204957D02*
X129908060Y-82347814D01*
X129908060Y-82347814D02*
X129836632Y-82419242D01*
X129836632Y-82419242D02*
X129693774Y-82490671D01*
X129693774Y-82490671D02*
X129550917Y-82490671D01*
X129050918Y-81490671D02*
X129050918Y-82490671D01*
X129050918Y-82990671D02*
X129122346Y-82919242D01*
X129122346Y-82919242D02*
X129050918Y-82847814D01*
X129050918Y-82847814D02*
X128979489Y-82919242D01*
X128979489Y-82919242D02*
X129050918Y-82990671D01*
X129050918Y-82990671D02*
X129050918Y-82847814D01*
X128336632Y-82490671D02*
X128336632Y-81490671D01*
X128336632Y-82347814D02*
X128265203Y-82419242D01*
X128265203Y-82419242D02*
X128122346Y-82490671D01*
X128122346Y-82490671D02*
X127908060Y-82490671D01*
X127908060Y-82490671D02*
X127765203Y-82419242D01*
X127765203Y-82419242D02*
X127693775Y-82276385D01*
X127693775Y-82276385D02*
X127693775Y-81490671D01*
X126336632Y-82490671D02*
X126336632Y-81276385D01*
X126336632Y-81276385D02*
X126408060Y-81133528D01*
X126408060Y-81133528D02*
X126479489Y-81062100D01*
X126479489Y-81062100D02*
X126622346Y-80990671D01*
X126622346Y-80990671D02*
X126836632Y-80990671D01*
X126836632Y-80990671D02*
X126979489Y-81062100D01*
X126336632Y-81562100D02*
X126479489Y-81490671D01*
X126479489Y-81490671D02*
X126765203Y-81490671D01*
X126765203Y-81490671D02*
X126908060Y-81562100D01*
X126908060Y-81562100D02*
X126979489Y-81633528D01*
X126979489Y-81633528D02*
X127050917Y-81776385D01*
X127050917Y-81776385D02*
X127050917Y-82204957D01*
X127050917Y-82204957D02*
X126979489Y-82347814D01*
X126979489Y-82347814D02*
X126908060Y-82419242D01*
X126908060Y-82419242D02*
X126765203Y-82490671D01*
X126765203Y-82490671D02*
X126479489Y-82490671D01*
X126479489Y-82490671D02*
X126336632Y-82419242D01*
X127102082Y-120113900D02*
X127316368Y-120185328D01*
X127316368Y-120185328D02*
X127673510Y-120185328D01*
X127673510Y-120185328D02*
X127816368Y-120113900D01*
X127816368Y-120113900D02*
X127887796Y-120042471D01*
X127887796Y-120042471D02*
X127959225Y-119899614D01*
X127959225Y-119899614D02*
X127959225Y-119756757D01*
X127959225Y-119756757D02*
X127887796Y-119613900D01*
X127887796Y-119613900D02*
X127816368Y-119542471D01*
X127816368Y-119542471D02*
X127673510Y-119471042D01*
X127673510Y-119471042D02*
X127387796Y-119399614D01*
X127387796Y-119399614D02*
X127244939Y-119328185D01*
X127244939Y-119328185D02*
X127173510Y-119256757D01*
X127173510Y-119256757D02*
X127102082Y-119113900D01*
X127102082Y-119113900D02*
X127102082Y-118971042D01*
X127102082Y-118971042D02*
X127173510Y-118828185D01*
X127173510Y-118828185D02*
X127244939Y-118756757D01*
X127244939Y-118756757D02*
X127387796Y-118685328D01*
X127387796Y-118685328D02*
X127744939Y-118685328D01*
X127744939Y-118685328D02*
X127959225Y-118756757D01*
X128387796Y-119185328D02*
X128959224Y-119185328D01*
X128602081Y-118685328D02*
X128602081Y-119971042D01*
X128602081Y-119971042D02*
X128673510Y-120113900D01*
X128673510Y-120113900D02*
X128816367Y-120185328D01*
X128816367Y-120185328D02*
X128959224Y-120185328D01*
X129459224Y-120185328D02*
X129459224Y-119185328D01*
X129459224Y-119471042D02*
X129530653Y-119328185D01*
X129530653Y-119328185D02*
X129602082Y-119256757D01*
X129602082Y-119256757D02*
X129744939Y-119185328D01*
X129744939Y-119185328D02*
X129887796Y-119185328D01*
X131030653Y-120185328D02*
X131030653Y-119399614D01*
X131030653Y-119399614D02*
X130959224Y-119256757D01*
X130959224Y-119256757D02*
X130816367Y-119185328D01*
X130816367Y-119185328D02*
X130530653Y-119185328D01*
X130530653Y-119185328D02*
X130387795Y-119256757D01*
X131030653Y-120113900D02*
X130887795Y-120185328D01*
X130887795Y-120185328D02*
X130530653Y-120185328D01*
X130530653Y-120185328D02*
X130387795Y-120113900D01*
X130387795Y-120113900D02*
X130316367Y-119971042D01*
X130316367Y-119971042D02*
X130316367Y-119828185D01*
X130316367Y-119828185D02*
X130387795Y-119685328D01*
X130387795Y-119685328D02*
X130530653Y-119613900D01*
X130530653Y-119613900D02*
X130887795Y-119613900D01*
X130887795Y-119613900D02*
X131030653Y-119542471D01*
X131744938Y-120185328D02*
X131744938Y-119185328D01*
X131744938Y-118685328D02*
X131673510Y-118756757D01*
X131673510Y-118756757D02*
X131744938Y-118828185D01*
X131744938Y-118828185D02*
X131816367Y-118756757D01*
X131816367Y-118756757D02*
X131744938Y-118685328D01*
X131744938Y-118685328D02*
X131744938Y-118828185D01*
X133102082Y-119185328D02*
X133102082Y-120399614D01*
X133102082Y-120399614D02*
X133030653Y-120542471D01*
X133030653Y-120542471D02*
X132959224Y-120613900D01*
X132959224Y-120613900D02*
X132816367Y-120685328D01*
X132816367Y-120685328D02*
X132602082Y-120685328D01*
X132602082Y-120685328D02*
X132459224Y-120613900D01*
X133102082Y-120113900D02*
X132959224Y-120185328D01*
X132959224Y-120185328D02*
X132673510Y-120185328D01*
X132673510Y-120185328D02*
X132530653Y-120113900D01*
X132530653Y-120113900D02*
X132459224Y-120042471D01*
X132459224Y-120042471D02*
X132387796Y-119899614D01*
X132387796Y-119899614D02*
X132387796Y-119471042D01*
X132387796Y-119471042D02*
X132459224Y-119328185D01*
X132459224Y-119328185D02*
X132530653Y-119256757D01*
X132530653Y-119256757D02*
X132673510Y-119185328D01*
X132673510Y-119185328D02*
X132959224Y-119185328D01*
X132959224Y-119185328D02*
X133102082Y-119256757D01*
X133816367Y-120185328D02*
X133816367Y-118685328D01*
X134459225Y-120185328D02*
X134459225Y-119399614D01*
X134459225Y-119399614D02*
X134387796Y-119256757D01*
X134387796Y-119256757D02*
X134244939Y-119185328D01*
X134244939Y-119185328D02*
X134030653Y-119185328D01*
X134030653Y-119185328D02*
X133887796Y-119256757D01*
X133887796Y-119256757D02*
X133816367Y-119328185D01*
X134959225Y-119185328D02*
X135530653Y-119185328D01*
X135173510Y-118685328D02*
X135173510Y-119971042D01*
X135173510Y-119971042D02*
X135244939Y-120113900D01*
X135244939Y-120113900D02*
X135387796Y-120185328D01*
X135387796Y-120185328D02*
X135530653Y-120185328D01*
X137030653Y-118685328D02*
X137387796Y-120185328D01*
X137387796Y-120185328D02*
X137673510Y-119113900D01*
X137673510Y-119113900D02*
X137959225Y-120185328D01*
X137959225Y-120185328D02*
X138316368Y-118685328D01*
X138887796Y-120185328D02*
X138887796Y-119185328D01*
X138887796Y-118685328D02*
X138816368Y-118756757D01*
X138816368Y-118756757D02*
X138887796Y-118828185D01*
X138887796Y-118828185D02*
X138959225Y-118756757D01*
X138959225Y-118756757D02*
X138887796Y-118685328D01*
X138887796Y-118685328D02*
X138887796Y-118828185D01*
X139602082Y-120185328D02*
X139602082Y-119185328D01*
X139602082Y-119471042D02*
X139673511Y-119328185D01*
X139673511Y-119328185D02*
X139744940Y-119256757D01*
X139744940Y-119256757D02*
X139887797Y-119185328D01*
X139887797Y-119185328D02*
X140030654Y-119185328D01*
X140530653Y-120185328D02*
X140530653Y-119185328D01*
X140530653Y-118685328D02*
X140459225Y-118756757D01*
X140459225Y-118756757D02*
X140530653Y-118828185D01*
X140530653Y-118828185D02*
X140602082Y-118756757D01*
X140602082Y-118756757D02*
X140530653Y-118685328D01*
X140530653Y-118685328D02*
X140530653Y-118828185D01*
X141244939Y-119185328D02*
X141244939Y-120185328D01*
X141244939Y-119328185D02*
X141316368Y-119256757D01*
X141316368Y-119256757D02*
X141459225Y-119185328D01*
X141459225Y-119185328D02*
X141673511Y-119185328D01*
X141673511Y-119185328D02*
X141816368Y-119256757D01*
X141816368Y-119256757D02*
X141887797Y-119399614D01*
X141887797Y-119399614D02*
X141887797Y-120185328D01*
X143244940Y-119185328D02*
X143244940Y-120399614D01*
X143244940Y-120399614D02*
X143173511Y-120542471D01*
X143173511Y-120542471D02*
X143102082Y-120613900D01*
X143102082Y-120613900D02*
X142959225Y-120685328D01*
X142959225Y-120685328D02*
X142744940Y-120685328D01*
X142744940Y-120685328D02*
X142602082Y-120613900D01*
X143244940Y-120113900D02*
X143102082Y-120185328D01*
X143102082Y-120185328D02*
X142816368Y-120185328D01*
X142816368Y-120185328D02*
X142673511Y-120113900D01*
X142673511Y-120113900D02*
X142602082Y-120042471D01*
X142602082Y-120042471D02*
X142530654Y-119899614D01*
X142530654Y-119899614D02*
X142530654Y-119471042D01*
X142530654Y-119471042D02*
X142602082Y-119328185D01*
X142602082Y-119328185D02*
X142673511Y-119256757D01*
X142673511Y-119256757D02*
X142816368Y-119185328D01*
X142816368Y-119185328D02*
X143102082Y-119185328D01*
X143102082Y-119185328D02*
X143244940Y-119256757D01*
D11*
X124229905Y-85798818D02*
X124229905Y-84798818D01*
X124229905Y-84798818D02*
X124610857Y-84798818D01*
X124610857Y-84798818D02*
X124706095Y-84846437D01*
X124706095Y-84846437D02*
X124753714Y-84894056D01*
X124753714Y-84894056D02*
X124801333Y-84989294D01*
X124801333Y-84989294D02*
X124801333Y-85132151D01*
X124801333Y-85132151D02*
X124753714Y-85227389D01*
X124753714Y-85227389D02*
X124706095Y-85275008D01*
X124706095Y-85275008D02*
X124610857Y-85322627D01*
X124610857Y-85322627D02*
X124229905Y-85322627D01*
X125753714Y-85798818D02*
X125182286Y-85798818D01*
X125468000Y-85798818D02*
X125468000Y-84798818D01*
X125468000Y-84798818D02*
X125372762Y-84941675D01*
X125372762Y-84941675D02*
X125277524Y-85036913D01*
X125277524Y-85036913D02*
X125182286Y-85084532D01*
X141268524Y-80118295D02*
X141268524Y-79318295D01*
X141268524Y-79318295D02*
X141573286Y-79318295D01*
X141573286Y-79318295D02*
X141649476Y-79356390D01*
X141649476Y-79356390D02*
X141687571Y-79394485D01*
X141687571Y-79394485D02*
X141725667Y-79470676D01*
X141725667Y-79470676D02*
X141725667Y-79584961D01*
X141725667Y-79584961D02*
X141687571Y-79661152D01*
X141687571Y-79661152D02*
X141649476Y-79699247D01*
X141649476Y-79699247D02*
X141573286Y-79737342D01*
X141573286Y-79737342D02*
X141268524Y-79737342D01*
X142411381Y-79584961D02*
X142411381Y-80118295D01*
X142220905Y-79280200D02*
X142030428Y-79851628D01*
X142030428Y-79851628D02*
X142525667Y-79851628D01*
X128568524Y-122917295D02*
X128568524Y-122117295D01*
X128568524Y-122117295D02*
X128873286Y-122117295D01*
X128873286Y-122117295D02*
X128949476Y-122155390D01*
X128949476Y-122155390D02*
X128987571Y-122193485D01*
X128987571Y-122193485D02*
X129025667Y-122269676D01*
X129025667Y-122269676D02*
X129025667Y-122383961D01*
X129025667Y-122383961D02*
X128987571Y-122460152D01*
X128987571Y-122460152D02*
X128949476Y-122498247D01*
X128949476Y-122498247D02*
X128873286Y-122536342D01*
X128873286Y-122536342D02*
X128568524Y-122536342D01*
X129292333Y-122117295D02*
X129787571Y-122117295D01*
X129787571Y-122117295D02*
X129520905Y-122422057D01*
X129520905Y-122422057D02*
X129635190Y-122422057D01*
X129635190Y-122422057D02*
X129711381Y-122460152D01*
X129711381Y-122460152D02*
X129749476Y-122498247D01*
X129749476Y-122498247D02*
X129787571Y-122574438D01*
X129787571Y-122574438D02*
X129787571Y-122764914D01*
X129787571Y-122764914D02*
X129749476Y-122841104D01*
X129749476Y-122841104D02*
X129711381Y-122879200D01*
X129711381Y-122879200D02*
X129635190Y-122917295D01*
X129635190Y-122917295D02*
X129406619Y-122917295D01*
X129406619Y-122917295D02*
X129330428Y-122879200D01*
X129330428Y-122879200D02*
X129292333Y-122841104D01*
D12*
X148620843Y-90365024D02*
X148620843Y-89374424D01*
X148620843Y-89374424D02*
X148998214Y-89374424D01*
X148998214Y-89374424D02*
X149092557Y-89421595D01*
X149092557Y-89421595D02*
X149139728Y-89468767D01*
X149139728Y-89468767D02*
X149186900Y-89563110D01*
X149186900Y-89563110D02*
X149186900Y-89704624D01*
X149186900Y-89704624D02*
X149139728Y-89798967D01*
X149139728Y-89798967D02*
X149092557Y-89846138D01*
X149092557Y-89846138D02*
X148998214Y-89893310D01*
X148998214Y-89893310D02*
X148620843Y-89893310D01*
X149564271Y-89468767D02*
X149611443Y-89421595D01*
X149611443Y-89421595D02*
X149705786Y-89374424D01*
X149705786Y-89374424D02*
X149941643Y-89374424D01*
X149941643Y-89374424D02*
X150035986Y-89421595D01*
X150035986Y-89421595D02*
X150083157Y-89468767D01*
X150083157Y-89468767D02*
X150130328Y-89563110D01*
X150130328Y-89563110D02*
X150130328Y-89657453D01*
X150130328Y-89657453D02*
X150083157Y-89798967D01*
X150083157Y-89798967D02*
X149517100Y-90365024D01*
X149517100Y-90365024D02*
X150130328Y-90365024D01*
D11*
X129349667Y-87592819D02*
X129683000Y-88592819D01*
X129683000Y-88592819D02*
X130016333Y-87592819D01*
X130349667Y-88592819D02*
X130349667Y-87592819D01*
X130349667Y-87592819D02*
X130587762Y-87592819D01*
X130587762Y-87592819D02*
X130730619Y-87640438D01*
X130730619Y-87640438D02*
X130825857Y-87735676D01*
X130825857Y-87735676D02*
X130873476Y-87830914D01*
X130873476Y-87830914D02*
X130921095Y-88021390D01*
X130921095Y-88021390D02*
X130921095Y-88164247D01*
X130921095Y-88164247D02*
X130873476Y-88354723D01*
X130873476Y-88354723D02*
X130825857Y-88449961D01*
X130825857Y-88449961D02*
X130730619Y-88545200D01*
X130730619Y-88545200D02*
X130587762Y-88592819D01*
X130587762Y-88592819D02*
X130349667Y-88592819D01*
X131349667Y-88592819D02*
X131349667Y-87592819D01*
X131349667Y-87592819D02*
X131587762Y-87592819D01*
X131587762Y-87592819D02*
X131730619Y-87640438D01*
X131730619Y-87640438D02*
X131825857Y-87735676D01*
X131825857Y-87735676D02*
X131873476Y-87830914D01*
X131873476Y-87830914D02*
X131921095Y-88021390D01*
X131921095Y-88021390D02*
X131921095Y-88164247D01*
X131921095Y-88164247D02*
X131873476Y-88354723D01*
X131873476Y-88354723D02*
X131825857Y-88449961D01*
X131825857Y-88449961D02*
X131730619Y-88545200D01*
X131730619Y-88545200D02*
X131587762Y-88592819D01*
X131587762Y-88592819D02*
X131349667Y-88592819D01*
X142772095Y-96419200D02*
X142914952Y-96466819D01*
X142914952Y-96466819D02*
X143153047Y-96466819D01*
X143153047Y-96466819D02*
X143248285Y-96419200D01*
X143248285Y-96419200D02*
X143295904Y-96371580D01*
X143295904Y-96371580D02*
X143343523Y-96276342D01*
X143343523Y-96276342D02*
X143343523Y-96181104D01*
X143343523Y-96181104D02*
X143295904Y-96085866D01*
X143295904Y-96085866D02*
X143248285Y-96038247D01*
X143248285Y-96038247D02*
X143153047Y-95990628D01*
X143153047Y-95990628D02*
X142962571Y-95943009D01*
X142962571Y-95943009D02*
X142867333Y-95895390D01*
X142867333Y-95895390D02*
X142819714Y-95847771D01*
X142819714Y-95847771D02*
X142772095Y-95752533D01*
X142772095Y-95752533D02*
X142772095Y-95657295D01*
X142772095Y-95657295D02*
X142819714Y-95562057D01*
X142819714Y-95562057D02*
X142867333Y-95514438D01*
X142867333Y-95514438D02*
X142962571Y-95466819D01*
X142962571Y-95466819D02*
X143200666Y-95466819D01*
X143200666Y-95466819D02*
X143343523Y-95514438D01*
X143676857Y-95466819D02*
X143914952Y-96466819D01*
X143914952Y-96466819D02*
X144105428Y-95752533D01*
X144105428Y-95752533D02*
X144295904Y-96466819D01*
X144295904Y-96466819D02*
X144534000Y-95466819D01*
X145486380Y-96371580D02*
X145438761Y-96419200D01*
X145438761Y-96419200D02*
X145295904Y-96466819D01*
X145295904Y-96466819D02*
X145200666Y-96466819D01*
X145200666Y-96466819D02*
X145057809Y-96419200D01*
X145057809Y-96419200D02*
X144962571Y-96323961D01*
X144962571Y-96323961D02*
X144914952Y-96228723D01*
X144914952Y-96228723D02*
X144867333Y-96038247D01*
X144867333Y-96038247D02*
X144867333Y-95895390D01*
X144867333Y-95895390D02*
X144914952Y-95704914D01*
X144914952Y-95704914D02*
X144962571Y-95609676D01*
X144962571Y-95609676D02*
X145057809Y-95514438D01*
X145057809Y-95514438D02*
X145200666Y-95466819D01*
X145200666Y-95466819D02*
X145295904Y-95466819D01*
X145295904Y-95466819D02*
X145438761Y-95514438D01*
X145438761Y-95514438D02*
X145486380Y-95562057D01*
X146391142Y-96466819D02*
X145914952Y-96466819D01*
X145914952Y-96466819D02*
X145914952Y-95466819D01*
X146724476Y-96466819D02*
X146724476Y-95466819D01*
X147295904Y-96466819D02*
X146867333Y-95895390D01*
X147295904Y-95466819D02*
X146724476Y-96038247D01*
X132977143Y-101800819D02*
X132977143Y-100800819D01*
X132977143Y-100800819D02*
X133548571Y-101800819D01*
X133548571Y-101800819D02*
X133548571Y-100800819D01*
X134596190Y-101800819D02*
X134262857Y-101324628D01*
X134024762Y-101800819D02*
X134024762Y-100800819D01*
X134024762Y-100800819D02*
X134405714Y-100800819D01*
X134405714Y-100800819D02*
X134500952Y-100848438D01*
X134500952Y-100848438D02*
X134548571Y-100896057D01*
X134548571Y-100896057D02*
X134596190Y-100991295D01*
X134596190Y-100991295D02*
X134596190Y-101134152D01*
X134596190Y-101134152D02*
X134548571Y-101229390D01*
X134548571Y-101229390D02*
X134500952Y-101277009D01*
X134500952Y-101277009D02*
X134405714Y-101324628D01*
X134405714Y-101324628D02*
X134024762Y-101324628D01*
X134977143Y-101753200D02*
X135120000Y-101800819D01*
X135120000Y-101800819D02*
X135358095Y-101800819D01*
X135358095Y-101800819D02*
X135453333Y-101753200D01*
X135453333Y-101753200D02*
X135500952Y-101705580D01*
X135500952Y-101705580D02*
X135548571Y-101610342D01*
X135548571Y-101610342D02*
X135548571Y-101515104D01*
X135548571Y-101515104D02*
X135500952Y-101419866D01*
X135500952Y-101419866D02*
X135453333Y-101372247D01*
X135453333Y-101372247D02*
X135358095Y-101324628D01*
X135358095Y-101324628D02*
X135167619Y-101277009D01*
X135167619Y-101277009D02*
X135072381Y-101229390D01*
X135072381Y-101229390D02*
X135024762Y-101181771D01*
X135024762Y-101181771D02*
X134977143Y-101086533D01*
X134977143Y-101086533D02*
X134977143Y-100991295D01*
X134977143Y-100991295D02*
X135024762Y-100896057D01*
X135024762Y-100896057D02*
X135072381Y-100848438D01*
X135072381Y-100848438D02*
X135167619Y-100800819D01*
X135167619Y-100800819D02*
X135405714Y-100800819D01*
X135405714Y-100800819D02*
X135548571Y-100848438D01*
X135834286Y-100800819D02*
X136405714Y-100800819D01*
X136120000Y-101800819D02*
X136120000Y-100800819D01*
X138393753Y-100686400D02*
X138536610Y-100734019D01*
X138536610Y-100734019D02*
X138774705Y-100734019D01*
X138774705Y-100734019D02*
X138869943Y-100686400D01*
X138869943Y-100686400D02*
X138917562Y-100638780D01*
X138917562Y-100638780D02*
X138965181Y-100543542D01*
X138965181Y-100543542D02*
X138965181Y-100448304D01*
X138965181Y-100448304D02*
X138917562Y-100353066D01*
X138917562Y-100353066D02*
X138869943Y-100305447D01*
X138869943Y-100305447D02*
X138774705Y-100257828D01*
X138774705Y-100257828D02*
X138584229Y-100210209D01*
X138584229Y-100210209D02*
X138488991Y-100162590D01*
X138488991Y-100162590D02*
X138441372Y-100114971D01*
X138441372Y-100114971D02*
X138393753Y-100019733D01*
X138393753Y-100019733D02*
X138393753Y-99924495D01*
X138393753Y-99924495D02*
X138441372Y-99829257D01*
X138441372Y-99829257D02*
X138488991Y-99781638D01*
X138488991Y-99781638D02*
X138584229Y-99734019D01*
X138584229Y-99734019D02*
X138822324Y-99734019D01*
X138822324Y-99734019D02*
X138965181Y-99781638D01*
X139298515Y-99734019D02*
X139536610Y-100734019D01*
X139536610Y-100734019D02*
X139727086Y-100019733D01*
X139727086Y-100019733D02*
X139917562Y-100734019D01*
X139917562Y-100734019D02*
X140155658Y-99734019D01*
X140536610Y-100734019D02*
X140536610Y-99734019D01*
X140536610Y-99734019D02*
X140774705Y-99734019D01*
X140774705Y-99734019D02*
X140917562Y-99781638D01*
X140917562Y-99781638D02*
X141012800Y-99876876D01*
X141012800Y-99876876D02*
X141060419Y-99972114D01*
X141060419Y-99972114D02*
X141108038Y-100162590D01*
X141108038Y-100162590D02*
X141108038Y-100305447D01*
X141108038Y-100305447D02*
X141060419Y-100495923D01*
X141060419Y-100495923D02*
X141012800Y-100591161D01*
X141012800Y-100591161D02*
X140917562Y-100686400D01*
X140917562Y-100686400D02*
X140774705Y-100734019D01*
X140774705Y-100734019D02*
X140536610Y-100734019D01*
X141536610Y-100734019D02*
X141536610Y-99734019D01*
X142203276Y-99734019D02*
X142393752Y-99734019D01*
X142393752Y-99734019D02*
X142488990Y-99781638D01*
X142488990Y-99781638D02*
X142584228Y-99876876D01*
X142584228Y-99876876D02*
X142631847Y-100067352D01*
X142631847Y-100067352D02*
X142631847Y-100400685D01*
X142631847Y-100400685D02*
X142584228Y-100591161D01*
X142584228Y-100591161D02*
X142488990Y-100686400D01*
X142488990Y-100686400D02*
X142393752Y-100734019D01*
X142393752Y-100734019D02*
X142203276Y-100734019D01*
X142203276Y-100734019D02*
X142108038Y-100686400D01*
X142108038Y-100686400D02*
X142012800Y-100591161D01*
X142012800Y-100591161D02*
X141965181Y-100400685D01*
X141965181Y-100400685D02*
X141965181Y-100067352D01*
X141965181Y-100067352D02*
X142012800Y-99876876D01*
X142012800Y-99876876D02*
X142108038Y-99781638D01*
X142108038Y-99781638D02*
X142203276Y-99734019D01*
X139843048Y-94133200D02*
X139985905Y-94180819D01*
X139985905Y-94180819D02*
X140224000Y-94180819D01*
X140224000Y-94180819D02*
X140319238Y-94133200D01*
X140319238Y-94133200D02*
X140366857Y-94085580D01*
X140366857Y-94085580D02*
X140414476Y-93990342D01*
X140414476Y-93990342D02*
X140414476Y-93895104D01*
X140414476Y-93895104D02*
X140366857Y-93799866D01*
X140366857Y-93799866D02*
X140319238Y-93752247D01*
X140319238Y-93752247D02*
X140224000Y-93704628D01*
X140224000Y-93704628D02*
X140033524Y-93657009D01*
X140033524Y-93657009D02*
X139938286Y-93609390D01*
X139938286Y-93609390D02*
X139890667Y-93561771D01*
X139890667Y-93561771D02*
X139843048Y-93466533D01*
X139843048Y-93466533D02*
X139843048Y-93371295D01*
X139843048Y-93371295D02*
X139890667Y-93276057D01*
X139890667Y-93276057D02*
X139938286Y-93228438D01*
X139938286Y-93228438D02*
X140033524Y-93180819D01*
X140033524Y-93180819D02*
X140271619Y-93180819D01*
X140271619Y-93180819D02*
X140414476Y-93228438D01*
X140747810Y-93180819D02*
X140985905Y-94180819D01*
X140985905Y-94180819D02*
X141176381Y-93466533D01*
X141176381Y-93466533D02*
X141366857Y-94180819D01*
X141366857Y-94180819D02*
X141604953Y-93180819D01*
X142176381Y-93180819D02*
X142366857Y-93180819D01*
X142366857Y-93180819D02*
X142462095Y-93228438D01*
X142462095Y-93228438D02*
X142557333Y-93323676D01*
X142557333Y-93323676D02*
X142604952Y-93514152D01*
X142604952Y-93514152D02*
X142604952Y-93847485D01*
X142604952Y-93847485D02*
X142557333Y-94037961D01*
X142557333Y-94037961D02*
X142462095Y-94133200D01*
X142462095Y-94133200D02*
X142366857Y-94180819D01*
X142366857Y-94180819D02*
X142176381Y-94180819D01*
X142176381Y-94180819D02*
X142081143Y-94133200D01*
X142081143Y-94133200D02*
X141985905Y-94037961D01*
X141985905Y-94037961D02*
X141938286Y-93847485D01*
X141938286Y-93847485D02*
X141938286Y-93514152D01*
X141938286Y-93514152D02*
X141985905Y-93323676D01*
X141985905Y-93323676D02*
X142081143Y-93228438D01*
X142081143Y-93228438D02*
X142176381Y-93180819D01*
D13*
%TO.C,P1*%
X110712250Y-84056499D02*
X110712250Y-117203499D01*
X120059450Y-117203499D02*
X120059450Y-84056499D01*
X110712250Y-117203499D02*
X120059450Y-117203499D01*
X120059450Y-84056499D02*
X110712250Y-84056499D01*
X121964450Y-117838499D02*
G75*
G03*
X121964450Y-117838499I-381000J0D01*
G01*
D14*
%TO.C,P4*%
X140314000Y-80625000D02*
X130804000Y-80625000D01*
X140314000Y-77225000D02*
X140314000Y-80625000D01*
X130804000Y-80625000D02*
X130804000Y-77225000D01*
X130804000Y-77225000D02*
X140314000Y-77225000D01*
D15*
X131368000Y-77724000D02*
X131114000Y-77724000D01*
X131241000Y-77470000D01*
X131368000Y-77724000D01*
G36*
X131368000Y-77724000D02*
G01*
X131114000Y-77724000D01*
X131241000Y-77470000D01*
X131368000Y-77724000D01*
G37*
D14*
%TO.C,P3*%
X130550000Y-121432000D02*
X140060000Y-121432000D01*
X130550000Y-124832000D02*
X130550000Y-121432000D01*
X140060000Y-121432000D02*
X140060000Y-124832000D01*
X140060000Y-124832000D02*
X130550000Y-124832000D01*
D15*
X139623000Y-124587000D02*
X139496000Y-124333000D01*
X139750000Y-124333000D01*
X139623000Y-124587000D01*
G36*
X139623000Y-124587000D02*
G01*
X139496000Y-124333000D01*
X139750000Y-124333000D01*
X139623000Y-124587000D01*
G37*
D16*
%TO.C,P2*%
X156436950Y-108585000D02*
X151436950Y-108585000D01*
X151436950Y-88519000D02*
X156436950Y-88519000D01*
X151436950Y-108585000D02*
X151436950Y-88519000D01*
X156436950Y-88519000D02*
X156436950Y-108585000D01*
%TD*%
M02*
