%TF.GenerationSoftware,KiCad,Pcbnew,7.0.6*%
%TF.CreationDate,2023-08-02T20:25:14-07:00*%
%TF.ProjectId,A0004-SWD-Adapter,41303030-342d-4535-9744-2d4164617074,rev?*%
%TF.SameCoordinates,Original*%
%TF.FileFunction,Legend,Bot*%
%TF.FilePolarity,Positive*%
%FSLAX46Y46*%
G04 Gerber Fmt 4.6, Leading zero omitted, Abs format (unit mm)*
G04 Created by KiCad (PCBNEW 7.0.6) date 2023-08-02 20:25:14*
%MOMM*%
%LPD*%
G01*
G04 APERTURE LIST*
%ADD10C,0.300000*%
%ADD11C,0.150000*%
%ADD12C,0.120000*%
G04 APERTURE END LIST*
D10*
X146074917Y-117152257D02*
X145360632Y-117152257D01*
X146217774Y-117580828D02*
X145717774Y-116080828D01*
X145717774Y-116080828D02*
X145217774Y-117580828D01*
X144432060Y-116080828D02*
X144289203Y-116080828D01*
X144289203Y-116080828D02*
X144146346Y-116152257D01*
X144146346Y-116152257D02*
X144074918Y-116223685D01*
X144074918Y-116223685D02*
X144003489Y-116366542D01*
X144003489Y-116366542D02*
X143932060Y-116652257D01*
X143932060Y-116652257D02*
X143932060Y-117009400D01*
X143932060Y-117009400D02*
X144003489Y-117295114D01*
X144003489Y-117295114D02*
X144074918Y-117437971D01*
X144074918Y-117437971D02*
X144146346Y-117509400D01*
X144146346Y-117509400D02*
X144289203Y-117580828D01*
X144289203Y-117580828D02*
X144432060Y-117580828D01*
X144432060Y-117580828D02*
X144574918Y-117509400D01*
X144574918Y-117509400D02*
X144646346Y-117437971D01*
X144646346Y-117437971D02*
X144717775Y-117295114D01*
X144717775Y-117295114D02*
X144789203Y-117009400D01*
X144789203Y-117009400D02*
X144789203Y-116652257D01*
X144789203Y-116652257D02*
X144717775Y-116366542D01*
X144717775Y-116366542D02*
X144646346Y-116223685D01*
X144646346Y-116223685D02*
X144574918Y-116152257D01*
X144574918Y-116152257D02*
X144432060Y-116080828D01*
X143003489Y-116080828D02*
X142860632Y-116080828D01*
X142860632Y-116080828D02*
X142717775Y-116152257D01*
X142717775Y-116152257D02*
X142646347Y-116223685D01*
X142646347Y-116223685D02*
X142574918Y-116366542D01*
X142574918Y-116366542D02*
X142503489Y-116652257D01*
X142503489Y-116652257D02*
X142503489Y-117009400D01*
X142503489Y-117009400D02*
X142574918Y-117295114D01*
X142574918Y-117295114D02*
X142646347Y-117437971D01*
X142646347Y-117437971D02*
X142717775Y-117509400D01*
X142717775Y-117509400D02*
X142860632Y-117580828D01*
X142860632Y-117580828D02*
X143003489Y-117580828D01*
X143003489Y-117580828D02*
X143146347Y-117509400D01*
X143146347Y-117509400D02*
X143217775Y-117437971D01*
X143217775Y-117437971D02*
X143289204Y-117295114D01*
X143289204Y-117295114D02*
X143360632Y-117009400D01*
X143360632Y-117009400D02*
X143360632Y-116652257D01*
X143360632Y-116652257D02*
X143289204Y-116366542D01*
X143289204Y-116366542D02*
X143217775Y-116223685D01*
X143217775Y-116223685D02*
X143146347Y-116152257D01*
X143146347Y-116152257D02*
X143003489Y-116080828D01*
X141574918Y-116080828D02*
X141432061Y-116080828D01*
X141432061Y-116080828D02*
X141289204Y-116152257D01*
X141289204Y-116152257D02*
X141217776Y-116223685D01*
X141217776Y-116223685D02*
X141146347Y-116366542D01*
X141146347Y-116366542D02*
X141074918Y-116652257D01*
X141074918Y-116652257D02*
X141074918Y-117009400D01*
X141074918Y-117009400D02*
X141146347Y-117295114D01*
X141146347Y-117295114D02*
X141217776Y-117437971D01*
X141217776Y-117437971D02*
X141289204Y-117509400D01*
X141289204Y-117509400D02*
X141432061Y-117580828D01*
X141432061Y-117580828D02*
X141574918Y-117580828D01*
X141574918Y-117580828D02*
X141717776Y-117509400D01*
X141717776Y-117509400D02*
X141789204Y-117437971D01*
X141789204Y-117437971D02*
X141860633Y-117295114D01*
X141860633Y-117295114D02*
X141932061Y-117009400D01*
X141932061Y-117009400D02*
X141932061Y-116652257D01*
X141932061Y-116652257D02*
X141860633Y-116366542D01*
X141860633Y-116366542D02*
X141789204Y-116223685D01*
X141789204Y-116223685D02*
X141717776Y-116152257D01*
X141717776Y-116152257D02*
X141574918Y-116080828D01*
X139717776Y-116080828D02*
X140432062Y-116080828D01*
X140432062Y-116080828D02*
X140503490Y-116795114D01*
X140503490Y-116795114D02*
X140432062Y-116723685D01*
X140432062Y-116723685D02*
X140289205Y-116652257D01*
X140289205Y-116652257D02*
X139932062Y-116652257D01*
X139932062Y-116652257D02*
X139789205Y-116723685D01*
X139789205Y-116723685D02*
X139717776Y-116795114D01*
X139717776Y-116795114D02*
X139646347Y-116937971D01*
X139646347Y-116937971D02*
X139646347Y-117295114D01*
X139646347Y-117295114D02*
X139717776Y-117437971D01*
X139717776Y-117437971D02*
X139789205Y-117509400D01*
X139789205Y-117509400D02*
X139932062Y-117580828D01*
X139932062Y-117580828D02*
X140289205Y-117580828D01*
X140289205Y-117580828D02*
X140432062Y-117509400D01*
X140432062Y-117509400D02*
X140503490Y-117437971D01*
X137932062Y-117509400D02*
X137717777Y-117580828D01*
X137717777Y-117580828D02*
X137360634Y-117580828D01*
X137360634Y-117580828D02*
X137217777Y-117509400D01*
X137217777Y-117509400D02*
X137146348Y-117437971D01*
X137146348Y-117437971D02*
X137074919Y-117295114D01*
X137074919Y-117295114D02*
X137074919Y-117152257D01*
X137074919Y-117152257D02*
X137146348Y-117009400D01*
X137146348Y-117009400D02*
X137217777Y-116937971D01*
X137217777Y-116937971D02*
X137360634Y-116866542D01*
X137360634Y-116866542D02*
X137646348Y-116795114D01*
X137646348Y-116795114D02*
X137789205Y-116723685D01*
X137789205Y-116723685D02*
X137860634Y-116652257D01*
X137860634Y-116652257D02*
X137932062Y-116509400D01*
X137932062Y-116509400D02*
X137932062Y-116366542D01*
X137932062Y-116366542D02*
X137860634Y-116223685D01*
X137860634Y-116223685D02*
X137789205Y-116152257D01*
X137789205Y-116152257D02*
X137646348Y-116080828D01*
X137646348Y-116080828D02*
X137289205Y-116080828D01*
X137289205Y-116080828D02*
X137074919Y-116152257D01*
X136574920Y-116080828D02*
X136217777Y-117580828D01*
X136217777Y-117580828D02*
X135932063Y-116509400D01*
X135932063Y-116509400D02*
X135646348Y-117580828D01*
X135646348Y-117580828D02*
X135289206Y-116080828D01*
X134717777Y-117580828D02*
X134717777Y-116080828D01*
X134717777Y-116080828D02*
X134360634Y-116080828D01*
X134360634Y-116080828D02*
X134146348Y-116152257D01*
X134146348Y-116152257D02*
X134003491Y-116295114D01*
X134003491Y-116295114D02*
X133932062Y-116437971D01*
X133932062Y-116437971D02*
X133860634Y-116723685D01*
X133860634Y-116723685D02*
X133860634Y-116937971D01*
X133860634Y-116937971D02*
X133932062Y-117223685D01*
X133932062Y-117223685D02*
X134003491Y-117366542D01*
X134003491Y-117366542D02*
X134146348Y-117509400D01*
X134146348Y-117509400D02*
X134360634Y-117580828D01*
X134360634Y-117580828D02*
X134717777Y-117580828D01*
X132146348Y-117152257D02*
X131432063Y-117152257D01*
X132289205Y-117580828D02*
X131789205Y-116080828D01*
X131789205Y-116080828D02*
X131289205Y-117580828D01*
X130146349Y-117580828D02*
X130146349Y-116080828D01*
X130146349Y-117509400D02*
X130289206Y-117580828D01*
X130289206Y-117580828D02*
X130574920Y-117580828D01*
X130574920Y-117580828D02*
X130717777Y-117509400D01*
X130717777Y-117509400D02*
X130789206Y-117437971D01*
X130789206Y-117437971D02*
X130860634Y-117295114D01*
X130860634Y-117295114D02*
X130860634Y-116866542D01*
X130860634Y-116866542D02*
X130789206Y-116723685D01*
X130789206Y-116723685D02*
X130717777Y-116652257D01*
X130717777Y-116652257D02*
X130574920Y-116580828D01*
X130574920Y-116580828D02*
X130289206Y-116580828D01*
X130289206Y-116580828D02*
X130146349Y-116652257D01*
X128789206Y-117580828D02*
X128789206Y-116795114D01*
X128789206Y-116795114D02*
X128860634Y-116652257D01*
X128860634Y-116652257D02*
X129003491Y-116580828D01*
X129003491Y-116580828D02*
X129289206Y-116580828D01*
X129289206Y-116580828D02*
X129432063Y-116652257D01*
X128789206Y-117509400D02*
X128932063Y-117580828D01*
X128932063Y-117580828D02*
X129289206Y-117580828D01*
X129289206Y-117580828D02*
X129432063Y-117509400D01*
X129432063Y-117509400D02*
X129503491Y-117366542D01*
X129503491Y-117366542D02*
X129503491Y-117223685D01*
X129503491Y-117223685D02*
X129432063Y-117080828D01*
X129432063Y-117080828D02*
X129289206Y-117009400D01*
X129289206Y-117009400D02*
X128932063Y-117009400D01*
X128932063Y-117009400D02*
X128789206Y-116937971D01*
X128074920Y-116580828D02*
X128074920Y-118080828D01*
X128074920Y-116652257D02*
X127932063Y-116580828D01*
X127932063Y-116580828D02*
X127646348Y-116580828D01*
X127646348Y-116580828D02*
X127503491Y-116652257D01*
X127503491Y-116652257D02*
X127432063Y-116723685D01*
X127432063Y-116723685D02*
X127360634Y-116866542D01*
X127360634Y-116866542D02*
X127360634Y-117295114D01*
X127360634Y-117295114D02*
X127432063Y-117437971D01*
X127432063Y-117437971D02*
X127503491Y-117509400D01*
X127503491Y-117509400D02*
X127646348Y-117580828D01*
X127646348Y-117580828D02*
X127932063Y-117580828D01*
X127932063Y-117580828D02*
X128074920Y-117509400D01*
X126932062Y-116580828D02*
X126360634Y-116580828D01*
X126717777Y-116080828D02*
X126717777Y-117366542D01*
X126717777Y-117366542D02*
X126646348Y-117509400D01*
X126646348Y-117509400D02*
X126503491Y-117580828D01*
X126503491Y-117580828D02*
X126360634Y-117580828D01*
X125289205Y-117509400D02*
X125432062Y-117580828D01*
X125432062Y-117580828D02*
X125717777Y-117580828D01*
X125717777Y-117580828D02*
X125860634Y-117509400D01*
X125860634Y-117509400D02*
X125932062Y-117366542D01*
X125932062Y-117366542D02*
X125932062Y-116795114D01*
X125932062Y-116795114D02*
X125860634Y-116652257D01*
X125860634Y-116652257D02*
X125717777Y-116580828D01*
X125717777Y-116580828D02*
X125432062Y-116580828D01*
X125432062Y-116580828D02*
X125289205Y-116652257D01*
X125289205Y-116652257D02*
X125217777Y-116795114D01*
X125217777Y-116795114D02*
X125217777Y-116937971D01*
X125217777Y-116937971D02*
X125932062Y-117080828D01*
X124574920Y-117580828D02*
X124574920Y-116580828D01*
X124574920Y-116866542D02*
X124503491Y-116723685D01*
X124503491Y-116723685D02*
X124432063Y-116652257D01*
X124432063Y-116652257D02*
X124289205Y-116580828D01*
X124289205Y-116580828D02*
X124146348Y-116580828D01*
X145146346Y-119995828D02*
X145646346Y-119281542D01*
X146003489Y-119995828D02*
X146003489Y-118495828D01*
X146003489Y-118495828D02*
X145432060Y-118495828D01*
X145432060Y-118495828D02*
X145289203Y-118567257D01*
X145289203Y-118567257D02*
X145217774Y-118638685D01*
X145217774Y-118638685D02*
X145146346Y-118781542D01*
X145146346Y-118781542D02*
X145146346Y-118995828D01*
X145146346Y-118995828D02*
X145217774Y-119138685D01*
X145217774Y-119138685D02*
X145289203Y-119210114D01*
X145289203Y-119210114D02*
X145432060Y-119281542D01*
X145432060Y-119281542D02*
X146003489Y-119281542D01*
X143932060Y-119924400D02*
X144074917Y-119995828D01*
X144074917Y-119995828D02*
X144360632Y-119995828D01*
X144360632Y-119995828D02*
X144503489Y-119924400D01*
X144503489Y-119924400D02*
X144574917Y-119781542D01*
X144574917Y-119781542D02*
X144574917Y-119210114D01*
X144574917Y-119210114D02*
X144503489Y-119067257D01*
X144503489Y-119067257D02*
X144360632Y-118995828D01*
X144360632Y-118995828D02*
X144074917Y-118995828D01*
X144074917Y-118995828D02*
X143932060Y-119067257D01*
X143932060Y-119067257D02*
X143860632Y-119210114D01*
X143860632Y-119210114D02*
X143860632Y-119352971D01*
X143860632Y-119352971D02*
X144574917Y-119495828D01*
X143360632Y-118995828D02*
X143003489Y-119995828D01*
X143003489Y-119995828D02*
X142646346Y-118995828D01*
X140146346Y-119995828D02*
X141003489Y-119995828D01*
X140574918Y-119995828D02*
X140574918Y-118495828D01*
X140574918Y-118495828D02*
X140717775Y-118710114D01*
X140717775Y-118710114D02*
X140860632Y-118852971D01*
X140860632Y-118852971D02*
X141003489Y-118924400D01*
X139503490Y-119852971D02*
X139432061Y-119924400D01*
X139432061Y-119924400D02*
X139503490Y-119995828D01*
X139503490Y-119995828D02*
X139574918Y-119924400D01*
X139574918Y-119924400D02*
X139503490Y-119852971D01*
X139503490Y-119852971D02*
X139503490Y-119995828D01*
X138503489Y-118495828D02*
X138360632Y-118495828D01*
X138360632Y-118495828D02*
X138217775Y-118567257D01*
X138217775Y-118567257D02*
X138146347Y-118638685D01*
X138146347Y-118638685D02*
X138074918Y-118781542D01*
X138074918Y-118781542D02*
X138003489Y-119067257D01*
X138003489Y-119067257D02*
X138003489Y-119424400D01*
X138003489Y-119424400D02*
X138074918Y-119710114D01*
X138074918Y-119710114D02*
X138146347Y-119852971D01*
X138146347Y-119852971D02*
X138217775Y-119924400D01*
X138217775Y-119924400D02*
X138360632Y-119995828D01*
X138360632Y-119995828D02*
X138503489Y-119995828D01*
X138503489Y-119995828D02*
X138646347Y-119924400D01*
X138646347Y-119924400D02*
X138717775Y-119852971D01*
X138717775Y-119852971D02*
X138789204Y-119710114D01*
X138789204Y-119710114D02*
X138860632Y-119424400D01*
X138860632Y-119424400D02*
X138860632Y-119067257D01*
X138860632Y-119067257D02*
X138789204Y-118781542D01*
X138789204Y-118781542D02*
X138717775Y-118638685D01*
X138717775Y-118638685D02*
X138646347Y-118567257D01*
X138646347Y-118567257D02*
X138503489Y-118495828D01*
D11*
X145795904Y-87894438D02*
X145891142Y-87846819D01*
X145891142Y-87846819D02*
X146033999Y-87846819D01*
X146033999Y-87846819D02*
X146176856Y-87894438D01*
X146176856Y-87894438D02*
X146272094Y-87989676D01*
X146272094Y-87989676D02*
X146319713Y-88084914D01*
X146319713Y-88084914D02*
X146367332Y-88275390D01*
X146367332Y-88275390D02*
X146367332Y-88418247D01*
X146367332Y-88418247D02*
X146319713Y-88608723D01*
X146319713Y-88608723D02*
X146272094Y-88703961D01*
X146272094Y-88703961D02*
X146176856Y-88799200D01*
X146176856Y-88799200D02*
X146033999Y-88846819D01*
X146033999Y-88846819D02*
X145938761Y-88846819D01*
X145938761Y-88846819D02*
X145795904Y-88799200D01*
X145795904Y-88799200D02*
X145748285Y-88751580D01*
X145748285Y-88751580D02*
X145748285Y-88418247D01*
X145748285Y-88418247D02*
X145938761Y-88418247D01*
X145319713Y-88846819D02*
X145319713Y-87846819D01*
X145319713Y-87846819D02*
X144748285Y-88846819D01*
X144748285Y-88846819D02*
X144748285Y-87846819D01*
X144272094Y-88846819D02*
X144272094Y-87846819D01*
X144272094Y-87846819D02*
X144033999Y-87846819D01*
X144033999Y-87846819D02*
X143891142Y-87894438D01*
X143891142Y-87894438D02*
X143795904Y-87989676D01*
X143795904Y-87989676D02*
X143748285Y-88084914D01*
X143748285Y-88084914D02*
X143700666Y-88275390D01*
X143700666Y-88275390D02*
X143700666Y-88418247D01*
X143700666Y-88418247D02*
X143748285Y-88608723D01*
X143748285Y-88608723D02*
X143795904Y-88703961D01*
X143795904Y-88703961D02*
X143891142Y-88799200D01*
X143891142Y-88799200D02*
X144033999Y-88846819D01*
X144033999Y-88846819D02*
X144272094Y-88846819D01*
D12*
%TO.C,P1*%
X121964450Y-117838499D02*
G75*
G03*
X121964450Y-117838499I-381000J0D01*
G01*
%TD*%
M02*
