%TF.GenerationSoftware,KiCad,Pcbnew,7.0.6*%
%TF.CreationDate,2023-08-02T20:25:14-07:00*%
%TF.ProjectId,A0004-SWD-Adapter,41303030-342d-4535-9744-2d4164617074,rev?*%
%TF.SameCoordinates,Original*%
%TF.FileFunction,Copper,L2,Bot*%
%TF.FilePolarity,Positive*%
%FSLAX46Y46*%
G04 Gerber Fmt 4.6, Leading zero omitted, Abs format (unit mm)*
G04 Created by KiCad (PCBNEW 7.0.6) date 2023-08-02 20:25:14*
%MOMM*%
%LPD*%
G01*
G04 APERTURE LIST*
%TA.AperFunction,ComponentPad*%
%ADD10C,1.498600*%
%TD*%
%TA.AperFunction,ComponentPad*%
%ADD11O,1.016000X2.032000*%
%TD*%
%TA.AperFunction,ComponentPad*%
%ADD12C,1.066800*%
%TD*%
%TA.AperFunction,SMDPad,CuDef*%
%ADD13C,1.524000*%
%TD*%
%TA.AperFunction,ViaPad*%
%ADD14C,0.711200*%
%TD*%
%TA.AperFunction,Conductor*%
%ADD15C,0.381000*%
%TD*%
%TA.AperFunction,Conductor*%
%ADD16C,0.250000*%
%TD*%
G04 APERTURE END LIST*
D10*
%TO.P,P1,1,1*%
%TO.N,MCU_VDD*%
X124123450Y-112059999D03*
%TO.P,P1,2,2*%
%TO.N,unconnected-(P1-Pad2)*%
X121583450Y-112059999D03*
%TO.P,P1,3,3*%
%TO.N,unconnected-(P1-Pad3)*%
X124123450Y-109519999D03*
%TO.P,P1,4,4*%
%TO.N,Earth*%
X121583450Y-109519999D03*
%TO.P,P1,5,5*%
%TO.N,unconnected-(P1-Pad5)*%
X124123450Y-106979999D03*
%TO.P,P1,6,6*%
%TO.N,Earth*%
X121583450Y-106979999D03*
%TO.P,P1,7,7*%
%TO.N,SWDIO*%
X124123450Y-104439999D03*
%TO.P,P1,8,8*%
%TO.N,unconnected-(P1-Pad8)*%
X121583450Y-104439999D03*
%TO.P,P1,9,9*%
%TO.N,SWCLK*%
X124123450Y-101899999D03*
%TO.P,P1,10,10*%
%TO.N,Earth*%
X121583450Y-101899999D03*
%TO.P,P1,11,11*%
%TO.N,unconnected-(P1-Pad11)*%
X124123450Y-99359999D03*
%TO.P,P1,12,12*%
%TO.N,Earth*%
X121583450Y-99359999D03*
%TO.P,P1,13,13*%
%TO.N,SWO*%
X124123450Y-96819999D03*
%TO.P,P1,14,14*%
%TO.N,Earth*%
X121583450Y-96819999D03*
%TO.P,P1,15,15*%
%TO.N,NRST*%
X124123450Y-94279999D03*
%TO.P,P1,16,16*%
%TO.N,Earth*%
X121583450Y-94279999D03*
%TO.P,P1,17,17*%
%TO.N,unconnected-(P1-Pad17)*%
X124123450Y-91739999D03*
%TO.P,P1,18,18*%
%TO.N,Earth*%
X121583450Y-91739999D03*
%TO.P,P1,19,19*%
%TO.N,unconnected-(P1-Pad19)*%
X124123450Y-89199999D03*
%TO.P,P1,20,20*%
%TO.N,Earth*%
X121583450Y-89199999D03*
%TD*%
D11*
%TO.P,P4,1,1*%
%TO.N,Earth*%
X132434000Y-79375000D03*
%TO.P,P4,2,2*%
%TO.N,NRST*%
X133684000Y-79375000D03*
%TO.P,P4,3,3*%
%TO.N,SWO*%
X134934000Y-79375000D03*
%TO.P,P4,4,4*%
%TO.N,SWCLK*%
X136184000Y-79375000D03*
%TO.P,P4,5,5*%
%TO.N,SWDIO*%
X137434000Y-79375000D03*
%TO.P,P4,6,6*%
%TO.N,MCU_VDD*%
X138684000Y-79375000D03*
%TD*%
%TO.P,P3,1,1*%
%TO.N,MCU_VDD*%
X138430000Y-122682000D03*
%TO.P,P3,2,2*%
%TO.N,SWDIO*%
X137180000Y-122682000D03*
%TO.P,P3,3,3*%
%TO.N,SWCLK*%
X135930000Y-122682000D03*
%TO.P,P3,4,4*%
%TO.N,SWO*%
X134680000Y-122682000D03*
%TO.P,P3,5,5*%
%TO.N,NRST*%
X133430000Y-122682000D03*
%TO.P,P3,6,6*%
%TO.N,Earth*%
X132180000Y-122682000D03*
%TD*%
D12*
%TO.P,P2,1,1*%
%TO.N,MCU_VDD*%
X148832950Y-92837000D03*
%TO.P,P2,2,2*%
%TO.N,unconnected-(P2-Pad2)*%
X150102950Y-92837000D03*
%TO.P,P2,3,3*%
%TO.N,unconnected-(P2-Pad3)*%
X148832950Y-94107000D03*
%TO.P,P2,4,4*%
%TO.N,Earth*%
X150102950Y-94107000D03*
%TO.P,P2,5,5*%
%TO.N,unconnected-(P2-Pad5)*%
X148832950Y-95377000D03*
%TO.P,P2,6,6*%
%TO.N,Earth*%
X150102950Y-95377000D03*
%TO.P,P2,7,7*%
%TO.N,SWDIO*%
X148832950Y-96647000D03*
%TO.P,P2,8,8*%
%TO.N,unconnected-(P2-Pad8)*%
X150102950Y-96647000D03*
%TO.P,P2,9,9*%
%TO.N,SWCLK*%
X148832950Y-97917000D03*
%TO.P,P2,10,10*%
%TO.N,Earth*%
X150102950Y-97917000D03*
%TO.P,P2,11,11*%
%TO.N,unconnected-(P2-Pad11)*%
X148832950Y-99187000D03*
%TO.P,P2,12,12*%
%TO.N,Earth*%
X150102950Y-99187000D03*
%TO.P,P2,13,13*%
%TO.N,SWO*%
X148832950Y-100457000D03*
%TO.P,P2,14,14*%
%TO.N,Earth*%
X150102950Y-100457000D03*
%TO.P,P2,15,15*%
%TO.N,NRST*%
X148832950Y-101727000D03*
%TO.P,P2,16,16*%
%TO.N,Earth*%
X150102950Y-101727000D03*
%TO.P,P2,17,17*%
%TO.N,unconnected-(P2-Pad17)*%
X148832950Y-102997000D03*
%TO.P,P2,18,18*%
%TO.N,Earth*%
X150102950Y-102997000D03*
%TO.P,P2,19,19*%
%TO.N,unconnected-(P2-Pad19)*%
X148832950Y-104267000D03*
%TO.P,P2,20,20*%
%TO.N,Earth*%
X150102950Y-104267000D03*
%TD*%
D13*
%TO.P,TP3,1*%
%TO.N,Earth*%
X145034000Y-90424000D03*
%TD*%
D14*
%TO.N,MCU_VDD*%
X147066000Y-92837000D03*
%TO.N,Earth*%
X152019000Y-95377000D03*
X152146000Y-101727000D03*
%TO.N,SWDIO*%
X140335000Y-87884000D03*
%TO.N,SWCLK*%
X140335000Y-89535000D03*
%TO.N,SWDIO*%
X142494000Y-96520000D03*
X142494000Y-104394000D03*
%TO.N,SWCLK*%
X143302000Y-101900000D03*
X143256000Y-97790000D03*
%TO.N,SWO*%
X138176000Y-100584000D03*
X138176000Y-96774000D03*
%TO.N,NRST*%
X136906000Y-94234000D03*
X136906000Y-103124000D03*
%TD*%
D15*
%TO.N,MCU_VDD*%
X148832950Y-92837000D02*
X147066000Y-92837000D01*
D16*
%TO.N,Earth*%
X150102950Y-95377000D02*
X152019000Y-95377000D01*
D15*
X150102950Y-101727000D02*
X152146000Y-101727000D01*
X150102950Y-102997000D02*
X150102950Y-104267000D01*
X150102950Y-101727000D02*
X150102950Y-102997000D01*
X150102950Y-100457000D02*
X150102950Y-101727000D01*
X150102950Y-99187000D02*
X150102950Y-100457000D01*
X150102950Y-97917000D02*
X150102950Y-99187000D01*
D16*
X150102950Y-94107000D02*
X150102950Y-95377000D01*
D15*
%TO.N,SWCLK*%
X135930000Y-122682000D02*
X135930000Y-115022000D01*
X135930000Y-115022000D02*
X143302000Y-107650000D01*
X143302000Y-107650000D02*
X143302000Y-101900000D01*
%TO.N,SWO*%
X134680000Y-122682000D02*
X134680000Y-112208000D01*
X134680000Y-112208000D02*
X138176000Y-108712000D01*
X138176000Y-108712000D02*
X138176000Y-100584000D01*
%TO.N,NRST*%
X133430000Y-122682000D02*
X133430000Y-109775000D01*
X133430000Y-109775000D02*
X135890000Y-107315000D01*
D16*
X135445500Y-107759500D02*
X135890000Y-107315000D01*
D15*
X136906000Y-106299000D02*
X135445500Y-107759500D01*
X136906000Y-103124000D02*
X136906000Y-106299000D01*
%TO.N,SWDIO*%
X142494000Y-93599000D02*
X139192000Y-90297000D01*
X142494000Y-96520000D02*
X142494000Y-93599000D01*
X139192000Y-90297000D02*
X139192000Y-89027000D01*
X139192000Y-89027000D02*
X140335000Y-87884000D01*
%TO.N,SWCLK*%
X143256000Y-97790000D02*
X143256000Y-92456000D01*
X143256000Y-92456000D02*
X140335000Y-89535000D01*
%TO.N,SWDIO*%
X142494000Y-104394000D02*
X142494000Y-96520000D01*
%TO.N,SWCLK*%
X143302000Y-101900000D02*
X143256000Y-101854000D01*
X143256000Y-97790000D02*
X148590000Y-97790000D01*
X148590000Y-97790000D02*
X148844000Y-98044000D01*
X143256000Y-101854000D02*
X143256000Y-97790000D01*
%TO.N,SWO*%
X138176000Y-96774000D02*
X138176000Y-100584000D01*
%TO.N,NRST*%
X136906000Y-94234000D02*
X136906000Y-103124000D01*
%TD*%
%TA.AperFunction,Conductor*%
%TO.N,Earth*%
G36*
X150001737Y-103823844D02*
G01*
X150038916Y-103849413D01*
X150088203Y-103898700D01*
X150072429Y-103898700D01*
X149981709Y-103913838D01*
X149873607Y-103972340D01*
X149842573Y-104006051D01*
X149832574Y-103973088D01*
X149831951Y-103903223D01*
X149869198Y-103844110D01*
X149932492Y-103814519D01*
X150001737Y-103823844D01*
G37*
%TD.AperFunction*%
%TA.AperFunction,Conductor*%
G36*
X149925235Y-103325389D02*
G01*
X150041492Y-103365300D01*
X150088203Y-103365300D01*
X150038916Y-103414587D01*
X149977592Y-103448071D01*
X149907901Y-103443087D01*
X149851968Y-103401215D01*
X149827551Y-103335750D01*
X149832574Y-103290912D01*
X149841812Y-103260458D01*
X149925235Y-103325389D01*
G37*
%TD.AperFunction*%
%TA.AperFunction,Conductor*%
G36*
X150001738Y-102553846D02*
G01*
X150038918Y-102579415D01*
X150088203Y-102628700D01*
X150072429Y-102628700D01*
X149981709Y-102643838D01*
X149873607Y-102702340D01*
X149842573Y-102736051D01*
X149832576Y-102703092D01*
X149831952Y-102633225D01*
X149869200Y-102574112D01*
X149932494Y-102544521D01*
X150001738Y-102553846D01*
G37*
%TD.AperFunction*%
%TA.AperFunction,Conductor*%
G36*
X149925235Y-102055389D02*
G01*
X150041492Y-102095300D01*
X150088203Y-102095300D01*
X150038917Y-102144586D01*
X149977593Y-102178070D01*
X149907902Y-102173086D01*
X149851969Y-102131214D01*
X149827552Y-102065749D01*
X149832576Y-102020908D01*
X149841812Y-101990458D01*
X149925235Y-102055389D01*
G37*
%TD.AperFunction*%
%TA.AperFunction,Conductor*%
G36*
X150001737Y-101283844D02*
G01*
X150038916Y-101309413D01*
X150088203Y-101358700D01*
X150072429Y-101358700D01*
X149981709Y-101373838D01*
X149873607Y-101432340D01*
X149842573Y-101466051D01*
X149832574Y-101433088D01*
X149831951Y-101363223D01*
X149869198Y-101304110D01*
X149932492Y-101274519D01*
X150001737Y-101283844D01*
G37*
%TD.AperFunction*%
%TA.AperFunction,Conductor*%
G36*
X149925235Y-100785389D02*
G01*
X150041492Y-100825300D01*
X150088203Y-100825300D01*
X150038916Y-100874587D01*
X149977592Y-100908071D01*
X149907901Y-100903087D01*
X149851968Y-100861215D01*
X149827551Y-100795750D01*
X149832574Y-100750912D01*
X149841812Y-100720458D01*
X149925235Y-100785389D01*
G37*
%TD.AperFunction*%
%TA.AperFunction,Conductor*%
G36*
X150001737Y-100013844D02*
G01*
X150038916Y-100039413D01*
X150088203Y-100088700D01*
X150072429Y-100088700D01*
X149981709Y-100103838D01*
X149873607Y-100162340D01*
X149842573Y-100196051D01*
X149832574Y-100163088D01*
X149831951Y-100093223D01*
X149869198Y-100034110D01*
X149932492Y-100004519D01*
X150001737Y-100013844D01*
G37*
%TD.AperFunction*%
%TA.AperFunction,Conductor*%
G36*
X149925235Y-99515389D02*
G01*
X150041492Y-99555300D01*
X150088203Y-99555300D01*
X150038916Y-99604587D01*
X149977592Y-99638071D01*
X149907901Y-99633087D01*
X149851968Y-99591215D01*
X149827551Y-99525750D01*
X149832574Y-99480912D01*
X149841812Y-99450458D01*
X149925235Y-99515389D01*
G37*
%TD.AperFunction*%
%TA.AperFunction,Conductor*%
G36*
X150001737Y-98743844D02*
G01*
X150038916Y-98769413D01*
X150088203Y-98818700D01*
X150072429Y-98818700D01*
X149981709Y-98833838D01*
X149873607Y-98892340D01*
X149842573Y-98926051D01*
X149832574Y-98893088D01*
X149831951Y-98823223D01*
X149869198Y-98764110D01*
X149932492Y-98734519D01*
X150001737Y-98743844D01*
G37*
%TD.AperFunction*%
%TA.AperFunction,Conductor*%
G36*
X149925235Y-98245389D02*
G01*
X150041492Y-98285300D01*
X150088203Y-98285300D01*
X150038916Y-98334587D01*
X149977592Y-98368071D01*
X149907901Y-98363087D01*
X149851968Y-98321215D01*
X149827551Y-98255750D01*
X149832574Y-98210912D01*
X149841812Y-98180458D01*
X149925235Y-98245389D01*
G37*
%TD.AperFunction*%
%TA.AperFunction,Conductor*%
G36*
X150001737Y-94933844D02*
G01*
X150038916Y-94959413D01*
X150088203Y-95008700D01*
X150072429Y-95008700D01*
X149981709Y-95023838D01*
X149873607Y-95082340D01*
X149842573Y-95116051D01*
X149832574Y-95083088D01*
X149831951Y-95013223D01*
X149869198Y-94954110D01*
X149932492Y-94924519D01*
X150001737Y-94933844D01*
G37*
%TD.AperFunction*%
%TA.AperFunction,Conductor*%
G36*
X149925235Y-94435389D02*
G01*
X150041492Y-94475300D01*
X150088203Y-94475300D01*
X150038916Y-94524587D01*
X149977592Y-94558071D01*
X149907901Y-94553087D01*
X149851968Y-94511215D01*
X149827551Y-94445750D01*
X149832574Y-94400912D01*
X149841812Y-94370458D01*
X149925235Y-94435389D01*
G37*
%TD.AperFunction*%
%TA.AperFunction,Conductor*%
G36*
X122626071Y-110209068D02*
G01*
X122669507Y-110147034D01*
X122736378Y-110003631D01*
X122782550Y-109951192D01*
X122849744Y-109932040D01*
X122916625Y-109952256D01*
X122961142Y-110003631D01*
X123030002Y-110151302D01*
X123030004Y-110151306D01*
X123156238Y-110331587D01*
X123311861Y-110487210D01*
X123492142Y-110613444D01*
X123492144Y-110613445D01*
X123492147Y-110613447D01*
X123619702Y-110672927D01*
X123629760Y-110677617D01*
X123682199Y-110723789D01*
X123701351Y-110790983D01*
X123681135Y-110857864D01*
X123629760Y-110902381D01*
X123492149Y-110966550D01*
X123492147Y-110966551D01*
X123311860Y-111092788D01*
X123156239Y-111248409D01*
X123030002Y-111428696D01*
X123030001Y-111428698D01*
X122965832Y-111566309D01*
X122919659Y-111618748D01*
X122852466Y-111637900D01*
X122785585Y-111617684D01*
X122741068Y-111566309D01*
X122676898Y-111428698D01*
X122676897Y-111428696D01*
X122550660Y-111248409D01*
X122395038Y-111092787D01*
X122214757Y-110966553D01*
X122214753Y-110966551D01*
X122067082Y-110897691D01*
X122014643Y-110851519D01*
X121995491Y-110784325D01*
X122015707Y-110717444D01*
X122067082Y-110672927D01*
X122210485Y-110606056D01*
X122272519Y-110562620D01*
X121711832Y-110001933D01*
X121724427Y-110000123D01*
X121853983Y-109940956D01*
X121961622Y-109847687D01*
X122038623Y-109727870D01*
X122062739Y-109645736D01*
X122626071Y-110209068D01*
G37*
%TD.AperFunction*%
%TA.AperFunction,Conductor*%
G36*
X122626071Y-107669068D02*
G01*
X122669507Y-107607034D01*
X122736378Y-107463631D01*
X122782550Y-107411192D01*
X122849744Y-107392040D01*
X122916625Y-107412256D01*
X122961142Y-107463631D01*
X123030002Y-107611302D01*
X123030004Y-107611306D01*
X123156238Y-107791587D01*
X123311861Y-107947210D01*
X123492142Y-108073444D01*
X123492144Y-108073445D01*
X123492147Y-108073447D01*
X123629760Y-108137617D01*
X123682199Y-108183789D01*
X123701351Y-108250983D01*
X123681135Y-108317864D01*
X123629760Y-108362381D01*
X123492149Y-108426550D01*
X123492147Y-108426551D01*
X123311860Y-108552788D01*
X123156239Y-108708409D01*
X123030002Y-108888696D01*
X123030001Y-108888698D01*
X122961142Y-109036366D01*
X122914969Y-109088805D01*
X122847776Y-109107957D01*
X122780894Y-109087741D01*
X122736378Y-109036366D01*
X122669505Y-108892959D01*
X122626072Y-108830929D01*
X122626071Y-108830928D01*
X122062739Y-109394260D01*
X122038623Y-109312128D01*
X121961622Y-109192311D01*
X121853983Y-109099042D01*
X121724427Y-109039875D01*
X121711832Y-109038064D01*
X122272519Y-108477376D01*
X122272518Y-108477375D01*
X122210489Y-108433943D01*
X122057024Y-108362381D01*
X122004585Y-108316209D01*
X121985433Y-108249015D01*
X122005649Y-108182134D01*
X122057024Y-108137617D01*
X122210485Y-108066056D01*
X122272519Y-108022620D01*
X121711832Y-107461933D01*
X121724427Y-107460123D01*
X121853983Y-107400956D01*
X121961622Y-107307687D01*
X122038623Y-107187870D01*
X122062739Y-107105736D01*
X122626071Y-107669068D01*
G37*
%TD.AperFunction*%
%TA.AperFunction,Conductor*%
G36*
X122921315Y-104882313D02*
G01*
X122965832Y-104933688D01*
X123030002Y-105071302D01*
X123030004Y-105071306D01*
X123156238Y-105251587D01*
X123311861Y-105407210D01*
X123492142Y-105533444D01*
X123492144Y-105533445D01*
X123492147Y-105533447D01*
X123629760Y-105597617D01*
X123682199Y-105643789D01*
X123701351Y-105710983D01*
X123681135Y-105777864D01*
X123629760Y-105822381D01*
X123492149Y-105886550D01*
X123492147Y-105886551D01*
X123311860Y-106012788D01*
X123156239Y-106168409D01*
X123030002Y-106348696D01*
X123030001Y-106348698D01*
X122961142Y-106496366D01*
X122914969Y-106548805D01*
X122847776Y-106567957D01*
X122780894Y-106547741D01*
X122736378Y-106496366D01*
X122669505Y-106352959D01*
X122626072Y-106290929D01*
X122626071Y-106290928D01*
X122062739Y-106854260D01*
X122038623Y-106772128D01*
X121961622Y-106652311D01*
X121853983Y-106559042D01*
X121724427Y-106499875D01*
X121711832Y-106498064D01*
X122272519Y-105937376D01*
X122272518Y-105937375D01*
X122210489Y-105893943D01*
X122067082Y-105827070D01*
X122014643Y-105780897D01*
X121995491Y-105713704D01*
X122015707Y-105646823D01*
X122067081Y-105602307D01*
X122214753Y-105533447D01*
X122395037Y-105407211D01*
X122550662Y-105251586D01*
X122676898Y-105071302D01*
X122741068Y-104933686D01*
X122787240Y-104881249D01*
X122854434Y-104862097D01*
X122921315Y-104882313D01*
G37*
%TD.AperFunction*%
%TA.AperFunction,Conductor*%
G36*
X122626071Y-102589068D02*
G01*
X122669507Y-102527034D01*
X122736378Y-102383631D01*
X122782550Y-102331192D01*
X122849744Y-102312040D01*
X122916625Y-102332256D01*
X122961142Y-102383631D01*
X123030002Y-102531302D01*
X123030004Y-102531306D01*
X123156238Y-102711587D01*
X123311861Y-102867210D01*
X123492142Y-102993444D01*
X123492144Y-102993445D01*
X123492147Y-102993447D01*
X123619702Y-103052927D01*
X123629760Y-103057617D01*
X123682199Y-103103789D01*
X123701351Y-103170983D01*
X123681135Y-103237864D01*
X123629760Y-103282381D01*
X123492149Y-103346550D01*
X123492147Y-103346551D01*
X123311860Y-103472788D01*
X123156239Y-103628409D01*
X123030002Y-103808696D01*
X123030001Y-103808698D01*
X122965832Y-103946309D01*
X122919659Y-103998748D01*
X122852466Y-104017900D01*
X122785585Y-103997684D01*
X122741068Y-103946309D01*
X122709653Y-103878940D01*
X122676898Y-103808697D01*
X122550662Y-103628412D01*
X122550660Y-103628409D01*
X122395038Y-103472787D01*
X122214757Y-103346553D01*
X122214753Y-103346551D01*
X122067082Y-103277691D01*
X122014643Y-103231519D01*
X121995491Y-103164325D01*
X122015707Y-103097444D01*
X122067082Y-103052927D01*
X122210485Y-102986056D01*
X122272519Y-102942620D01*
X121711832Y-102381933D01*
X121724427Y-102380123D01*
X121853983Y-102320956D01*
X121961622Y-102227687D01*
X122038623Y-102107870D01*
X122062740Y-102025735D01*
X122626071Y-102589068D01*
G37*
%TD.AperFunction*%
%TA.AperFunction,Conductor*%
G36*
X122626071Y-100049068D02*
G01*
X122669507Y-99987034D01*
X122736378Y-99843631D01*
X122782550Y-99791192D01*
X122849744Y-99772040D01*
X122916625Y-99792256D01*
X122961142Y-99843631D01*
X123030002Y-99991302D01*
X123030004Y-99991306D01*
X123156238Y-100171587D01*
X123311861Y-100327210D01*
X123492142Y-100453444D01*
X123492144Y-100453445D01*
X123492147Y-100453447D01*
X123629760Y-100517617D01*
X123682199Y-100563789D01*
X123701351Y-100630983D01*
X123681135Y-100697864D01*
X123629760Y-100742381D01*
X123492149Y-100806550D01*
X123492147Y-100806551D01*
X123311860Y-100932788D01*
X123156239Y-101088409D01*
X123030002Y-101268696D01*
X123030001Y-101268698D01*
X122961142Y-101416366D01*
X122914969Y-101468805D01*
X122847776Y-101487957D01*
X122780894Y-101467741D01*
X122736378Y-101416366D01*
X122669505Y-101272959D01*
X122626072Y-101210929D01*
X122626071Y-101210928D01*
X122062739Y-101774260D01*
X122038623Y-101692128D01*
X121961622Y-101572311D01*
X121853983Y-101479042D01*
X121724427Y-101419875D01*
X121711832Y-101418064D01*
X122272519Y-100857376D01*
X122272518Y-100857375D01*
X122210489Y-100813943D01*
X122057024Y-100742381D01*
X122004585Y-100696209D01*
X121985433Y-100629015D01*
X122005649Y-100562134D01*
X122057024Y-100517617D01*
X122210485Y-100446056D01*
X122272519Y-100402620D01*
X121711832Y-99841933D01*
X121724427Y-99840123D01*
X121853983Y-99780956D01*
X121961622Y-99687687D01*
X122038623Y-99567870D01*
X122062739Y-99485736D01*
X122626071Y-100049068D01*
G37*
%TD.AperFunction*%
%TA.AperFunction,Conductor*%
G36*
X122626071Y-97509068D02*
G01*
X122669507Y-97447034D01*
X122736378Y-97303631D01*
X122782550Y-97251192D01*
X122849744Y-97232040D01*
X122916625Y-97252256D01*
X122961142Y-97303631D01*
X123030002Y-97451302D01*
X123030004Y-97451306D01*
X123156238Y-97631587D01*
X123311861Y-97787210D01*
X123492142Y-97913444D01*
X123492144Y-97913445D01*
X123492147Y-97913447D01*
X123629760Y-97977617D01*
X123682199Y-98023789D01*
X123701351Y-98090983D01*
X123681135Y-98157864D01*
X123629760Y-98202381D01*
X123492149Y-98266550D01*
X123492147Y-98266551D01*
X123311860Y-98392788D01*
X123156239Y-98548409D01*
X123030002Y-98728696D01*
X123030001Y-98728698D01*
X122961142Y-98876366D01*
X122914969Y-98928805D01*
X122847776Y-98947957D01*
X122780894Y-98927741D01*
X122736378Y-98876366D01*
X122669505Y-98732959D01*
X122626072Y-98670929D01*
X122626071Y-98670928D01*
X122062739Y-99234260D01*
X122038623Y-99152128D01*
X121961622Y-99032311D01*
X121853983Y-98939042D01*
X121724427Y-98879875D01*
X121711832Y-98878064D01*
X122272519Y-98317376D01*
X122272518Y-98317375D01*
X122210489Y-98273943D01*
X122057024Y-98202381D01*
X122004585Y-98156209D01*
X121985433Y-98089015D01*
X122005649Y-98022134D01*
X122057024Y-97977617D01*
X122210485Y-97906056D01*
X122272519Y-97862620D01*
X121711832Y-97301933D01*
X121724427Y-97300123D01*
X121853983Y-97240956D01*
X121961622Y-97147687D01*
X122038623Y-97027870D01*
X122062739Y-96945736D01*
X122626071Y-97509068D01*
G37*
%TD.AperFunction*%
%TA.AperFunction,Conductor*%
G36*
X122626071Y-94969068D02*
G01*
X122669507Y-94907034D01*
X122736378Y-94763631D01*
X122782550Y-94711192D01*
X122849744Y-94692040D01*
X122916625Y-94712256D01*
X122961142Y-94763631D01*
X123030002Y-94911302D01*
X123030004Y-94911306D01*
X123156238Y-95091587D01*
X123311861Y-95247210D01*
X123492142Y-95373444D01*
X123492144Y-95373445D01*
X123492147Y-95373447D01*
X123629348Y-95437425D01*
X123629760Y-95437617D01*
X123682199Y-95483789D01*
X123701351Y-95550983D01*
X123681135Y-95617864D01*
X123629760Y-95662381D01*
X123492149Y-95726550D01*
X123492147Y-95726551D01*
X123311860Y-95852788D01*
X123156239Y-96008409D01*
X123030002Y-96188696D01*
X123030001Y-96188698D01*
X122961142Y-96336366D01*
X122914969Y-96388805D01*
X122847776Y-96407957D01*
X122780894Y-96387741D01*
X122736378Y-96336366D01*
X122669505Y-96192959D01*
X122626072Y-96130929D01*
X122626071Y-96130928D01*
X122062739Y-96694260D01*
X122038623Y-96612128D01*
X121961622Y-96492311D01*
X121853983Y-96399042D01*
X121724427Y-96339875D01*
X121711832Y-96338064D01*
X122272519Y-95777376D01*
X122272518Y-95777375D01*
X122210489Y-95733943D01*
X122057024Y-95662381D01*
X122004585Y-95616209D01*
X121985433Y-95549015D01*
X122005649Y-95482134D01*
X122057024Y-95437617D01*
X122210485Y-95366056D01*
X122272519Y-95322620D01*
X121711832Y-94761933D01*
X121724427Y-94760123D01*
X121853983Y-94700956D01*
X121961622Y-94607687D01*
X122038623Y-94487870D01*
X122062740Y-94405735D01*
X122626071Y-94969068D01*
G37*
%TD.AperFunction*%
%TA.AperFunction,Conductor*%
G36*
X122626071Y-92429068D02*
G01*
X122669507Y-92367034D01*
X122736378Y-92223631D01*
X122782550Y-92171192D01*
X122849744Y-92152040D01*
X122916625Y-92172256D01*
X122961142Y-92223631D01*
X123030002Y-92371302D01*
X123030004Y-92371306D01*
X123156238Y-92551587D01*
X123311861Y-92707210D01*
X123492142Y-92833444D01*
X123492144Y-92833445D01*
X123492147Y-92833447D01*
X123629760Y-92897617D01*
X123682199Y-92943789D01*
X123701351Y-93010983D01*
X123681135Y-93077864D01*
X123629760Y-93122381D01*
X123492149Y-93186550D01*
X123492147Y-93186551D01*
X123311860Y-93312788D01*
X123156239Y-93468409D01*
X123030002Y-93648696D01*
X123030001Y-93648698D01*
X122961142Y-93796366D01*
X122914969Y-93848805D01*
X122847776Y-93867957D01*
X122780894Y-93847741D01*
X122736378Y-93796366D01*
X122669505Y-93652959D01*
X122626072Y-93590929D01*
X122626071Y-93590928D01*
X122062739Y-94154260D01*
X122038623Y-94072128D01*
X121961622Y-93952311D01*
X121853983Y-93859042D01*
X121724427Y-93799875D01*
X121711832Y-93798064D01*
X122272519Y-93237376D01*
X122272518Y-93237375D01*
X122210489Y-93193943D01*
X122057024Y-93122381D01*
X122004585Y-93076209D01*
X121985433Y-93009015D01*
X122005649Y-92942134D01*
X122057024Y-92897617D01*
X122210485Y-92826056D01*
X122272519Y-92782620D01*
X121711832Y-92221933D01*
X121724427Y-92220123D01*
X121853983Y-92160956D01*
X121961622Y-92067687D01*
X122038623Y-91947870D01*
X122062739Y-91865736D01*
X122626071Y-92429068D01*
G37*
%TD.AperFunction*%
%TA.AperFunction,Conductor*%
G36*
X122626071Y-89889068D02*
G01*
X122669507Y-89827034D01*
X122736378Y-89683631D01*
X122782550Y-89631192D01*
X122849744Y-89612040D01*
X122916625Y-89632256D01*
X122961142Y-89683631D01*
X123030002Y-89831302D01*
X123030004Y-89831306D01*
X123156238Y-90011587D01*
X123311861Y-90167210D01*
X123492142Y-90293444D01*
X123492144Y-90293445D01*
X123492147Y-90293447D01*
X123590934Y-90339512D01*
X123629760Y-90357617D01*
X123682199Y-90403789D01*
X123701351Y-90470983D01*
X123681135Y-90537864D01*
X123629760Y-90582381D01*
X123492149Y-90646550D01*
X123492147Y-90646551D01*
X123311860Y-90772788D01*
X123156239Y-90928409D01*
X123030002Y-91108696D01*
X123030001Y-91108698D01*
X122961142Y-91256366D01*
X122914969Y-91308805D01*
X122847776Y-91327957D01*
X122780894Y-91307741D01*
X122736378Y-91256366D01*
X122669505Y-91112959D01*
X122626072Y-91050929D01*
X122626071Y-91050928D01*
X122062739Y-91614260D01*
X122038623Y-91532128D01*
X121961622Y-91412311D01*
X121853983Y-91319042D01*
X121724427Y-91259875D01*
X121711832Y-91258064D01*
X122272519Y-90697376D01*
X122272518Y-90697375D01*
X122210489Y-90653943D01*
X122057024Y-90582381D01*
X122004585Y-90536209D01*
X121985433Y-90469015D01*
X122005649Y-90402134D01*
X122057024Y-90357617D01*
X122210485Y-90286056D01*
X122272519Y-90242620D01*
X121711832Y-89681933D01*
X121724427Y-89680123D01*
X121853983Y-89620956D01*
X121961622Y-89527687D01*
X122038623Y-89407870D01*
X122062739Y-89325736D01*
X122626071Y-89889068D01*
G37*
%TD.AperFunction*%
%TA.AperFunction,Conductor*%
G36*
X154882539Y-75712185D02*
G01*
X154928294Y-75764989D01*
X154939500Y-75816500D01*
X154939500Y-125859500D01*
X154919815Y-125926539D01*
X154867011Y-125972294D01*
X154815500Y-125983500D01*
X144866500Y-125983500D01*
X114422968Y-125607652D01*
X114356177Y-125587141D01*
X114311077Y-125533776D01*
X114300500Y-125483665D01*
X114300500Y-121334903D01*
X115959793Y-121334903D01*
X115969672Y-121642970D01*
X115969672Y-121642975D01*
X115969673Y-121642978D01*
X116018867Y-121947261D01*
X116063137Y-122096419D01*
X116106571Y-122242763D01*
X116231333Y-122524601D01*
X116231337Y-122524609D01*
X116391123Y-122788193D01*
X116391127Y-122788198D01*
X116391133Y-122788207D01*
X116583297Y-123029174D01*
X116583299Y-123029176D01*
X116583303Y-123029180D01*
X116583304Y-123029181D01*
X116804724Y-123243614D01*
X116971862Y-123368352D01*
X117051741Y-123427968D01*
X117051743Y-123427969D01*
X117051747Y-123427972D01*
X117320318Y-123579228D01*
X117461057Y-123636207D01*
X117606018Y-123694897D01*
X117606023Y-123694898D01*
X117606025Y-123694899D01*
X117904179Y-123773084D01*
X118209883Y-123812500D01*
X118209890Y-123812500D01*
X118440980Y-123812500D01*
X118539814Y-123806154D01*
X118671601Y-123797693D01*
X118974151Y-123738772D01*
X119266683Y-123641644D01*
X119266689Y-123641640D01*
X119266693Y-123641640D01*
X119483619Y-123537174D01*
X119544393Y-123507907D01*
X119802720Y-123339754D01*
X120037424Y-123139948D01*
X120226277Y-122932000D01*
X131172000Y-122932000D01*
X131172000Y-123239514D01*
X131186584Y-123387603D01*
X131186585Y-123387605D01*
X131244224Y-123577612D01*
X131337820Y-123752718D01*
X131337825Y-123752725D01*
X131463787Y-123906212D01*
X131617274Y-124032174D01*
X131617281Y-124032179D01*
X131792384Y-124125774D01*
X131929999Y-124167519D01*
X131930000Y-124167519D01*
X131930000Y-122932000D01*
X131172000Y-122932000D01*
X120226277Y-122932000D01*
X120244650Y-122911769D01*
X120404926Y-122682000D01*
X131921024Y-122682000D01*
X131940737Y-122781106D01*
X131996876Y-122865124D01*
X132080894Y-122921263D01*
X132154983Y-122936000D01*
X132205017Y-122936000D01*
X132279106Y-122921263D01*
X132363124Y-122865124D01*
X132413500Y-122789730D01*
X132413500Y-123239934D01*
X132423331Y-123339751D01*
X132428805Y-123395332D01*
X132428509Y-123395361D01*
X132430000Y-123410492D01*
X132430000Y-124167519D01*
X132567613Y-124125774D01*
X132737831Y-124034790D01*
X132806234Y-124020548D01*
X132856323Y-124037967D01*
X132857158Y-124036407D01*
X133024353Y-124125774D01*
X133039120Y-124133667D01*
X133230731Y-124191792D01*
X133430000Y-124211418D01*
X133629269Y-124191792D01*
X133820880Y-124133667D01*
X133996547Y-124039770D01*
X134064948Y-124025529D01*
X134113452Y-124039771D01*
X134274353Y-124125774D01*
X134289120Y-124133667D01*
X134480731Y-124191792D01*
X134680000Y-124211418D01*
X134879269Y-124191792D01*
X135070880Y-124133667D01*
X135246550Y-124039769D01*
X135314949Y-124025528D01*
X135363448Y-124039768D01*
X135539120Y-124133667D01*
X135730731Y-124191792D01*
X135930000Y-124211418D01*
X136129269Y-124191792D01*
X136320880Y-124133667D01*
X136496550Y-124039769D01*
X136564949Y-124025528D01*
X136613448Y-124039768D01*
X136789120Y-124133667D01*
X136980731Y-124191792D01*
X137180000Y-124211418D01*
X137379269Y-124191792D01*
X137570880Y-124133667D01*
X137746550Y-124039768D01*
X137814947Y-124025528D01*
X137863449Y-124039769D01*
X138039120Y-124133667D01*
X138230731Y-124191792D01*
X138430000Y-124211418D01*
X138629269Y-124191792D01*
X138820880Y-124133667D01*
X138997469Y-124039278D01*
X139152252Y-123912252D01*
X139279278Y-123757469D01*
X139373667Y-123580880D01*
X139431792Y-123389269D01*
X139446500Y-123239934D01*
X139446500Y-122124066D01*
X139431792Y-121974731D01*
X139391802Y-121842903D01*
X148471793Y-121842903D01*
X148481672Y-122150970D01*
X148481672Y-122150975D01*
X148481673Y-122150978D01*
X148530867Y-122455261D01*
X148575137Y-122604419D01*
X148618571Y-122750763D01*
X148743333Y-123032601D01*
X148743337Y-123032609D01*
X148903123Y-123296193D01*
X148903127Y-123296198D01*
X148903133Y-123296207D01*
X149095297Y-123537174D01*
X149095299Y-123537176D01*
X149095303Y-123537180D01*
X149095304Y-123537181D01*
X149316724Y-123751614D01*
X149483862Y-123876352D01*
X149563741Y-123935968D01*
X149563743Y-123935969D01*
X149563747Y-123935972D01*
X149832318Y-124087228D01*
X149973057Y-124144207D01*
X150118018Y-124202897D01*
X150118023Y-124202898D01*
X150118025Y-124202899D01*
X150416179Y-124281084D01*
X150721883Y-124320500D01*
X150721890Y-124320500D01*
X150952980Y-124320500D01*
X151051814Y-124314154D01*
X151183601Y-124305693D01*
X151486151Y-124246772D01*
X151778683Y-124149644D01*
X151778689Y-124149640D01*
X151778693Y-124149640D01*
X152006838Y-124039771D01*
X152056393Y-124015907D01*
X152314720Y-123847754D01*
X152549424Y-123647948D01*
X152756650Y-123419769D01*
X152932996Y-123166963D01*
X153075567Y-122893683D01*
X153182020Y-122604415D01*
X153250609Y-122303908D01*
X153280206Y-121997098D01*
X153279293Y-121968639D01*
X153275261Y-121842902D01*
X153270327Y-121689022D01*
X153221133Y-121384739D01*
X153133431Y-121089244D01*
X153133429Y-121089239D01*
X153133428Y-121089236D01*
X153008666Y-120807398D01*
X153008663Y-120807391D01*
X152848877Y-120543807D01*
X152848870Y-120543799D01*
X152848866Y-120543792D01*
X152656702Y-120302825D01*
X152656700Y-120302823D01*
X152653163Y-120299398D01*
X152435276Y-120088386D01*
X152306450Y-119992241D01*
X152188258Y-119904031D01*
X152188253Y-119904028D01*
X151919682Y-119752772D01*
X151882383Y-119737671D01*
X151633981Y-119637102D01*
X151466660Y-119593226D01*
X151335821Y-119558916D01*
X151030117Y-119519500D01*
X150799026Y-119519500D01*
X150799020Y-119519500D01*
X150568406Y-119534306D01*
X150568389Y-119534308D01*
X150265854Y-119593226D01*
X150265849Y-119593228D01*
X149973310Y-119690358D01*
X149973306Y-119690359D01*
X149695613Y-119824089D01*
X149695605Y-119824094D01*
X149437286Y-119992241D01*
X149437276Y-119992248D01*
X149202581Y-120192046D01*
X149202571Y-120192056D01*
X148995354Y-120420225D01*
X148995350Y-120420229D01*
X148819005Y-120673033D01*
X148819003Y-120673037D01*
X148676432Y-120946319D01*
X148676429Y-120946326D01*
X148569981Y-121235580D01*
X148569979Y-121235590D01*
X148501391Y-121536089D01*
X148471794Y-121842902D01*
X148471793Y-121842903D01*
X139391802Y-121842903D01*
X139373667Y-121783120D01*
X139323374Y-121689029D01*
X139279281Y-121606536D01*
X139279280Y-121606534D01*
X139279278Y-121606531D01*
X139182901Y-121489094D01*
X139152252Y-121451747D01*
X139055000Y-121371936D01*
X138997469Y-121324722D01*
X138997465Y-121324720D01*
X138997463Y-121324718D01*
X138820881Y-121230333D01*
X138629271Y-121172208D01*
X138430000Y-121152582D01*
X138230728Y-121172208D01*
X138039118Y-121230333D01*
X137863453Y-121324228D01*
X137795050Y-121338470D01*
X137746547Y-121324228D01*
X137570881Y-121230333D01*
X137379271Y-121172208D01*
X137180000Y-121152582D01*
X136980732Y-121172207D01*
X136788995Y-121230371D01*
X136719129Y-121230994D01*
X136660016Y-121193746D01*
X136630425Y-121130452D01*
X136629000Y-121111710D01*
X136629000Y-115362896D01*
X136648685Y-115295857D01*
X136665314Y-115275220D01*
X143780019Y-108160514D01*
X143782694Y-108157995D01*
X143829052Y-108116927D01*
X143864210Y-108065988D01*
X143866413Y-108062995D01*
X143904584Y-108014276D01*
X143908723Y-108005078D01*
X143919749Y-107985530D01*
X143925477Y-107977231D01*
X143925476Y-107977231D01*
X143925480Y-107977227D01*
X143947430Y-107919346D01*
X143948846Y-107915928D01*
X143974251Y-107859483D01*
X143976069Y-107849560D01*
X143982092Y-107827949D01*
X143985673Y-107818510D01*
X143993131Y-107757081D01*
X143993694Y-107753383D01*
X144004849Y-107692516D01*
X144004849Y-107692513D01*
X144001113Y-107630748D01*
X144001000Y-107627004D01*
X144001000Y-102450723D01*
X144017613Y-102388723D01*
X144050214Y-102332256D01*
X144095743Y-102253397D01*
X144151873Y-102080646D01*
X144170860Y-101900000D01*
X144151873Y-101719354D01*
X144095743Y-101546603D01*
X144095652Y-101546446D01*
X144004924Y-101389299D01*
X144004919Y-101389292D01*
X143986849Y-101369223D01*
X143956620Y-101306231D01*
X143955000Y-101286252D01*
X143955000Y-98613000D01*
X143974685Y-98545961D01*
X144027489Y-98500206D01*
X144079000Y-98489000D01*
X147817759Y-98489000D01*
X147884798Y-98508685D01*
X147930553Y-98561489D01*
X147940497Y-98630647D01*
X147927118Y-98671453D01*
X147865703Y-98786352D01*
X147806125Y-98982753D01*
X147786009Y-99187000D01*
X147806125Y-99391246D01*
X147865704Y-99587651D01*
X147959722Y-99763546D01*
X147973964Y-99831949D01*
X147959723Y-99880452D01*
X147865703Y-100056352D01*
X147806125Y-100252753D01*
X147786009Y-100457000D01*
X147806125Y-100661246D01*
X147865704Y-100857651D01*
X147959722Y-101033547D01*
X147973964Y-101101950D01*
X147959722Y-101150453D01*
X147865704Y-101326348D01*
X147806125Y-101522753D01*
X147786009Y-101727000D01*
X147806125Y-101931246D01*
X147865704Y-102127651D01*
X147959722Y-102303547D01*
X147973964Y-102371950D01*
X147959722Y-102420453D01*
X147865704Y-102596348D01*
X147806125Y-102792753D01*
X147786009Y-102996999D01*
X147806125Y-103201246D01*
X147865704Y-103397651D01*
X147959722Y-103573547D01*
X147973964Y-103641950D01*
X147959722Y-103690453D01*
X147865704Y-103866348D01*
X147806125Y-104062753D01*
X147786009Y-104266999D01*
X147806125Y-104471246D01*
X147865704Y-104667651D01*
X147962448Y-104848647D01*
X147962450Y-104848650D01*
X148092650Y-105007299D01*
X148251299Y-105137499D01*
X148251302Y-105137501D01*
X148432298Y-105234245D01*
X148432300Y-105234245D01*
X148432303Y-105234247D01*
X148628702Y-105293824D01*
X148628701Y-105293824D01*
X148648817Y-105295805D01*
X148832950Y-105313941D01*
X149037198Y-105293824D01*
X149233597Y-105234247D01*
X149259629Y-105220333D01*
X149418513Y-105135408D01*
X149486916Y-105121166D01*
X149535420Y-105135408D01*
X149705568Y-105226355D01*
X149900371Y-105285447D01*
X149900367Y-105285447D01*
X150102950Y-105305399D01*
X150305530Y-105285447D01*
X150500330Y-105226355D01*
X150636153Y-105153756D01*
X150117697Y-104635300D01*
X150133471Y-104635300D01*
X150224191Y-104620162D01*
X150332293Y-104561660D01*
X150415542Y-104471227D01*
X150464917Y-104358663D01*
X150471287Y-104281784D01*
X150989706Y-104800203D01*
X151062305Y-104664380D01*
X151121397Y-104469580D01*
X151141349Y-104267000D01*
X151121397Y-104064419D01*
X151062305Y-103869619D01*
X150989705Y-103733795D01*
X150473959Y-104249542D01*
X150475068Y-104236165D01*
X150444893Y-104117010D01*
X150377664Y-104014108D01*
X150280665Y-103938611D01*
X150164408Y-103898700D01*
X150117697Y-103898700D01*
X150384397Y-103631999D01*
X150117697Y-103365300D01*
X150133471Y-103365300D01*
X150224191Y-103350162D01*
X150332293Y-103291660D01*
X150415542Y-103201227D01*
X150464917Y-103088663D01*
X150471287Y-103011783D01*
X150989705Y-103530202D01*
X151062305Y-103394380D01*
X151121397Y-103199580D01*
X151141349Y-102996999D01*
X151121397Y-102794419D01*
X151062305Y-102599619D01*
X150989705Y-102463795D01*
X150473959Y-102979541D01*
X150475068Y-102966165D01*
X150444893Y-102847010D01*
X150377664Y-102744108D01*
X150280665Y-102668611D01*
X150164408Y-102628700D01*
X150117695Y-102628700D01*
X150384397Y-102361998D01*
X150117697Y-102095300D01*
X150133471Y-102095300D01*
X150224191Y-102080162D01*
X150332293Y-102021660D01*
X150415542Y-101931227D01*
X150464917Y-101818663D01*
X150471287Y-101741784D01*
X150989705Y-102260202D01*
X151062305Y-102124380D01*
X151121397Y-101929580D01*
X151141349Y-101727000D01*
X151121397Y-101524419D01*
X151062305Y-101329619D01*
X150989705Y-101193795D01*
X150473959Y-101709542D01*
X150475068Y-101696165D01*
X150444893Y-101577010D01*
X150377664Y-101474108D01*
X150280665Y-101398611D01*
X150164408Y-101358700D01*
X150117697Y-101358700D01*
X150384397Y-101092000D01*
X150117697Y-100825300D01*
X150133471Y-100825300D01*
X150224191Y-100810162D01*
X150332293Y-100751660D01*
X150415542Y-100661227D01*
X150464917Y-100548663D01*
X150471287Y-100471784D01*
X150989705Y-100990202D01*
X151062305Y-100854380D01*
X151121397Y-100659580D01*
X151141349Y-100457000D01*
X151121397Y-100254419D01*
X151062305Y-100059619D01*
X150989705Y-99923795D01*
X150473959Y-100439542D01*
X150475068Y-100426165D01*
X150444893Y-100307010D01*
X150377664Y-100204108D01*
X150280665Y-100128611D01*
X150164408Y-100088700D01*
X150117697Y-100088700D01*
X150384397Y-99822000D01*
X150384397Y-99821999D01*
X150117697Y-99555300D01*
X150133471Y-99555300D01*
X150224191Y-99540162D01*
X150332293Y-99481660D01*
X150415542Y-99391227D01*
X150464917Y-99278663D01*
X150471287Y-99201784D01*
X150989705Y-99720202D01*
X151062305Y-99584380D01*
X151121397Y-99389580D01*
X151141349Y-99186999D01*
X151121397Y-98984419D01*
X151062305Y-98789619D01*
X150989705Y-98653795D01*
X150473959Y-99169542D01*
X150475068Y-99156165D01*
X150444893Y-99037010D01*
X150377664Y-98934108D01*
X150280665Y-98858611D01*
X150164408Y-98818700D01*
X150117697Y-98818700D01*
X150384397Y-98552000D01*
X150117697Y-98285300D01*
X150133471Y-98285300D01*
X150224191Y-98270162D01*
X150332293Y-98211660D01*
X150415542Y-98121227D01*
X150464917Y-98008663D01*
X150471287Y-97931784D01*
X150989705Y-98450202D01*
X151062305Y-98314380D01*
X151121397Y-98119580D01*
X151141349Y-97916999D01*
X151121397Y-97714419D01*
X151062305Y-97519618D01*
X150971358Y-97349470D01*
X150957116Y-97281067D01*
X150971358Y-97232563D01*
X151070195Y-97047651D01*
X151070195Y-97047650D01*
X151070197Y-97047647D01*
X151129774Y-96851248D01*
X151149891Y-96647000D01*
X151129774Y-96442752D01*
X151070197Y-96246353D01*
X151070195Y-96246350D01*
X151070195Y-96246348D01*
X150971358Y-96061436D01*
X150957116Y-95993033D01*
X150971358Y-95944529D01*
X151062305Y-95774381D01*
X151121397Y-95579580D01*
X151141349Y-95377000D01*
X151121397Y-95174419D01*
X151062305Y-94979619D01*
X150989705Y-94843795D01*
X150473959Y-95359541D01*
X150475068Y-95346165D01*
X150444893Y-95227010D01*
X150377664Y-95124108D01*
X150280665Y-95048611D01*
X150164408Y-95008700D01*
X150117697Y-95008700D01*
X150384397Y-94742000D01*
X150117697Y-94475300D01*
X150133471Y-94475300D01*
X150224191Y-94460162D01*
X150332293Y-94401660D01*
X150415542Y-94311227D01*
X150464917Y-94198663D01*
X150471287Y-94121784D01*
X150989705Y-94640202D01*
X151062305Y-94504380D01*
X151121397Y-94309580D01*
X151141349Y-94106999D01*
X151121397Y-93904419D01*
X151062305Y-93709618D01*
X150971358Y-93539470D01*
X150957116Y-93471067D01*
X150971358Y-93422563D01*
X151070195Y-93237651D01*
X151070195Y-93237650D01*
X151070197Y-93237647D01*
X151129774Y-93041248D01*
X151149891Y-92837000D01*
X151129774Y-92632752D01*
X151070197Y-92436353D01*
X151070195Y-92436350D01*
X151070195Y-92436348D01*
X150973451Y-92255352D01*
X150973449Y-92255349D01*
X150843249Y-92096700D01*
X150684600Y-91966500D01*
X150684597Y-91966498D01*
X150503601Y-91869754D01*
X150446198Y-91852341D01*
X150307198Y-91810176D01*
X150307195Y-91810175D01*
X150307198Y-91810175D01*
X150102950Y-91790059D01*
X149898703Y-91810175D01*
X149702298Y-91869754D01*
X149526403Y-91963772D01*
X149458000Y-91978014D01*
X149409497Y-91963772D01*
X149233601Y-91869754D01*
X149176198Y-91852341D01*
X149037198Y-91810176D01*
X149037195Y-91810175D01*
X149037198Y-91810175D01*
X148832950Y-91790059D01*
X148628703Y-91810175D01*
X148432298Y-91869754D01*
X148251302Y-91966498D01*
X148251299Y-91966500D01*
X148092651Y-92096700D01*
X148088348Y-92101004D01*
X148086465Y-92099121D01*
X148038271Y-92131982D01*
X148000111Y-92138000D01*
X147614295Y-92138000D01*
X147547256Y-92118315D01*
X147541410Y-92114318D01*
X147500434Y-92084547D01*
X147500431Y-92084545D01*
X147500430Y-92084545D01*
X147456227Y-92064864D01*
X147334498Y-92010666D01*
X147334492Y-92010664D01*
X147194584Y-91980926D01*
X147156821Y-91972900D01*
X146975179Y-91972900D01*
X146944034Y-91979519D01*
X146797507Y-92010664D01*
X146797501Y-92010666D01*
X146631570Y-92084545D01*
X146631565Y-92084547D01*
X146484620Y-92191309D01*
X146484613Y-92191315D01*
X146363076Y-92326298D01*
X146272258Y-92483599D01*
X146272257Y-92483601D01*
X146216128Y-92656349D01*
X146216127Y-92656351D01*
X146197140Y-92836999D01*
X146216127Y-93017648D01*
X146216128Y-93017650D01*
X146272257Y-93190398D01*
X146272258Y-93190400D01*
X146342918Y-93312787D01*
X146363077Y-93347703D01*
X146405414Y-93394723D01*
X146484613Y-93482684D01*
X146484620Y-93482690D01*
X146631565Y-93589452D01*
X146631566Y-93589452D01*
X146631570Y-93589455D01*
X146730848Y-93633656D01*
X146797501Y-93663333D01*
X146797507Y-93663335D01*
X146975179Y-93701100D01*
X146975180Y-93701100D01*
X147156819Y-93701100D01*
X147156821Y-93701100D01*
X147334493Y-93663335D01*
X147334495Y-93663333D01*
X147334498Y-93663333D01*
X147367370Y-93648697D01*
X147500430Y-93589455D01*
X147506816Y-93584814D01*
X147541410Y-93559682D01*
X147607216Y-93536202D01*
X147614295Y-93536000D01*
X147750686Y-93536000D01*
X147817725Y-93555685D01*
X147863480Y-93608489D01*
X147873424Y-93677647D01*
X147867174Y-93700432D01*
X147867472Y-93700523D01*
X147865704Y-93706351D01*
X147865703Y-93706353D01*
X147864713Y-93709618D01*
X147806125Y-93902753D01*
X147786009Y-94106999D01*
X147806125Y-94311246D01*
X147865704Y-94507651D01*
X147959722Y-94683547D01*
X147973964Y-94751950D01*
X147959722Y-94800453D01*
X147865704Y-94976348D01*
X147806125Y-95172753D01*
X147786009Y-95376999D01*
X147806125Y-95581246D01*
X147865704Y-95777651D01*
X147959722Y-95953547D01*
X147973964Y-96021950D01*
X147959722Y-96070453D01*
X147865704Y-96246348D01*
X147806125Y-96442753D01*
X147786009Y-96646999D01*
X147806125Y-96851246D01*
X147830320Y-96931005D01*
X147830943Y-97000872D01*
X147793695Y-97059985D01*
X147730400Y-97089576D01*
X147711659Y-97091000D01*
X144079000Y-97091000D01*
X144011961Y-97071315D01*
X143966206Y-97018511D01*
X143955000Y-96967000D01*
X143955000Y-92478999D01*
X143955113Y-92475255D01*
X143958849Y-92413484D01*
X143947694Y-92352616D01*
X143947130Y-92348911D01*
X143939673Y-92287490D01*
X143936096Y-92278059D01*
X143930070Y-92256444D01*
X143928251Y-92246518D01*
X143902843Y-92190064D01*
X143901433Y-92186660D01*
X143879480Y-92128773D01*
X143873751Y-92120473D01*
X143862727Y-92100927D01*
X143858586Y-92091727D01*
X143858582Y-92091721D01*
X143820418Y-92043007D01*
X143818198Y-92039991D01*
X143783052Y-91989073D01*
X143783049Y-91989070D01*
X143783047Y-91989068D01*
X143736739Y-91948043D01*
X143734027Y-91945491D01*
X143264277Y-91475741D01*
X144335811Y-91475741D01*
X144400582Y-91521094D01*
X144400592Y-91521100D01*
X144600715Y-91614419D01*
X144600729Y-91614424D01*
X144814013Y-91671573D01*
X144814023Y-91671575D01*
X145033999Y-91690821D01*
X145034001Y-91690821D01*
X145253976Y-91671575D01*
X145253986Y-91671573D01*
X145467270Y-91614424D01*
X145467284Y-91614419D01*
X145667408Y-91521100D01*
X145667420Y-91521093D01*
X145732186Y-91475742D01*
X145732187Y-91475740D01*
X145034001Y-90777553D01*
X145034000Y-90777553D01*
X144335811Y-91475741D01*
X143264277Y-91475741D01*
X142212536Y-90424000D01*
X143767179Y-90424000D01*
X143786424Y-90643976D01*
X143786426Y-90643986D01*
X143843575Y-90857270D01*
X143843580Y-90857284D01*
X143936899Y-91057407D01*
X143936900Y-91057409D01*
X143982258Y-91122187D01*
X144680445Y-90424000D01*
X145387553Y-90424000D01*
X146085740Y-91122187D01*
X146085742Y-91122186D01*
X146131093Y-91057420D01*
X146131100Y-91057408D01*
X146224419Y-90857284D01*
X146224424Y-90857270D01*
X146281573Y-90643986D01*
X146281575Y-90643976D01*
X146300821Y-90424000D01*
X146300821Y-90423999D01*
X146281575Y-90204023D01*
X146281573Y-90204013D01*
X146224424Y-89990729D01*
X146224420Y-89990720D01*
X146131098Y-89790590D01*
X146085740Y-89725811D01*
X145387553Y-90423999D01*
X145387553Y-90424000D01*
X144680445Y-90424000D01*
X144680446Y-90423999D01*
X144680446Y-90423998D01*
X143982258Y-89725811D01*
X143982257Y-89725812D01*
X143936903Y-89790586D01*
X143843579Y-89990720D01*
X143843575Y-89990729D01*
X143786426Y-90204013D01*
X143786424Y-90204023D01*
X143767179Y-90423999D01*
X143767179Y-90424000D01*
X142212536Y-90424000D01*
X141220853Y-89432317D01*
X141188058Y-89372258D01*
X144335811Y-89372258D01*
X145034000Y-90070446D01*
X145034001Y-90070446D01*
X145732187Y-89372258D01*
X145667409Y-89326900D01*
X145667407Y-89326899D01*
X145467284Y-89233580D01*
X145467270Y-89233575D01*
X145253986Y-89176426D01*
X145253976Y-89176424D01*
X145034001Y-89157179D01*
X145033999Y-89157179D01*
X144814023Y-89176424D01*
X144814013Y-89176426D01*
X144600729Y-89233575D01*
X144600720Y-89233579D01*
X144400586Y-89326903D01*
X144335812Y-89372257D01*
X144335811Y-89372258D01*
X141188058Y-89372258D01*
X141187368Y-89370994D01*
X141185213Y-89357594D01*
X141184873Y-89354354D01*
X141128743Y-89181603D01*
X141037923Y-89024297D01*
X140947277Y-88923624D01*
X140916386Y-88889315D01*
X140916382Y-88889312D01*
X140916381Y-88889311D01*
X140806967Y-88809817D01*
X140764302Y-88754488D01*
X140758323Y-88684875D01*
X140790928Y-88623080D01*
X140806968Y-88609182D01*
X140916381Y-88529689D01*
X140933274Y-88510928D01*
X140942714Y-88500443D01*
X141037923Y-88394703D01*
X141128743Y-88237397D01*
X141184873Y-88064646D01*
X141203860Y-87884000D01*
X141184873Y-87703354D01*
X141128743Y-87530603D01*
X141037923Y-87373297D01*
X140990318Y-87320426D01*
X140916386Y-87238315D01*
X140916379Y-87238309D01*
X140769434Y-87131547D01*
X140769431Y-87131545D01*
X140769430Y-87131545D01*
X140725227Y-87111864D01*
X140603498Y-87057666D01*
X140603492Y-87057664D01*
X140463585Y-87027926D01*
X140425821Y-87019900D01*
X140244179Y-87019900D01*
X140213034Y-87026519D01*
X140066507Y-87057664D01*
X140066501Y-87057666D01*
X139900570Y-87131545D01*
X139900565Y-87131547D01*
X139753620Y-87238309D01*
X139753613Y-87238315D01*
X139632076Y-87373298D01*
X139541258Y-87530599D01*
X139541257Y-87530601D01*
X139485127Y-87703353D01*
X139485126Y-87703355D01*
X139484785Y-87706605D01*
X139484063Y-87708359D01*
X139483776Y-87709710D01*
X139483528Y-87709657D01*
X139458196Y-87771218D01*
X139449146Y-87781316D01*
X138713988Y-88516475D01*
X138711261Y-88519043D01*
X138664949Y-88560071D01*
X138664948Y-88560073D01*
X138629793Y-88611001D01*
X138627575Y-88614016D01*
X138589418Y-88662722D01*
X138589414Y-88662729D01*
X138585277Y-88671921D01*
X138574256Y-88691462D01*
X138568519Y-88699772D01*
X138546571Y-88757642D01*
X138545139Y-88761100D01*
X138519748Y-88817517D01*
X138517930Y-88827441D01*
X138511906Y-88849049D01*
X138508329Y-88858482D01*
X138508326Y-88858490D01*
X138500867Y-88919921D01*
X138500304Y-88923624D01*
X138489151Y-88984482D01*
X138489151Y-88984485D01*
X138492887Y-89046249D01*
X138493000Y-89049994D01*
X138493000Y-90274004D01*
X138492887Y-90277748D01*
X138489150Y-90339512D01*
X138489151Y-90339515D01*
X138500304Y-90400375D01*
X138500867Y-90404078D01*
X138508327Y-90465510D01*
X138511906Y-90474949D01*
X138517930Y-90496558D01*
X138519749Y-90506482D01*
X138519750Y-90506485D01*
X138545141Y-90562904D01*
X138546574Y-90566364D01*
X138568518Y-90624225D01*
X138568519Y-90624226D01*
X138574252Y-90632532D01*
X138585277Y-90652080D01*
X138589414Y-90661272D01*
X138627578Y-90709988D01*
X138629797Y-90713003D01*
X138664946Y-90763925D01*
X138664947Y-90763926D01*
X138664948Y-90763927D01*
X138711277Y-90804971D01*
X138713969Y-90807505D01*
X140255376Y-92348911D01*
X141758681Y-93852216D01*
X141792166Y-93913539D01*
X141795000Y-93939897D01*
X141795000Y-95969277D01*
X141778387Y-96031277D01*
X141700258Y-96166599D01*
X141700257Y-96166601D01*
X141644128Y-96339349D01*
X141644127Y-96339351D01*
X141625140Y-96520000D01*
X141644127Y-96700648D01*
X141644128Y-96700650D01*
X141700257Y-96873398D01*
X141700258Y-96873400D01*
X141778387Y-97008723D01*
X141795000Y-97070723D01*
X141795000Y-103843277D01*
X141778387Y-103905277D01*
X141700258Y-104040599D01*
X141700257Y-104040601D01*
X141644128Y-104213349D01*
X141644127Y-104213351D01*
X141625140Y-104393999D01*
X141644127Y-104574648D01*
X141644128Y-104574650D01*
X141700257Y-104747398D01*
X141700258Y-104747400D01*
X141730744Y-104800203D01*
X141791077Y-104904703D01*
X141833414Y-104951723D01*
X141912613Y-105039684D01*
X141912620Y-105039690D01*
X142059565Y-105146452D01*
X142059566Y-105146452D01*
X142059570Y-105146455D01*
X142158848Y-105190656D01*
X142225501Y-105220333D01*
X142225507Y-105220335D01*
X142403179Y-105258100D01*
X142403180Y-105258100D01*
X142479000Y-105258100D01*
X142546039Y-105277785D01*
X142591794Y-105330589D01*
X142603000Y-105382100D01*
X142603000Y-107309101D01*
X142583315Y-107376140D01*
X142566681Y-107396782D01*
X135590681Y-114372782D01*
X135529358Y-114406267D01*
X135459666Y-114401283D01*
X135403733Y-114359411D01*
X135379316Y-114293947D01*
X135379000Y-114285101D01*
X135379000Y-112548896D01*
X135398685Y-112481857D01*
X135415314Y-112461220D01*
X138654019Y-109222514D01*
X138656694Y-109219995D01*
X138703052Y-109178927D01*
X138738227Y-109127966D01*
X138740404Y-109125007D01*
X138778585Y-109076275D01*
X138782722Y-109067080D01*
X138793753Y-109047522D01*
X138799480Y-109039227D01*
X138821423Y-108981366D01*
X138822852Y-108977917D01*
X138848252Y-108921482D01*
X138850071Y-108911552D01*
X138856100Y-108889930D01*
X138856568Y-108888698D01*
X138859673Y-108880510D01*
X138867130Y-108819094D01*
X138867694Y-108815391D01*
X138868321Y-108811966D01*
X138878850Y-108754515D01*
X138876061Y-108708412D01*
X138875113Y-108692731D01*
X138875000Y-108688987D01*
X138875000Y-101134723D01*
X138891613Y-101072723D01*
X138969743Y-100937397D01*
X139025873Y-100764646D01*
X139044860Y-100584000D01*
X139025873Y-100403354D01*
X138969743Y-100230603D01*
X138891612Y-100095276D01*
X138875000Y-100033277D01*
X138875000Y-97324723D01*
X138891613Y-97262723D01*
X138899583Y-97248918D01*
X138969743Y-97127397D01*
X139025873Y-96954646D01*
X139044860Y-96774000D01*
X139025873Y-96593354D01*
X138969743Y-96420603D01*
X138952697Y-96391079D01*
X138914373Y-96324699D01*
X138878923Y-96263297D01*
X138815594Y-96192963D01*
X138757386Y-96128315D01*
X138757379Y-96128309D01*
X138610434Y-96021547D01*
X138610431Y-96021545D01*
X138610430Y-96021545D01*
X138566227Y-96001864D01*
X138444498Y-95947666D01*
X138444492Y-95947664D01*
X138304584Y-95917926D01*
X138266821Y-95909900D01*
X138085179Y-95909900D01*
X138054034Y-95916519D01*
X137907507Y-95947664D01*
X137907505Y-95947665D01*
X137779435Y-96004686D01*
X137710185Y-96013970D01*
X137646909Y-95984342D01*
X137609696Y-95925206D01*
X137605000Y-95891406D01*
X137605000Y-94784723D01*
X137621613Y-94722723D01*
X137629583Y-94708918D01*
X137699743Y-94587397D01*
X137755873Y-94414646D01*
X137774860Y-94234000D01*
X137755873Y-94053354D01*
X137699743Y-93880603D01*
X137698233Y-93877988D01*
X137640858Y-93778611D01*
X137608923Y-93723297D01*
X137545594Y-93652963D01*
X137487386Y-93588315D01*
X137487379Y-93588309D01*
X137340434Y-93481547D01*
X137340431Y-93481545D01*
X137340430Y-93481545D01*
X137296227Y-93461864D01*
X137174498Y-93407666D01*
X137174492Y-93407664D01*
X137034584Y-93377926D01*
X136996821Y-93369900D01*
X136815179Y-93369900D01*
X136784034Y-93376519D01*
X136637507Y-93407664D01*
X136637501Y-93407666D01*
X136471570Y-93481545D01*
X136471565Y-93481547D01*
X136324620Y-93588309D01*
X136324613Y-93588315D01*
X136203076Y-93723298D01*
X136112258Y-93880599D01*
X136112257Y-93880601D01*
X136056128Y-94053349D01*
X136056127Y-94053351D01*
X136037140Y-94233999D01*
X136056127Y-94414648D01*
X136056128Y-94414650D01*
X136112257Y-94587398D01*
X136112258Y-94587400D01*
X136190387Y-94722723D01*
X136207000Y-94784723D01*
X136207000Y-102573277D01*
X136190387Y-102635277D01*
X136112258Y-102770599D01*
X136112257Y-102770601D01*
X136056128Y-102943349D01*
X136056127Y-102943351D01*
X136037140Y-103123999D01*
X136056127Y-103304648D01*
X136056128Y-103304650D01*
X136112257Y-103477398D01*
X136112258Y-103477400D01*
X136190387Y-103612723D01*
X136207000Y-103674723D01*
X136207000Y-105958102D01*
X136187315Y-106025141D01*
X136170681Y-106045783D01*
X134921331Y-107295133D01*
X132951985Y-109264477D01*
X132949258Y-109267044D01*
X132902950Y-109308071D01*
X132902947Y-109308073D01*
X132867794Y-109359001D01*
X132865575Y-109362016D01*
X132827418Y-109410722D01*
X132827414Y-109410729D01*
X132823277Y-109419921D01*
X132812256Y-109439462D01*
X132806519Y-109447772D01*
X132784571Y-109505642D01*
X132783139Y-109509100D01*
X132757748Y-109565517D01*
X132755930Y-109575441D01*
X132749906Y-109597049D01*
X132746329Y-109606482D01*
X132746326Y-109606490D01*
X132738867Y-109667921D01*
X132738304Y-109671624D01*
X132727151Y-109732482D01*
X132727151Y-109732485D01*
X132730887Y-109794249D01*
X132731000Y-109797994D01*
X132731000Y-121120593D01*
X132711315Y-121187632D01*
X132658511Y-121233387D01*
X132589353Y-121243331D01*
X132571004Y-121239253D01*
X132429999Y-121196478D01*
X132430000Y-121953508D01*
X132428509Y-121968639D01*
X132428805Y-121968669D01*
X132428207Y-121974731D01*
X132428208Y-121974731D01*
X132413500Y-122124066D01*
X132413500Y-122574269D01*
X132363124Y-122498876D01*
X132279106Y-122442737D01*
X132205017Y-122428000D01*
X132154983Y-122428000D01*
X132080894Y-122442737D01*
X131996876Y-122498876D01*
X131940737Y-122582894D01*
X131921024Y-122682000D01*
X120404926Y-122682000D01*
X120420996Y-122658963D01*
X120539403Y-122432000D01*
X131172000Y-122432000D01*
X131930000Y-122432000D01*
X131930000Y-121196478D01*
X131792387Y-121238224D01*
X131617281Y-121331820D01*
X131617274Y-121331825D01*
X131463787Y-121457787D01*
X131337825Y-121611274D01*
X131337820Y-121611281D01*
X131244224Y-121786387D01*
X131186585Y-121976394D01*
X131186584Y-121976396D01*
X131172000Y-122124485D01*
X131172000Y-122432000D01*
X120539403Y-122432000D01*
X120563567Y-122385683D01*
X120670020Y-122096415D01*
X120738609Y-121795908D01*
X120768206Y-121489098D01*
X120758327Y-121181022D01*
X120709133Y-120876739D01*
X120621431Y-120581244D01*
X120621429Y-120581239D01*
X120621428Y-120581236D01*
X120496666Y-120299398D01*
X120496663Y-120299391D01*
X120336877Y-120035807D01*
X120336870Y-120035799D01*
X120336866Y-120035792D01*
X120144702Y-119794825D01*
X120144700Y-119794823D01*
X119923279Y-119580389D01*
X119923276Y-119580386D01*
X119794450Y-119484241D01*
X119676258Y-119396031D01*
X119676253Y-119396028D01*
X119407682Y-119244772D01*
X119370383Y-119229671D01*
X119121981Y-119129102D01*
X118954660Y-119085226D01*
X118823821Y-119050916D01*
X118518117Y-119011500D01*
X118287026Y-119011500D01*
X118287020Y-119011500D01*
X118056406Y-119026306D01*
X118056389Y-119026308D01*
X117753854Y-119085226D01*
X117753849Y-119085228D01*
X117461310Y-119182358D01*
X117461306Y-119182359D01*
X117183613Y-119316089D01*
X117183605Y-119316094D01*
X116925286Y-119484241D01*
X116925276Y-119484248D01*
X116690581Y-119684046D01*
X116690571Y-119684056D01*
X116483354Y-119912225D01*
X116483350Y-119912229D01*
X116307005Y-120165033D01*
X116307003Y-120165037D01*
X116164432Y-120438319D01*
X116164429Y-120438326D01*
X116057981Y-120727580D01*
X116057979Y-120727590D01*
X115989391Y-121028089D01*
X115959794Y-121334902D01*
X115959793Y-121334903D01*
X114300500Y-121334903D01*
X114300500Y-112059999D01*
X120320845Y-112059999D01*
X120340026Y-112279243D01*
X120340028Y-112279253D01*
X120396986Y-112491827D01*
X120396988Y-112491831D01*
X120396989Y-112491835D01*
X120399647Y-112497535D01*
X120490002Y-112691302D01*
X120490004Y-112691306D01*
X120616238Y-112871587D01*
X120771861Y-113027210D01*
X120952142Y-113153444D01*
X120952144Y-113153445D01*
X120952147Y-113153447D01*
X121151614Y-113246460D01*
X121364201Y-113303422D01*
X121539600Y-113318767D01*
X121583449Y-113322604D01*
X121583450Y-113322604D01*
X121583451Y-113322604D01*
X121619991Y-113319406D01*
X121802699Y-113303422D01*
X122015286Y-113246460D01*
X122214753Y-113153447D01*
X122395037Y-113027211D01*
X122550662Y-112871586D01*
X122676898Y-112691302D01*
X122741068Y-112553686D01*
X122787240Y-112501249D01*
X122854434Y-112482097D01*
X122921315Y-112502313D01*
X122965832Y-112553688D01*
X123030002Y-112691302D01*
X123030004Y-112691306D01*
X123156238Y-112871587D01*
X123311861Y-113027210D01*
X123492142Y-113153444D01*
X123492144Y-113153445D01*
X123492147Y-113153447D01*
X123691614Y-113246460D01*
X123904201Y-113303422D01*
X124079600Y-113318767D01*
X124123449Y-113322604D01*
X124123450Y-113322604D01*
X124123451Y-113322604D01*
X124159991Y-113319406D01*
X124342699Y-113303422D01*
X124555286Y-113246460D01*
X124754753Y-113153447D01*
X124935037Y-113027211D01*
X125090662Y-112871586D01*
X125216898Y-112691302D01*
X125309911Y-112491835D01*
X125366873Y-112279248D01*
X125386055Y-112059999D01*
X125366873Y-111840750D01*
X125309911Y-111628163D01*
X125216898Y-111428697D01*
X125090662Y-111248412D01*
X125090660Y-111248409D01*
X124935038Y-111092787D01*
X124754757Y-110966553D01*
X124754753Y-110966551D01*
X124754753Y-110966550D01*
X124617137Y-110902380D01*
X124564700Y-110856209D01*
X124545548Y-110789015D01*
X124565764Y-110722134D01*
X124617137Y-110677618D01*
X124754753Y-110613447D01*
X124935037Y-110487211D01*
X125090662Y-110331586D01*
X125216898Y-110151302D01*
X125309911Y-109951835D01*
X125366873Y-109739248D01*
X125386055Y-109519999D01*
X125385101Y-109509100D01*
X125367868Y-109312128D01*
X125366873Y-109300750D01*
X125309911Y-109088163D01*
X125216898Y-108888697D01*
X125090662Y-108708412D01*
X125090660Y-108708409D01*
X124935038Y-108552787D01*
X124754757Y-108426553D01*
X124754753Y-108426551D01*
X124745988Y-108422464D01*
X124617137Y-108362380D01*
X124564700Y-108316209D01*
X124545548Y-108249015D01*
X124565764Y-108182134D01*
X124617137Y-108137618D01*
X124754753Y-108073447D01*
X124935037Y-107947211D01*
X125090662Y-107791586D01*
X125216898Y-107611302D01*
X125309911Y-107411835D01*
X125366873Y-107199248D01*
X125386055Y-106979999D01*
X125366873Y-106760750D01*
X125309911Y-106548163D01*
X125216898Y-106348697D01*
X125090662Y-106168412D01*
X125090660Y-106168409D01*
X124935038Y-106012787D01*
X124754757Y-105886553D01*
X124754753Y-105886551D01*
X124754753Y-105886550D01*
X124617137Y-105822380D01*
X124564700Y-105776209D01*
X124545548Y-105709015D01*
X124565764Y-105642134D01*
X124617137Y-105597618D01*
X124754753Y-105533447D01*
X124935037Y-105407211D01*
X125090662Y-105251586D01*
X125216898Y-105071302D01*
X125309911Y-104871835D01*
X125366873Y-104659248D01*
X125386055Y-104439999D01*
X125366873Y-104220750D01*
X125309911Y-104008163D01*
X125216898Y-103808697D01*
X125090662Y-103628412D01*
X125090660Y-103628409D01*
X124935038Y-103472787D01*
X124754757Y-103346553D01*
X124754753Y-103346551D01*
X124709371Y-103325389D01*
X124617137Y-103282380D01*
X124564700Y-103236209D01*
X124545548Y-103169015D01*
X124565764Y-103102134D01*
X124617137Y-103057618D01*
X124754753Y-102993447D01*
X124935037Y-102867211D01*
X125090662Y-102711586D01*
X125216898Y-102531302D01*
X125309911Y-102331835D01*
X125366873Y-102119248D01*
X125386055Y-101899999D01*
X125366873Y-101680750D01*
X125309911Y-101468163D01*
X125216898Y-101268697D01*
X125090662Y-101088412D01*
X125090660Y-101088409D01*
X124935038Y-100932787D01*
X124754757Y-100806553D01*
X124754753Y-100806551D01*
X124709371Y-100785389D01*
X124617137Y-100742380D01*
X124564700Y-100696209D01*
X124545548Y-100629015D01*
X124565764Y-100562134D01*
X124617137Y-100517618D01*
X124754753Y-100453447D01*
X124935037Y-100327211D01*
X125090662Y-100171586D01*
X125216898Y-99991302D01*
X125309911Y-99791835D01*
X125366873Y-99579248D01*
X125386055Y-99359999D01*
X125366873Y-99140750D01*
X125309911Y-98928163D01*
X125216898Y-98728697D01*
X125090662Y-98548412D01*
X125090660Y-98548409D01*
X124935038Y-98392787D01*
X124754757Y-98266553D01*
X124754753Y-98266551D01*
X124709371Y-98245389D01*
X124617137Y-98202380D01*
X124564700Y-98156209D01*
X124545548Y-98089015D01*
X124565764Y-98022134D01*
X124617137Y-97977618D01*
X124754753Y-97913447D01*
X124935037Y-97787211D01*
X125090662Y-97631586D01*
X125216898Y-97451302D01*
X125309911Y-97251835D01*
X125366873Y-97039248D01*
X125386055Y-96819999D01*
X125366873Y-96600750D01*
X125309911Y-96388163D01*
X125216898Y-96188697D01*
X125090662Y-96008412D01*
X125090660Y-96008409D01*
X124935038Y-95852787D01*
X124754757Y-95726553D01*
X124754753Y-95726551D01*
X124654394Y-95679753D01*
X124617137Y-95662380D01*
X124564700Y-95616209D01*
X124545548Y-95549015D01*
X124565764Y-95482134D01*
X124617137Y-95437618D01*
X124754753Y-95373447D01*
X124935037Y-95247211D01*
X125090662Y-95091586D01*
X125216898Y-94911302D01*
X125309911Y-94711835D01*
X125366873Y-94499248D01*
X125386055Y-94279999D01*
X125366873Y-94060750D01*
X125309911Y-93848163D01*
X125216898Y-93648697D01*
X125122378Y-93513708D01*
X125090660Y-93468409D01*
X124935038Y-93312787D01*
X124754757Y-93186553D01*
X124754753Y-93186551D01*
X124754751Y-93186550D01*
X124617137Y-93122380D01*
X124564700Y-93076209D01*
X124545548Y-93009015D01*
X124565764Y-92942134D01*
X124617137Y-92897618D01*
X124754753Y-92833447D01*
X124935037Y-92707211D01*
X125090662Y-92551586D01*
X125216898Y-92371302D01*
X125309911Y-92171835D01*
X125366873Y-91959248D01*
X125386055Y-91739999D01*
X125366873Y-91520750D01*
X125309911Y-91308163D01*
X125216898Y-91108697D01*
X125090662Y-90928412D01*
X125090660Y-90928409D01*
X124935038Y-90772787D01*
X124754757Y-90646553D01*
X124754753Y-90646551D01*
X124706877Y-90624226D01*
X124617137Y-90582380D01*
X124564700Y-90536209D01*
X124545548Y-90469015D01*
X124565764Y-90402134D01*
X124617137Y-90357618D01*
X124754753Y-90293447D01*
X124935037Y-90167211D01*
X125090662Y-90011586D01*
X125216898Y-89831302D01*
X125309911Y-89631835D01*
X125366873Y-89419248D01*
X125386055Y-89199999D01*
X125366873Y-88980750D01*
X125309911Y-88768163D01*
X125216898Y-88568697D01*
X125090662Y-88388412D01*
X125090660Y-88388409D01*
X124935038Y-88232787D01*
X124754757Y-88106553D01*
X124754753Y-88106551D01*
X124664896Y-88064650D01*
X124555286Y-88013538D01*
X124555282Y-88013537D01*
X124555278Y-88013535D01*
X124342704Y-87956577D01*
X124342694Y-87956575D01*
X124123451Y-87937394D01*
X124123449Y-87937394D01*
X123904205Y-87956575D01*
X123904195Y-87956577D01*
X123691621Y-88013535D01*
X123691612Y-88013539D01*
X123492149Y-88106550D01*
X123492147Y-88106551D01*
X123311860Y-88232788D01*
X123156239Y-88388409D01*
X123030002Y-88568696D01*
X123030001Y-88568698D01*
X122961142Y-88716366D01*
X122914969Y-88768805D01*
X122847776Y-88787957D01*
X122780894Y-88767741D01*
X122736378Y-88716366D01*
X122669505Y-88572959D01*
X122626072Y-88510929D01*
X122626071Y-88510928D01*
X122062739Y-89074260D01*
X122038623Y-88992128D01*
X121961622Y-88872311D01*
X121853983Y-88779042D01*
X121724427Y-88719875D01*
X121711832Y-88718064D01*
X122272519Y-88157376D01*
X122272518Y-88157375D01*
X122210489Y-88113943D01*
X122012369Y-88021558D01*
X122012360Y-88021554D01*
X121801221Y-87964980D01*
X121801211Y-87964978D01*
X121583452Y-87945927D01*
X121583448Y-87945927D01*
X121365688Y-87964978D01*
X121365678Y-87964980D01*
X121154539Y-88021554D01*
X121154530Y-88021558D01*
X120956414Y-88113941D01*
X120894380Y-88157376D01*
X121455068Y-88718064D01*
X121442473Y-88719875D01*
X121312917Y-88779042D01*
X121205278Y-88872311D01*
X121128277Y-88992128D01*
X121104159Y-89074261D01*
X120540827Y-88510929D01*
X120497392Y-88572963D01*
X120405009Y-88771079D01*
X120405005Y-88771088D01*
X120348431Y-88982227D01*
X120348429Y-88982237D01*
X120329378Y-89199997D01*
X120329378Y-89200000D01*
X120348429Y-89417760D01*
X120348431Y-89417770D01*
X120405005Y-89628909D01*
X120405009Y-89628918D01*
X120497394Y-89827038D01*
X120540826Y-89889067D01*
X120540827Y-89889068D01*
X121104159Y-89325735D01*
X121128277Y-89407870D01*
X121205278Y-89527687D01*
X121312917Y-89620956D01*
X121442473Y-89680123D01*
X121455067Y-89681933D01*
X120894379Y-90242620D01*
X120894380Y-90242621D01*
X120956410Y-90286054D01*
X121109875Y-90357617D01*
X121162314Y-90403789D01*
X121181466Y-90470983D01*
X121161250Y-90537864D01*
X121109875Y-90582381D01*
X120956414Y-90653941D01*
X120894380Y-90697376D01*
X121455068Y-91258064D01*
X121442473Y-91259875D01*
X121312917Y-91319042D01*
X121205278Y-91412311D01*
X121128277Y-91532128D01*
X121104159Y-91614262D01*
X120540827Y-91050929D01*
X120497392Y-91112963D01*
X120405009Y-91311079D01*
X120405005Y-91311088D01*
X120348431Y-91522227D01*
X120348429Y-91522237D01*
X120329378Y-91739997D01*
X120329378Y-91740000D01*
X120348429Y-91957760D01*
X120348431Y-91957770D01*
X120405005Y-92168909D01*
X120405009Y-92168918D01*
X120497394Y-92367038D01*
X120540826Y-92429067D01*
X120540827Y-92429068D01*
X121104159Y-91865735D01*
X121128277Y-91947870D01*
X121205278Y-92067687D01*
X121312917Y-92160956D01*
X121442473Y-92220123D01*
X121455067Y-92221933D01*
X120894379Y-92782620D01*
X120894380Y-92782621D01*
X120956410Y-92826054D01*
X121109875Y-92897617D01*
X121162314Y-92943789D01*
X121181466Y-93010983D01*
X121161250Y-93077864D01*
X121109875Y-93122381D01*
X120956414Y-93193941D01*
X120894380Y-93237376D01*
X121455068Y-93798064D01*
X121442473Y-93799875D01*
X121312917Y-93859042D01*
X121205278Y-93952311D01*
X121128277Y-94072128D01*
X121104159Y-94154262D01*
X120540827Y-93590929D01*
X120497392Y-93652963D01*
X120405009Y-93851079D01*
X120405005Y-93851088D01*
X120348431Y-94062227D01*
X120348429Y-94062237D01*
X120329378Y-94279997D01*
X120329378Y-94280000D01*
X120348429Y-94497760D01*
X120348431Y-94497770D01*
X120405005Y-94708909D01*
X120405009Y-94708918D01*
X120497394Y-94907038D01*
X120540826Y-94969067D01*
X120540827Y-94969068D01*
X121104159Y-94405735D01*
X121128277Y-94487870D01*
X121205278Y-94607687D01*
X121312917Y-94700956D01*
X121442473Y-94760123D01*
X121455067Y-94761933D01*
X120894379Y-95322620D01*
X120894380Y-95322621D01*
X120956410Y-95366054D01*
X121109875Y-95437617D01*
X121162314Y-95483789D01*
X121181466Y-95550983D01*
X121161250Y-95617864D01*
X121109875Y-95662381D01*
X120956414Y-95733941D01*
X120894380Y-95777376D01*
X121455068Y-96338064D01*
X121442473Y-96339875D01*
X121312917Y-96399042D01*
X121205278Y-96492311D01*
X121128277Y-96612128D01*
X121104159Y-96694261D01*
X120540827Y-96130929D01*
X120497392Y-96192963D01*
X120405009Y-96391079D01*
X120405005Y-96391088D01*
X120348431Y-96602227D01*
X120348429Y-96602237D01*
X120329378Y-96819997D01*
X120329378Y-96820000D01*
X120348429Y-97037760D01*
X120348431Y-97037770D01*
X120405005Y-97248909D01*
X120405009Y-97248918D01*
X120497394Y-97447038D01*
X120540826Y-97509067D01*
X120540827Y-97509068D01*
X121104159Y-96945735D01*
X121128277Y-97027870D01*
X121205278Y-97147687D01*
X121312917Y-97240956D01*
X121442473Y-97300123D01*
X121455067Y-97301933D01*
X120894379Y-97862620D01*
X120894380Y-97862621D01*
X120956410Y-97906054D01*
X121109875Y-97977617D01*
X121162314Y-98023789D01*
X121181466Y-98090983D01*
X121161250Y-98157864D01*
X121109875Y-98202381D01*
X120956414Y-98273941D01*
X120894380Y-98317376D01*
X121455068Y-98878064D01*
X121442473Y-98879875D01*
X121312917Y-98939042D01*
X121205278Y-99032311D01*
X121128277Y-99152128D01*
X121104159Y-99234262D01*
X120540827Y-98670929D01*
X120497392Y-98732963D01*
X120405009Y-98931079D01*
X120405005Y-98931088D01*
X120348431Y-99142227D01*
X120348429Y-99142237D01*
X120329378Y-99359997D01*
X120329378Y-99360000D01*
X120348429Y-99577760D01*
X120348431Y-99577770D01*
X120405005Y-99788909D01*
X120405009Y-99788918D01*
X120497394Y-99987038D01*
X120540826Y-100049067D01*
X120540827Y-100049068D01*
X121104159Y-99485735D01*
X121128277Y-99567870D01*
X121205278Y-99687687D01*
X121312917Y-99780956D01*
X121442473Y-99840123D01*
X121455067Y-99841933D01*
X120894379Y-100402620D01*
X120894380Y-100402621D01*
X120956410Y-100446054D01*
X121109875Y-100517617D01*
X121162314Y-100563789D01*
X121181466Y-100630983D01*
X121161250Y-100697864D01*
X121109875Y-100742381D01*
X120956414Y-100813941D01*
X120894380Y-100857376D01*
X121455068Y-101418064D01*
X121442473Y-101419875D01*
X121312917Y-101479042D01*
X121205278Y-101572311D01*
X121128277Y-101692128D01*
X121104159Y-101774262D01*
X120540827Y-101210929D01*
X120497392Y-101272963D01*
X120405009Y-101471079D01*
X120405005Y-101471088D01*
X120348431Y-101682227D01*
X120348429Y-101682237D01*
X120329378Y-101899997D01*
X120329378Y-101900000D01*
X120348429Y-102117760D01*
X120348431Y-102117770D01*
X120405005Y-102328909D01*
X120405009Y-102328918D01*
X120497394Y-102527038D01*
X120540826Y-102589067D01*
X120540827Y-102589068D01*
X121104159Y-102025735D01*
X121128277Y-102107870D01*
X121205278Y-102227687D01*
X121312917Y-102320956D01*
X121442473Y-102380123D01*
X121455067Y-102381933D01*
X120894379Y-102942620D01*
X120894380Y-102942621D01*
X120956410Y-102986054D01*
X121099817Y-103052927D01*
X121152256Y-103099099D01*
X121171408Y-103166293D01*
X121151192Y-103233174D01*
X121099817Y-103277691D01*
X120952149Y-103346550D01*
X120952147Y-103346551D01*
X120771860Y-103472788D01*
X120616239Y-103628409D01*
X120490002Y-103808696D01*
X120490001Y-103808698D01*
X120396990Y-104008161D01*
X120396986Y-104008170D01*
X120340028Y-104220744D01*
X120340026Y-104220754D01*
X120320845Y-104439998D01*
X120320845Y-104439999D01*
X120340026Y-104659243D01*
X120340028Y-104659253D01*
X120396986Y-104871827D01*
X120396988Y-104871831D01*
X120396989Y-104871835D01*
X120401379Y-104881249D01*
X120490002Y-105071302D01*
X120490004Y-105071306D01*
X120616238Y-105251587D01*
X120771861Y-105407210D01*
X120952142Y-105533444D01*
X120952144Y-105533445D01*
X120952147Y-105533447D01*
X121089760Y-105597617D01*
X121099816Y-105602306D01*
X121152256Y-105648478D01*
X121171408Y-105715671D01*
X121151192Y-105782553D01*
X121099818Y-105827070D01*
X120956412Y-105893942D01*
X120894380Y-105937376D01*
X121455068Y-106498064D01*
X121442473Y-106499875D01*
X121312917Y-106559042D01*
X121205278Y-106652311D01*
X121128277Y-106772128D01*
X121104159Y-106854262D01*
X120540827Y-106290929D01*
X120497392Y-106352963D01*
X120405009Y-106551079D01*
X120405005Y-106551088D01*
X120348431Y-106762227D01*
X120348429Y-106762237D01*
X120329378Y-106979997D01*
X120329378Y-106980000D01*
X120348429Y-107197760D01*
X120348431Y-107197770D01*
X120405005Y-107408909D01*
X120405009Y-107408918D01*
X120497394Y-107607038D01*
X120540826Y-107669067D01*
X120540827Y-107669068D01*
X121104159Y-107105735D01*
X121128277Y-107187870D01*
X121205278Y-107307687D01*
X121312917Y-107400956D01*
X121442473Y-107460123D01*
X121455067Y-107461933D01*
X120894379Y-108022620D01*
X120894380Y-108022621D01*
X120956410Y-108066054D01*
X121109875Y-108137617D01*
X121162314Y-108183789D01*
X121181466Y-108250983D01*
X121161250Y-108317864D01*
X121109875Y-108362381D01*
X120956414Y-108433941D01*
X120894380Y-108477376D01*
X121455068Y-109038064D01*
X121442473Y-109039875D01*
X121312917Y-109099042D01*
X121205278Y-109192311D01*
X121128277Y-109312128D01*
X121104159Y-109394261D01*
X120540827Y-108830929D01*
X120497392Y-108892963D01*
X120405009Y-109091079D01*
X120405005Y-109091088D01*
X120348431Y-109302227D01*
X120348429Y-109302237D01*
X120329378Y-109519997D01*
X120329378Y-109520000D01*
X120348429Y-109737760D01*
X120348431Y-109737770D01*
X120405005Y-109948909D01*
X120405009Y-109948918D01*
X120497394Y-110147038D01*
X120540826Y-110209067D01*
X120540827Y-110209068D01*
X121104159Y-109645735D01*
X121128277Y-109727870D01*
X121205278Y-109847687D01*
X121312917Y-109940956D01*
X121442473Y-110000123D01*
X121455067Y-110001933D01*
X120894379Y-110562620D01*
X120894380Y-110562621D01*
X120956410Y-110606054D01*
X121099817Y-110672927D01*
X121152256Y-110719099D01*
X121171408Y-110786293D01*
X121151192Y-110853174D01*
X121099817Y-110897691D01*
X120952149Y-110966550D01*
X120952147Y-110966551D01*
X120771860Y-111092788D01*
X120616239Y-111248409D01*
X120490002Y-111428696D01*
X120490001Y-111428698D01*
X120396990Y-111628161D01*
X120396986Y-111628170D01*
X120340028Y-111840744D01*
X120340026Y-111840754D01*
X120320845Y-112059998D01*
X120320845Y-112059999D01*
X114300500Y-112059999D01*
X114300500Y-100534749D01*
X114512234Y-79678903D01*
X116975793Y-79678903D01*
X116985672Y-79986970D01*
X116985672Y-79986975D01*
X116985673Y-79986978D01*
X117034867Y-80291261D01*
X117104396Y-80525528D01*
X117122571Y-80586763D01*
X117247333Y-80868601D01*
X117247337Y-80868609D01*
X117407123Y-81132193D01*
X117407127Y-81132198D01*
X117407133Y-81132207D01*
X117599297Y-81373174D01*
X117599299Y-81373176D01*
X117599303Y-81373180D01*
X117599304Y-81373181D01*
X117820724Y-81587614D01*
X117987862Y-81712352D01*
X118067741Y-81771968D01*
X118067743Y-81771969D01*
X118067747Y-81771972D01*
X118336318Y-81923228D01*
X118477057Y-81980207D01*
X118622018Y-82038897D01*
X118622023Y-82038898D01*
X118622025Y-82038899D01*
X118920179Y-82117084D01*
X119225883Y-82156500D01*
X119225890Y-82156500D01*
X119456980Y-82156500D01*
X119555814Y-82150154D01*
X119687601Y-82141693D01*
X119990151Y-82082772D01*
X120282683Y-81985644D01*
X120282689Y-81985640D01*
X120282693Y-81985640D01*
X120473571Y-81893717D01*
X120560393Y-81851907D01*
X120818720Y-81683754D01*
X121053424Y-81483948D01*
X121260650Y-81255769D01*
X121436996Y-81002963D01*
X121579567Y-80729683D01*
X121686020Y-80440415D01*
X121754609Y-80139908D01*
X121784206Y-79833098D01*
X121777533Y-79625000D01*
X131426000Y-79625000D01*
X131426000Y-79932514D01*
X131440584Y-80080603D01*
X131440585Y-80080605D01*
X131498224Y-80270612D01*
X131591820Y-80445718D01*
X131591825Y-80445725D01*
X131717787Y-80599212D01*
X131871274Y-80725174D01*
X131871281Y-80725179D01*
X132046384Y-80818774D01*
X132183999Y-80860519D01*
X132184000Y-80860519D01*
X132184000Y-79625000D01*
X131426000Y-79625000D01*
X121777533Y-79625000D01*
X121774327Y-79525022D01*
X121750073Y-79375000D01*
X132175024Y-79375000D01*
X132194737Y-79474106D01*
X132250876Y-79558124D01*
X132334894Y-79614263D01*
X132408983Y-79629000D01*
X132459017Y-79629000D01*
X132533106Y-79614263D01*
X132617124Y-79558124D01*
X132667499Y-79482732D01*
X132667499Y-79932930D01*
X132682805Y-80088332D01*
X132682509Y-80088361D01*
X132684000Y-80103492D01*
X132684000Y-80860519D01*
X132821613Y-80818774D01*
X132991831Y-80727790D01*
X133060234Y-80713548D01*
X133110323Y-80730967D01*
X133111158Y-80729407D01*
X133278353Y-80818774D01*
X133293120Y-80826667D01*
X133484731Y-80884792D01*
X133684000Y-80904418D01*
X133883269Y-80884792D01*
X134074880Y-80826667D01*
X134250550Y-80732769D01*
X134318949Y-80718528D01*
X134367448Y-80732768D01*
X134543120Y-80826667D01*
X134734731Y-80884792D01*
X134934000Y-80904418D01*
X135133269Y-80884792D01*
X135324880Y-80826667D01*
X135500550Y-80732769D01*
X135568949Y-80718528D01*
X135617448Y-80732768D01*
X135793120Y-80826667D01*
X135984731Y-80884792D01*
X136184000Y-80904418D01*
X136383269Y-80884792D01*
X136574880Y-80826667D01*
X136750550Y-80732769D01*
X136818949Y-80718528D01*
X136867448Y-80732768D01*
X137043120Y-80826667D01*
X137234731Y-80884792D01*
X137434000Y-80904418D01*
X137633269Y-80884792D01*
X137824880Y-80826667D01*
X138000550Y-80732769D01*
X138068949Y-80718528D01*
X138117448Y-80732768D01*
X138293120Y-80826667D01*
X138484731Y-80884792D01*
X138684000Y-80904418D01*
X138883269Y-80884792D01*
X139074880Y-80826667D01*
X139251469Y-80732278D01*
X139406252Y-80605252D01*
X139533278Y-80450469D01*
X139627667Y-80273880D01*
X139685792Y-80082269D01*
X139700500Y-79932934D01*
X139700500Y-79678903D01*
X148471793Y-79678903D01*
X148481672Y-79986970D01*
X148481672Y-79986975D01*
X148481673Y-79986978D01*
X148530867Y-80291261D01*
X148600396Y-80525528D01*
X148618571Y-80586763D01*
X148743333Y-80868601D01*
X148743337Y-80868609D01*
X148903123Y-81132193D01*
X148903127Y-81132198D01*
X148903133Y-81132207D01*
X149095297Y-81373174D01*
X149095299Y-81373176D01*
X149095303Y-81373180D01*
X149095304Y-81373181D01*
X149316724Y-81587614D01*
X149483862Y-81712352D01*
X149563741Y-81771968D01*
X149563743Y-81771969D01*
X149563747Y-81771972D01*
X149832318Y-81923228D01*
X149973057Y-81980207D01*
X150118018Y-82038897D01*
X150118023Y-82038898D01*
X150118025Y-82038899D01*
X150416179Y-82117084D01*
X150721883Y-82156500D01*
X150721890Y-82156500D01*
X150952980Y-82156500D01*
X151051814Y-82150154D01*
X151183601Y-82141693D01*
X151486151Y-82082772D01*
X151778683Y-81985644D01*
X151778689Y-81985640D01*
X151778693Y-81985640D01*
X151969571Y-81893717D01*
X152056393Y-81851907D01*
X152314720Y-81683754D01*
X152549424Y-81483948D01*
X152756650Y-81255769D01*
X152932996Y-81002963D01*
X153075567Y-80729683D01*
X153182020Y-80440415D01*
X153250609Y-80139908D01*
X153280206Y-79833098D01*
X153270327Y-79525022D01*
X153221133Y-79220739D01*
X153133431Y-78925244D01*
X153133429Y-78925239D01*
X153133428Y-78925236D01*
X153008666Y-78643398D01*
X153008663Y-78643391D01*
X152848877Y-78379807D01*
X152848870Y-78379799D01*
X152848866Y-78379792D01*
X152656702Y-78138825D01*
X152656700Y-78138823D01*
X152538982Y-78024820D01*
X152435276Y-77924386D01*
X152306450Y-77828241D01*
X152188258Y-77740031D01*
X152188253Y-77740028D01*
X151919682Y-77588772D01*
X151882383Y-77573671D01*
X151633981Y-77473102D01*
X151466660Y-77429226D01*
X151335821Y-77394916D01*
X151030117Y-77355500D01*
X150799026Y-77355500D01*
X150799020Y-77355500D01*
X150568406Y-77370306D01*
X150568389Y-77370308D01*
X150265854Y-77429226D01*
X150265849Y-77429228D01*
X149973310Y-77526358D01*
X149973306Y-77526359D01*
X149695613Y-77660089D01*
X149695605Y-77660094D01*
X149437286Y-77828241D01*
X149437276Y-77828248D01*
X149202581Y-78028046D01*
X149202571Y-78028056D01*
X148995354Y-78256225D01*
X148995350Y-78256229D01*
X148819005Y-78509033D01*
X148819003Y-78509037D01*
X148676432Y-78782319D01*
X148676429Y-78782326D01*
X148569981Y-79071580D01*
X148569979Y-79071590D01*
X148501391Y-79372089D01*
X148471794Y-79678902D01*
X148471793Y-79678903D01*
X139700500Y-79678903D01*
X139700500Y-78817066D01*
X139685792Y-78667731D01*
X139627667Y-78476120D01*
X139576187Y-78379807D01*
X139533281Y-78299536D01*
X139533280Y-78299534D01*
X139533278Y-78299531D01*
X139460434Y-78210770D01*
X139406252Y-78144747D01*
X139309000Y-78064936D01*
X139251469Y-78017722D01*
X139251465Y-78017720D01*
X139251463Y-78017718D01*
X139074881Y-77923333D01*
X138883271Y-77865208D01*
X138684000Y-77845582D01*
X138484728Y-77865208D01*
X138293118Y-77923333D01*
X138117452Y-78017228D01*
X138049049Y-78031470D01*
X138000546Y-78017228D01*
X137824881Y-77923333D01*
X137633271Y-77865208D01*
X137434000Y-77845582D01*
X137234728Y-77865208D01*
X137043118Y-77923333D01*
X136867452Y-78017228D01*
X136799049Y-78031470D01*
X136750546Y-78017228D01*
X136574881Y-77923333D01*
X136383271Y-77865208D01*
X136184000Y-77845582D01*
X135984728Y-77865208D01*
X135793118Y-77923333D01*
X135617453Y-78017228D01*
X135549050Y-78031470D01*
X135500547Y-78017228D01*
X135324881Y-77923333D01*
X135133271Y-77865208D01*
X134934000Y-77845582D01*
X134734728Y-77865208D01*
X134543118Y-77923333D01*
X134367453Y-78017228D01*
X134299050Y-78031470D01*
X134250547Y-78017228D01*
X134074881Y-77923333D01*
X133883271Y-77865208D01*
X133684000Y-77845582D01*
X133484728Y-77865208D01*
X133293118Y-77923333D01*
X133111159Y-78020593D01*
X133110185Y-78018771D01*
X133052489Y-78036831D01*
X132991834Y-78022209D01*
X132821612Y-77931224D01*
X132684000Y-77889478D01*
X132684000Y-78646508D01*
X132682509Y-78661639D01*
X132682805Y-78661669D01*
X132667499Y-78817069D01*
X132667499Y-79267267D01*
X132617124Y-79191876D01*
X132533106Y-79135737D01*
X132459017Y-79121000D01*
X132408983Y-79121000D01*
X132334894Y-79135737D01*
X132250876Y-79191876D01*
X132194737Y-79275894D01*
X132175024Y-79375000D01*
X121750073Y-79375000D01*
X121725133Y-79220739D01*
X121696718Y-79125000D01*
X131426000Y-79125000D01*
X132184000Y-79125000D01*
X132184000Y-77889478D01*
X132046387Y-77931224D01*
X131871281Y-78024820D01*
X131871274Y-78024825D01*
X131717787Y-78150787D01*
X131591825Y-78304274D01*
X131591820Y-78304281D01*
X131498224Y-78479387D01*
X131440585Y-78669394D01*
X131440584Y-78669396D01*
X131426000Y-78817485D01*
X131426000Y-79125000D01*
X121696718Y-79125000D01*
X121637431Y-78925244D01*
X121637429Y-78925239D01*
X121637428Y-78925236D01*
X121512666Y-78643398D01*
X121512663Y-78643391D01*
X121352877Y-78379807D01*
X121352870Y-78379799D01*
X121352866Y-78379792D01*
X121160702Y-78138825D01*
X121160700Y-78138823D01*
X121042982Y-78024820D01*
X120939276Y-77924386D01*
X120810450Y-77828241D01*
X120692258Y-77740031D01*
X120692253Y-77740028D01*
X120423682Y-77588772D01*
X120386383Y-77573671D01*
X120137981Y-77473102D01*
X119970660Y-77429226D01*
X119839821Y-77394916D01*
X119534117Y-77355500D01*
X119303026Y-77355500D01*
X119303020Y-77355500D01*
X119072406Y-77370306D01*
X119072389Y-77370308D01*
X118769854Y-77429226D01*
X118769849Y-77429228D01*
X118477310Y-77526358D01*
X118477306Y-77526359D01*
X118199613Y-77660089D01*
X118199605Y-77660094D01*
X117941286Y-77828241D01*
X117941276Y-77828248D01*
X117706581Y-78028046D01*
X117706571Y-78028056D01*
X117499354Y-78256225D01*
X117499350Y-78256229D01*
X117323005Y-78509033D01*
X117323003Y-78509037D01*
X117180432Y-78782319D01*
X117180429Y-78782326D01*
X117073981Y-79071580D01*
X117073979Y-79071590D01*
X117005391Y-79372089D01*
X116975794Y-79678902D01*
X116975793Y-79678903D01*
X114512234Y-79678903D01*
X114518400Y-79071590D01*
X114551460Y-75815241D01*
X114571825Y-75748405D01*
X114625090Y-75703189D01*
X114675454Y-75692500D01*
X154815500Y-75692500D01*
X154882539Y-75712185D01*
G37*
%TD.AperFunction*%
%TD*%
M02*
