M48
; DRILL file {KiCad 7.0.6} date Wed Aug  2 20:25:18 2023
; FORMAT={-:-/ absolute / inch / decimal}
; #@! TF.CreationDate,2023-08-02T20:25:18-07:00
; #@! TF.GenerationSoftware,Kicad,Pcbnew,7.0.6
; #@! TF.FileFunction,Plated,1,2,PTH
FMAT,2
INCH
; #@! TA.AperFunction,Plated,PTH,ViaDrill
T1C0.0190
; #@! TA.AperFunction,Plated,PTH,ComponentDrill
T2C0.0200
; #@! TA.AperFunction,Plated,PTH,ComponentDrill
T3C0.0290
; #@! TA.AperFunction,Plated,PTH,ComponentDrill
T4C0.0390
%
G90
G05
T1
X5.39Y-3.71
X5.39Y-4.06
X5.44Y-3.81
X5.44Y-3.96
X5.525Y-3.46
X5.525Y-3.525
X5.61Y-3.8
X5.61Y-4.11
X5.64Y-3.85
X5.6418Y-4.0118
X5.79Y-3.655
X5.985Y-3.755
X5.99Y-4.005
T2
X5.2039Y-4.83
X5.2139Y-3.125
X5.2531Y-4.83
X5.2631Y-3.125
X5.3024Y-4.83
X5.3124Y-3.125
X5.3516Y-4.83
X5.3616Y-3.125
X5.4008Y-4.83
X5.4108Y-3.125
X5.45Y-4.83
X5.46Y-3.125
T3
X5.8596Y-3.655
X5.8596Y-3.705
X5.8596Y-3.755
X5.8596Y-3.805
X5.8596Y-3.855
X5.8596Y-3.905
X5.8596Y-3.955
X5.8596Y-4.005
X5.8596Y-4.055
X5.8596Y-4.105
X5.9096Y-3.655
X5.9096Y-3.705
X5.9096Y-3.755
X5.9096Y-3.805
X5.9096Y-3.855
X5.9096Y-3.905
X5.9096Y-3.955
X5.9096Y-4.005
X5.9096Y-4.055
X5.9096Y-4.105
T4
X4.7867Y-3.5118
X4.7867Y-3.6118
X4.7867Y-3.7118
X4.7867Y-3.8118
X4.7867Y-3.9118
X4.7867Y-4.0118
X4.7867Y-4.1118
X4.7867Y-4.2118
X4.7867Y-4.3118
X4.7867Y-4.4118
X4.8868Y-3.5118
X4.8868Y-3.6118
X4.8868Y-3.7118
X4.8868Y-3.8118
X4.8868Y-3.9118
X4.8868Y-4.0118
X4.8868Y-4.1118
X4.8868Y-4.2118
X4.8868Y-4.3118
X4.8868Y-4.4118
T0
M30
