%TF.GenerationSoftware,KiCad,Pcbnew,7.0.6*%
%TF.CreationDate,2023-08-02T20:25:14-07:00*%
%TF.ProjectId,A0004-SWD-Adapter,41303030-342d-4535-9744-2d4164617074,rev?*%
%TF.SameCoordinates,Original*%
%TF.FileFunction,Copper,L1,Top*%
%TF.FilePolarity,Positive*%
%FSLAX46Y46*%
G04 Gerber Fmt 4.6, Leading zero omitted, Abs format (unit mm)*
G04 Created by KiCad (PCBNEW 7.0.6) date 2023-08-02 20:25:14*
%MOMM*%
%LPD*%
G01*
G04 APERTURE LIST*
%TA.AperFunction,ComponentPad*%
%ADD10C,1.498600*%
%TD*%
%TA.AperFunction,ComponentPad*%
%ADD11O,1.016000X2.032000*%
%TD*%
%TA.AperFunction,ComponentPad*%
%ADD12C,1.066800*%
%TD*%
%TA.AperFunction,SMDPad,CuDef*%
%ADD13C,1.524000*%
%TD*%
%TA.AperFunction,ViaPad*%
%ADD14C,0.711200*%
%TD*%
%TA.AperFunction,Conductor*%
%ADD15C,0.381000*%
%TD*%
%TA.AperFunction,Conductor*%
%ADD16C,0.250000*%
%TD*%
G04 APERTURE END LIST*
D10*
%TO.P,P1,1,1*%
%TO.N,MCU_VDD*%
X124123450Y-112059999D03*
%TO.P,P1,2,2*%
%TO.N,unconnected-(P1-Pad2)*%
X121583450Y-112059999D03*
%TO.P,P1,3,3*%
%TO.N,unconnected-(P1-Pad3)*%
X124123450Y-109519999D03*
%TO.P,P1,4,4*%
%TO.N,Earth*%
X121583450Y-109519999D03*
%TO.P,P1,5,5*%
%TO.N,unconnected-(P1-Pad5)*%
X124123450Y-106979999D03*
%TO.P,P1,6,6*%
%TO.N,Earth*%
X121583450Y-106979999D03*
%TO.P,P1,7,7*%
%TO.N,SWDIO*%
X124123450Y-104439999D03*
%TO.P,P1,8,8*%
%TO.N,unconnected-(P1-Pad8)*%
X121583450Y-104439999D03*
%TO.P,P1,9,9*%
%TO.N,SWCLK*%
X124123450Y-101899999D03*
%TO.P,P1,10,10*%
%TO.N,Earth*%
X121583450Y-101899999D03*
%TO.P,P1,11,11*%
%TO.N,unconnected-(P1-Pad11)*%
X124123450Y-99359999D03*
%TO.P,P1,12,12*%
%TO.N,Earth*%
X121583450Y-99359999D03*
%TO.P,P1,13,13*%
%TO.N,SWO*%
X124123450Y-96819999D03*
%TO.P,P1,14,14*%
%TO.N,Earth*%
X121583450Y-96819999D03*
%TO.P,P1,15,15*%
%TO.N,NRST*%
X124123450Y-94279999D03*
%TO.P,P1,16,16*%
%TO.N,Earth*%
X121583450Y-94279999D03*
%TO.P,P1,17,17*%
%TO.N,unconnected-(P1-Pad17)*%
X124123450Y-91739999D03*
%TO.P,P1,18,18*%
%TO.N,Earth*%
X121583450Y-91739999D03*
%TO.P,P1,19,19*%
%TO.N,unconnected-(P1-Pad19)*%
X124123450Y-89199999D03*
%TO.P,P1,20,20*%
%TO.N,Earth*%
X121583450Y-89199999D03*
%TD*%
D11*
%TO.P,P4,1,1*%
%TO.N,Earth*%
X132434000Y-79375000D03*
%TO.P,P4,2,2*%
%TO.N,NRST*%
X133684000Y-79375000D03*
%TO.P,P4,3,3*%
%TO.N,SWO*%
X134934000Y-79375000D03*
%TO.P,P4,4,4*%
%TO.N,SWCLK*%
X136184000Y-79375000D03*
%TO.P,P4,5,5*%
%TO.N,SWDIO*%
X137434000Y-79375000D03*
%TO.P,P4,6,6*%
%TO.N,MCU_VDD*%
X138684000Y-79375000D03*
%TD*%
%TO.P,P3,1,1*%
%TO.N,MCU_VDD*%
X138430000Y-122682000D03*
%TO.P,P3,2,2*%
%TO.N,SWDIO*%
X137180000Y-122682000D03*
%TO.P,P3,3,3*%
%TO.N,SWCLK*%
X135930000Y-122682000D03*
%TO.P,P3,4,4*%
%TO.N,SWO*%
X134680000Y-122682000D03*
%TO.P,P3,5,5*%
%TO.N,NRST*%
X133430000Y-122682000D03*
%TO.P,P3,6,6*%
%TO.N,Earth*%
X132180000Y-122682000D03*
%TD*%
D12*
%TO.P,P2,1,1*%
%TO.N,MCU_VDD*%
X148832950Y-92837000D03*
%TO.P,P2,2,2*%
%TO.N,unconnected-(P2-Pad2)*%
X150102950Y-92837000D03*
%TO.P,P2,3,3*%
%TO.N,unconnected-(P2-Pad3)*%
X148832950Y-94107000D03*
%TO.P,P2,4,4*%
%TO.N,Earth*%
X150102950Y-94107000D03*
%TO.P,P2,5,5*%
%TO.N,unconnected-(P2-Pad5)*%
X148832950Y-95377000D03*
%TO.P,P2,6,6*%
%TO.N,Earth*%
X150102950Y-95377000D03*
%TO.P,P2,7,7*%
%TO.N,SWDIO*%
X148832950Y-96647000D03*
%TO.P,P2,8,8*%
%TO.N,unconnected-(P2-Pad8)*%
X150102950Y-96647000D03*
%TO.P,P2,9,9*%
%TO.N,SWCLK*%
X148832950Y-97917000D03*
%TO.P,P2,10,10*%
%TO.N,Earth*%
X150102950Y-97917000D03*
%TO.P,P2,11,11*%
%TO.N,unconnected-(P2-Pad11)*%
X148832950Y-99187000D03*
%TO.P,P2,12,12*%
%TO.N,Earth*%
X150102950Y-99187000D03*
%TO.P,P2,13,13*%
%TO.N,SWO*%
X148832950Y-100457000D03*
%TO.P,P2,14,14*%
%TO.N,Earth*%
X150102950Y-100457000D03*
%TO.P,P2,15,15*%
%TO.N,NRST*%
X148832950Y-101727000D03*
%TO.P,P2,16,16*%
%TO.N,Earth*%
X150102950Y-101727000D03*
%TO.P,P2,17,17*%
%TO.N,unconnected-(P2-Pad17)*%
X148832950Y-102997000D03*
%TO.P,P2,18,18*%
%TO.N,Earth*%
X150102950Y-102997000D03*
%TO.P,P2,19,19*%
%TO.N,unconnected-(P2-Pad19)*%
X148832950Y-104267000D03*
%TO.P,P2,20,20*%
%TO.N,Earth*%
X150102950Y-104267000D03*
%TD*%
D13*
%TO.P,TP1,1*%
%TO.N,MCU_VDD*%
X130683000Y-89916000D03*
%TD*%
%TO.P,TP5,1*%
%TO.N,SWCLK*%
X145034000Y-97790000D03*
%TD*%
%TO.P,TP6,1*%
%TO.N,NRST*%
X134874000Y-103124000D03*
%TD*%
%TO.P,TP4,1*%
%TO.N,SWDIO*%
X140462000Y-97790000D03*
%TD*%
%TO.P,TP7,1*%
%TO.N,SWO*%
X138938000Y-94742000D03*
%TD*%
D14*
%TO.N,MCU_VDD*%
X147066000Y-92837000D03*
%TO.N,Earth*%
X152019000Y-95377000D03*
X152146000Y-101727000D03*
%TO.N,SWDIO*%
X140335000Y-87884000D03*
%TO.N,SWCLK*%
X140335000Y-89535000D03*
%TO.N,SWDIO*%
X142494000Y-96520000D03*
X142494000Y-104394000D03*
%TO.N,SWCLK*%
X143302000Y-101900000D03*
X143256000Y-97790000D03*
%TO.N,SWO*%
X138176000Y-100584000D03*
X138176000Y-96774000D03*
%TO.N,NRST*%
X136906000Y-94234000D03*
X136906000Y-103124000D03*
%TD*%
D15*
%TO.N,MCU_VDD*%
X138430000Y-122682000D02*
X138430000Y-124333000D01*
X138430000Y-124333000D02*
X137922000Y-124841000D01*
X137922000Y-124841000D02*
X130429000Y-124841000D01*
X124123450Y-118535450D02*
X124123450Y-112059999D01*
X130429000Y-124841000D02*
X124123450Y-118535450D01*
%TO.N,SWDIO*%
X137180000Y-122682000D02*
X137180000Y-112649000D01*
X142494000Y-104394000D02*
X142494000Y-107335000D01*
X142494000Y-107335000D02*
X137180000Y-112649000D01*
D16*
X137610000Y-85159000D02*
X140335000Y-87884000D01*
X137610000Y-79551000D02*
X137610000Y-85159000D01*
X137434000Y-79375000D02*
X137610000Y-79551000D01*
%TO.N,SWCLK*%
X137096500Y-86296500D02*
X140335000Y-89535000D01*
X137096500Y-84772500D02*
X137096500Y-86296500D01*
X136184000Y-83860000D02*
X137096500Y-84772500D01*
X136184000Y-79375000D02*
X136184000Y-83860000D01*
%TO.N,SWO*%
X134934000Y-79375000D02*
X134934000Y-83878604D01*
X134934000Y-83878604D02*
X136398000Y-85342604D01*
X136398000Y-85342604D02*
X136398000Y-90676604D01*
X136398000Y-90676604D02*
X138049000Y-92327604D01*
X138049000Y-92327604D02*
X138049000Y-93853000D01*
X138049000Y-93853000D02*
X138938000Y-94742000D01*
%TO.N,NRST*%
X133684000Y-79375000D02*
X133684000Y-83265000D01*
X133684000Y-83265000D02*
X135763000Y-85344000D01*
X135763000Y-85344000D02*
X135763000Y-90678000D01*
X136906000Y-91821000D02*
X136906000Y-94234000D01*
X135763000Y-90678000D02*
X136906000Y-91821000D01*
D15*
%TO.N,SWDIO*%
X140462000Y-97790000D02*
X141732000Y-96520000D01*
X142494000Y-96520000D02*
X148590000Y-96520000D01*
X141732000Y-96520000D02*
X142494000Y-96520000D01*
X124123450Y-104440000D02*
X142494000Y-104394000D01*
X148590000Y-96520000D02*
X148844000Y-96774000D01*
%TO.N,SWCLK*%
X124123450Y-101900000D02*
X143302000Y-101900000D01*
X145034000Y-97790000D02*
X143256000Y-97790000D01*
%TO.N,SWO*%
X138938000Y-96012000D02*
X138176000Y-96774000D01*
X138938000Y-94742000D02*
X138938000Y-96012000D01*
X138130000Y-96820000D02*
X138176000Y-96774000D01*
X138176000Y-100584000D02*
X148844000Y-100584000D01*
X124123450Y-96820000D02*
X138130000Y-96820000D01*
%TO.N,NRST*%
X148590000Y-101600000D02*
X148844000Y-101854000D01*
X144526000Y-103124000D02*
X146050000Y-101600000D01*
X136906000Y-103124000D02*
X144526000Y-103124000D01*
X146050000Y-101600000D02*
X148590000Y-101600000D01*
X136860000Y-94280000D02*
X136906000Y-94234000D01*
X134874000Y-103124000D02*
X136906000Y-103124000D01*
X124123450Y-94280000D02*
X136860000Y-94280000D01*
%TD*%
%TA.AperFunction,Conductor*%
%TO.N,MCU_VDD*%
G36*
X122921315Y-109962313D02*
G01*
X122965832Y-110013688D01*
X123030002Y-110151302D01*
X123030004Y-110151306D01*
X123156238Y-110331587D01*
X123311861Y-110487210D01*
X123492142Y-110613444D01*
X123492144Y-110613445D01*
X123492147Y-110613447D01*
X123691614Y-110706460D01*
X123691619Y-110706461D01*
X123691623Y-110706463D01*
X123756287Y-110723789D01*
X123795919Y-110734408D01*
X123855580Y-110770772D01*
X123886110Y-110833619D01*
X123877816Y-110902995D01*
X123833331Y-110956873D01*
X123808622Y-110969809D01*
X123617482Y-111043858D01*
X123617473Y-111043862D01*
X123468783Y-111135924D01*
X123468783Y-111135925D01*
X123934597Y-111601739D01*
X123852917Y-111639042D01*
X123745278Y-111732311D01*
X123668277Y-111852128D01*
X123663259Y-111869216D01*
X123200555Y-111406511D01*
X123158334Y-111462423D01*
X123158329Y-111462430D01*
X123064966Y-111649927D01*
X123064961Y-111649940D01*
X123038867Y-111741651D01*
X123001587Y-111800744D01*
X122938277Y-111830301D01*
X122869038Y-111820939D01*
X122815852Y-111775629D01*
X122799826Y-111739809D01*
X122769913Y-111628170D01*
X122769912Y-111628169D01*
X122769911Y-111628163D01*
X122676898Y-111428697D01*
X122550662Y-111248412D01*
X122550660Y-111248409D01*
X122395038Y-111092787D01*
X122214757Y-110966553D01*
X122214753Y-110966551D01*
X122193998Y-110956873D01*
X122077137Y-110902380D01*
X122024700Y-110856209D01*
X122005548Y-110789015D01*
X122025764Y-110722134D01*
X122077137Y-110677618D01*
X122214753Y-110613447D01*
X122395037Y-110487211D01*
X122550662Y-110331586D01*
X122676898Y-110151302D01*
X122741068Y-110013686D01*
X122787240Y-109961249D01*
X122854434Y-109942097D01*
X122921315Y-109962313D01*
G37*
%TD.AperFunction*%
%TA.AperFunction,Conductor*%
G36*
X154882539Y-75712185D02*
G01*
X154928294Y-75764989D01*
X154939500Y-75816500D01*
X154939500Y-125859500D01*
X154919815Y-125926539D01*
X154867011Y-125972294D01*
X154815500Y-125983500D01*
X144866500Y-125983500D01*
X114422968Y-125607652D01*
X114356177Y-125587141D01*
X114311077Y-125533776D01*
X114300500Y-125483665D01*
X114300500Y-121334903D01*
X115959793Y-121334903D01*
X115969672Y-121642970D01*
X115969672Y-121642975D01*
X115969673Y-121642978D01*
X116018867Y-121947261D01*
X116063137Y-122096419D01*
X116106571Y-122242763D01*
X116231333Y-122524601D01*
X116231337Y-122524609D01*
X116391123Y-122788193D01*
X116391127Y-122788198D01*
X116391133Y-122788207D01*
X116583297Y-123029174D01*
X116583299Y-123029176D01*
X116583303Y-123029180D01*
X116583304Y-123029181D01*
X116804724Y-123243614D01*
X116971862Y-123368352D01*
X117051741Y-123427968D01*
X117051743Y-123427969D01*
X117051747Y-123427972D01*
X117320318Y-123579228D01*
X117461057Y-123636207D01*
X117606018Y-123694897D01*
X117606023Y-123694898D01*
X117606025Y-123694899D01*
X117904179Y-123773084D01*
X118209883Y-123812500D01*
X118209890Y-123812500D01*
X118440980Y-123812500D01*
X118539814Y-123806154D01*
X118671601Y-123797693D01*
X118974151Y-123738772D01*
X119266683Y-123641644D01*
X119266689Y-123641640D01*
X119266693Y-123641640D01*
X119483619Y-123537174D01*
X119544393Y-123507907D01*
X119802720Y-123339754D01*
X120037424Y-123139948D01*
X120244650Y-122911769D01*
X120420996Y-122658963D01*
X120563567Y-122385683D01*
X120670020Y-122096415D01*
X120738609Y-121795908D01*
X120768206Y-121489098D01*
X120758327Y-121181022D01*
X120709133Y-120876739D01*
X120621431Y-120581244D01*
X120621429Y-120581239D01*
X120621428Y-120581236D01*
X120496666Y-120299398D01*
X120496663Y-120299391D01*
X120336877Y-120035807D01*
X120336870Y-120035799D01*
X120336866Y-120035792D01*
X120144702Y-119794825D01*
X120144700Y-119794823D01*
X119923279Y-119580389D01*
X119923276Y-119580386D01*
X119794450Y-119484241D01*
X119676258Y-119396031D01*
X119676253Y-119396028D01*
X119407682Y-119244772D01*
X119370383Y-119229671D01*
X119121981Y-119129102D01*
X118954660Y-119085226D01*
X118823821Y-119050916D01*
X118518117Y-119011500D01*
X118287026Y-119011500D01*
X118287020Y-119011500D01*
X118056406Y-119026306D01*
X118056389Y-119026308D01*
X117753854Y-119085226D01*
X117753849Y-119085228D01*
X117461310Y-119182358D01*
X117461306Y-119182359D01*
X117183613Y-119316089D01*
X117183605Y-119316094D01*
X116925286Y-119484241D01*
X116925276Y-119484248D01*
X116690581Y-119684046D01*
X116690571Y-119684056D01*
X116483354Y-119912225D01*
X116483350Y-119912229D01*
X116307005Y-120165033D01*
X116307003Y-120165037D01*
X116164432Y-120438319D01*
X116164429Y-120438326D01*
X116057981Y-120727580D01*
X116057979Y-120727590D01*
X115989391Y-121028089D01*
X115959794Y-121334902D01*
X115959793Y-121334903D01*
X114300500Y-121334903D01*
X114300500Y-112059999D01*
X120320845Y-112059999D01*
X120340026Y-112279243D01*
X120340028Y-112279253D01*
X120396986Y-112491827D01*
X120396988Y-112491831D01*
X120396989Y-112491835D01*
X120426583Y-112555299D01*
X120490002Y-112691302D01*
X120490004Y-112691306D01*
X120616238Y-112871587D01*
X120771861Y-113027210D01*
X120952142Y-113153444D01*
X120952144Y-113153445D01*
X120952147Y-113153447D01*
X121151614Y-113246460D01*
X121364201Y-113303422D01*
X121539600Y-113318767D01*
X121583449Y-113322604D01*
X121583450Y-113322604D01*
X121583451Y-113322604D01*
X121619991Y-113319406D01*
X121802699Y-113303422D01*
X122015286Y-113246460D01*
X122214753Y-113153447D01*
X122395037Y-113027211D01*
X122550662Y-112871586D01*
X122676898Y-112691302D01*
X122769911Y-112491835D01*
X122799826Y-112380186D01*
X122836190Y-112320528D01*
X122899037Y-112289998D01*
X122968413Y-112298292D01*
X123022291Y-112342777D01*
X123038867Y-112378346D01*
X123064961Y-112470057D01*
X123064966Y-112470070D01*
X123158333Y-112657574D01*
X123200555Y-112713485D01*
X123663259Y-112250780D01*
X123668277Y-112267870D01*
X123745278Y-112387687D01*
X123852917Y-112480956D01*
X123934597Y-112518258D01*
X123468783Y-112984071D01*
X123468784Y-112984072D01*
X123617470Y-113076133D01*
X123617476Y-113076137D01*
X123812804Y-113151807D01*
X124018714Y-113190299D01*
X124228186Y-113190299D01*
X124434100Y-113151806D01*
X124629422Y-113076137D01*
X124629429Y-113076134D01*
X124778114Y-112984072D01*
X124778115Y-112984071D01*
X124312302Y-112518258D01*
X124393983Y-112480956D01*
X124501622Y-112387687D01*
X124578623Y-112267870D01*
X124583640Y-112250781D01*
X125046343Y-112713484D01*
X125088565Y-112657576D01*
X125088570Y-112657568D01*
X125181933Y-112470070D01*
X125181939Y-112470055D01*
X125239263Y-112268582D01*
X125239264Y-112268580D01*
X125258592Y-112059999D01*
X125258592Y-112059998D01*
X125239264Y-111851417D01*
X125239263Y-111851415D01*
X125181939Y-111649942D01*
X125181933Y-111649927D01*
X125088570Y-111462429D01*
X125088565Y-111462421D01*
X125046343Y-111406511D01*
X124583640Y-111869214D01*
X124578623Y-111852128D01*
X124501622Y-111732311D01*
X124393983Y-111639042D01*
X124312302Y-111601739D01*
X124778115Y-111135925D01*
X124778114Y-111135924D01*
X124629429Y-111043864D01*
X124629414Y-111043856D01*
X124438278Y-110969809D01*
X124382876Y-110927236D01*
X124359286Y-110861470D01*
X124374997Y-110793389D01*
X124425021Y-110744610D01*
X124450976Y-110734409D01*
X124512213Y-110718001D01*
X124555276Y-110706463D01*
X124555277Y-110706462D01*
X124555286Y-110706460D01*
X124754753Y-110613447D01*
X124935037Y-110487211D01*
X125090662Y-110331586D01*
X125216898Y-110151302D01*
X125309911Y-109951835D01*
X125366873Y-109739248D01*
X125386055Y-109519999D01*
X125366873Y-109300750D01*
X125309911Y-109088163D01*
X125216898Y-108888697D01*
X125090662Y-108708412D01*
X125090660Y-108708409D01*
X124935038Y-108552787D01*
X124754757Y-108426553D01*
X124754753Y-108426551D01*
X124754753Y-108426550D01*
X124617137Y-108362380D01*
X124564700Y-108316209D01*
X124545548Y-108249015D01*
X124565764Y-108182134D01*
X124617137Y-108137618D01*
X124754753Y-108073447D01*
X124935037Y-107947211D01*
X125090662Y-107791586D01*
X125216898Y-107611302D01*
X125309911Y-107411835D01*
X125366873Y-107199248D01*
X125386055Y-106979999D01*
X125366873Y-106760750D01*
X125309911Y-106548163D01*
X125216898Y-106348697D01*
X125090662Y-106168412D01*
X125090660Y-106168409D01*
X124935038Y-106012787D01*
X124754757Y-105886553D01*
X124754753Y-105886551D01*
X124754753Y-105886550D01*
X124617137Y-105822380D01*
X124564700Y-105776209D01*
X124545548Y-105709015D01*
X124565764Y-105642134D01*
X124617137Y-105597618D01*
X124754753Y-105533447D01*
X124935037Y-105407211D01*
X125090662Y-105251586D01*
X125134420Y-105189091D01*
X125188992Y-105145469D01*
X125235678Y-105136216D01*
X141670690Y-105095063D01*
X141737778Y-105114580D01*
X141783665Y-105167269D01*
X141795000Y-105219063D01*
X141795000Y-106994101D01*
X141775315Y-107061140D01*
X141758681Y-107081782D01*
X136701985Y-112138477D01*
X136699258Y-112141044D01*
X136652950Y-112182071D01*
X136652947Y-112182073D01*
X136617794Y-112233001D01*
X136615575Y-112236016D01*
X136577418Y-112284722D01*
X136577414Y-112284729D01*
X136573277Y-112293921D01*
X136562256Y-112313462D01*
X136556519Y-112321772D01*
X136534571Y-112379642D01*
X136533139Y-112383100D01*
X136507748Y-112439517D01*
X136505930Y-112449441D01*
X136499906Y-112471049D01*
X136496329Y-112480482D01*
X136496326Y-112480490D01*
X136488867Y-112541921D01*
X136488304Y-112545624D01*
X136477151Y-112606482D01*
X136477151Y-112606485D01*
X136480887Y-112668249D01*
X136481000Y-112671994D01*
X136481000Y-121111710D01*
X136461315Y-121178749D01*
X136408511Y-121224504D01*
X136339353Y-121234448D01*
X136321005Y-121230371D01*
X136301664Y-121224504D01*
X136288133Y-121220399D01*
X136129267Y-121172207D01*
X135930000Y-121152582D01*
X135730728Y-121172208D01*
X135539118Y-121230333D01*
X135363453Y-121324228D01*
X135295050Y-121338470D01*
X135246547Y-121324228D01*
X135070881Y-121230333D01*
X134879271Y-121172208D01*
X134680000Y-121152582D01*
X134480728Y-121172208D01*
X134289118Y-121230333D01*
X134113453Y-121324228D01*
X134045050Y-121338470D01*
X133996547Y-121324228D01*
X133820881Y-121230333D01*
X133629271Y-121172208D01*
X133430000Y-121152582D01*
X133230728Y-121172208D01*
X133039118Y-121230333D01*
X132863452Y-121324228D01*
X132795049Y-121338470D01*
X132746546Y-121324228D01*
X132570881Y-121230333D01*
X132379271Y-121172208D01*
X132180000Y-121152582D01*
X131980728Y-121172208D01*
X131789118Y-121230333D01*
X131612536Y-121324718D01*
X131457747Y-121451747D01*
X131330718Y-121606536D01*
X131236333Y-121783118D01*
X131178208Y-121974728D01*
X131178208Y-121974731D01*
X131163500Y-122124066D01*
X131163500Y-123239934D01*
X131169041Y-123296192D01*
X131178208Y-123389271D01*
X131236333Y-123580881D01*
X131330718Y-123757463D01*
X131330720Y-123757465D01*
X131330722Y-123757469D01*
X131391724Y-123831801D01*
X131457747Y-123912252D01*
X131508478Y-123953885D01*
X131612531Y-124039278D01*
X131612534Y-124039280D01*
X131612536Y-124039281D01*
X131702239Y-124087228D01*
X131789120Y-124133667D01*
X131980731Y-124191792D01*
X132180000Y-124211418D01*
X132379269Y-124191792D01*
X132570880Y-124133667D01*
X132746547Y-124039770D01*
X132814948Y-124025529D01*
X132863452Y-124039771D01*
X133039118Y-124133666D01*
X133039120Y-124133667D01*
X133230731Y-124191792D01*
X133430000Y-124211418D01*
X133629269Y-124191792D01*
X133820880Y-124133667D01*
X133996547Y-124039770D01*
X134064948Y-124025529D01*
X134113452Y-124039771D01*
X134289118Y-124133666D01*
X134289120Y-124133667D01*
X134480731Y-124191792D01*
X134680000Y-124211418D01*
X134879269Y-124191792D01*
X135070880Y-124133667D01*
X135246550Y-124039769D01*
X135314949Y-124025528D01*
X135363448Y-124039768D01*
X135539120Y-124133667D01*
X135730731Y-124191792D01*
X135930000Y-124211418D01*
X136129269Y-124191792D01*
X136320880Y-124133667D01*
X136496550Y-124039769D01*
X136564949Y-124025528D01*
X136613448Y-124039768D01*
X136789120Y-124133667D01*
X136980731Y-124191792D01*
X137180000Y-124211418D01*
X137379269Y-124191792D01*
X137570880Y-124133667D01*
X137674544Y-124078257D01*
X137747464Y-124039281D01*
X137747465Y-124039280D01*
X137747469Y-124039278D01*
X137832608Y-123969406D01*
X137896917Y-123942094D01*
X137965785Y-123953885D01*
X137977418Y-123960886D01*
X137983046Y-123964135D01*
X138153772Y-124040147D01*
X138239499Y-124058369D01*
X138239500Y-124058369D01*
X138239500Y-122854085D01*
X138246876Y-122865124D01*
X138330894Y-122921263D01*
X138404983Y-122936000D01*
X138455017Y-122936000D01*
X138529106Y-122921263D01*
X138602085Y-122872500D01*
X138620500Y-122872500D01*
X138620500Y-124058369D01*
X138706228Y-124040147D01*
X138706234Y-124040145D01*
X138876947Y-123964138D01*
X139028135Y-123854293D01*
X139153178Y-123715417D01*
X139246616Y-123553579D01*
X139304361Y-123375855D01*
X139304362Y-123375853D01*
X139319000Y-123236586D01*
X139319000Y-122872500D01*
X138620500Y-122872500D01*
X138602085Y-122872500D01*
X138613124Y-122865124D01*
X138669263Y-122781106D01*
X138688976Y-122682000D01*
X138669263Y-122582894D01*
X138613124Y-122498876D01*
X138529106Y-122442737D01*
X138455017Y-122428000D01*
X138404983Y-122428000D01*
X138330894Y-122442737D01*
X138246876Y-122498876D01*
X138239500Y-122509914D01*
X138239500Y-121305629D01*
X138620500Y-121305629D01*
X138620500Y-122491500D01*
X139319000Y-122491500D01*
X139319000Y-122127413D01*
X139304362Y-121988146D01*
X139304361Y-121988144D01*
X139257170Y-121842903D01*
X148471793Y-121842903D01*
X148481672Y-122150970D01*
X148481672Y-122150975D01*
X148481673Y-122150978D01*
X148530867Y-122455261D01*
X148575137Y-122604419D01*
X148618571Y-122750763D01*
X148743333Y-123032601D01*
X148743337Y-123032609D01*
X148903123Y-123296193D01*
X148903127Y-123296198D01*
X148903133Y-123296207D01*
X149095297Y-123537174D01*
X149095299Y-123537176D01*
X149095303Y-123537180D01*
X149095304Y-123537181D01*
X149316724Y-123751614D01*
X149454305Y-123854293D01*
X149563741Y-123935968D01*
X149563743Y-123935969D01*
X149563747Y-123935972D01*
X149832318Y-124087228D01*
X149973057Y-124144207D01*
X150118018Y-124202897D01*
X150118023Y-124202898D01*
X150118025Y-124202899D01*
X150416179Y-124281084D01*
X150721883Y-124320500D01*
X150721890Y-124320500D01*
X150952980Y-124320500D01*
X151051814Y-124314154D01*
X151183601Y-124305693D01*
X151486151Y-124246772D01*
X151778683Y-124149644D01*
X151778689Y-124149640D01*
X151778693Y-124149640D01*
X151969571Y-124057717D01*
X152056393Y-124015907D01*
X152314720Y-123847754D01*
X152549424Y-123647948D01*
X152756650Y-123419769D01*
X152932996Y-123166963D01*
X153075567Y-122893683D01*
X153182020Y-122604415D01*
X153250609Y-122303908D01*
X153280206Y-121997098D01*
X153270327Y-121689022D01*
X153221133Y-121384739D01*
X153133431Y-121089244D01*
X153133429Y-121089239D01*
X153133428Y-121089236D01*
X153008666Y-120807398D01*
X153008663Y-120807391D01*
X152848877Y-120543807D01*
X152848870Y-120543799D01*
X152848866Y-120543792D01*
X152656702Y-120302825D01*
X152656700Y-120302823D01*
X152653163Y-120299398D01*
X152435276Y-120088386D01*
X152306450Y-119992241D01*
X152188258Y-119904031D01*
X152188253Y-119904028D01*
X151919682Y-119752772D01*
X151882383Y-119737671D01*
X151633981Y-119637102D01*
X151466660Y-119593226D01*
X151335821Y-119558916D01*
X151030117Y-119519500D01*
X150799026Y-119519500D01*
X150799020Y-119519500D01*
X150568406Y-119534306D01*
X150568389Y-119534308D01*
X150265854Y-119593226D01*
X150265849Y-119593228D01*
X149973310Y-119690358D01*
X149973306Y-119690359D01*
X149695613Y-119824089D01*
X149695605Y-119824094D01*
X149437286Y-119992241D01*
X149437276Y-119992248D01*
X149202581Y-120192046D01*
X149202571Y-120192056D01*
X148995354Y-120420225D01*
X148995350Y-120420229D01*
X148819005Y-120673033D01*
X148819003Y-120673037D01*
X148676432Y-120946319D01*
X148676429Y-120946326D01*
X148569981Y-121235580D01*
X148569979Y-121235590D01*
X148501391Y-121536089D01*
X148471794Y-121842902D01*
X148471793Y-121842903D01*
X139257170Y-121842903D01*
X139246616Y-121810420D01*
X139153178Y-121648582D01*
X139028135Y-121509706D01*
X138876952Y-121399864D01*
X138706227Y-121323852D01*
X138620500Y-121305629D01*
X138239500Y-121305629D01*
X138239499Y-121305629D01*
X138153770Y-121323852D01*
X138053435Y-121368525D01*
X137984185Y-121377809D01*
X137920909Y-121348180D01*
X137883696Y-121289045D01*
X137879000Y-121255245D01*
X137879000Y-112989897D01*
X137898685Y-112922858D01*
X137915319Y-112902216D01*
X140330325Y-110487210D01*
X142972028Y-107845506D01*
X142974703Y-107842987D01*
X143021052Y-107801927D01*
X143056209Y-107750991D01*
X143058410Y-107747999D01*
X143096584Y-107699275D01*
X143100722Y-107690078D01*
X143111745Y-107670533D01*
X143117480Y-107662227D01*
X143139426Y-107604356D01*
X143140850Y-107600916D01*
X143166251Y-107544482D01*
X143168069Y-107534560D01*
X143174097Y-107512938D01*
X143177673Y-107503510D01*
X143185132Y-107442067D01*
X143185693Y-107438384D01*
X143190561Y-107411827D01*
X143196849Y-107377515D01*
X143193113Y-107315743D01*
X143193000Y-107311999D01*
X143193000Y-104944723D01*
X143209613Y-104882723D01*
X143229285Y-104848650D01*
X143287743Y-104747397D01*
X143343873Y-104574646D01*
X143362860Y-104394000D01*
X143343873Y-104213354D01*
X143287743Y-104040603D01*
X143269497Y-104008999D01*
X143253025Y-103941099D01*
X143275878Y-103875072D01*
X143330800Y-103831882D01*
X143376885Y-103823000D01*
X144503004Y-103823000D01*
X144506748Y-103823113D01*
X144568513Y-103826849D01*
X144568513Y-103826848D01*
X144568515Y-103826849D01*
X144589517Y-103823000D01*
X144629383Y-103815694D01*
X144633081Y-103815131D01*
X144694510Y-103807673D01*
X144703949Y-103804092D01*
X144725560Y-103798069D01*
X144735483Y-103796251D01*
X144791925Y-103770847D01*
X144795338Y-103769433D01*
X144853227Y-103747480D01*
X144861533Y-103741745D01*
X144881078Y-103730722D01*
X144890275Y-103726584D01*
X144938999Y-103688410D01*
X144941991Y-103686209D01*
X144992927Y-103651052D01*
X145033987Y-103604703D01*
X145036506Y-103602028D01*
X146303215Y-102335318D01*
X146364539Y-102301834D01*
X146390897Y-102299000D01*
X147817759Y-102299000D01*
X147884798Y-102318685D01*
X147930553Y-102371489D01*
X147940497Y-102440647D01*
X147927118Y-102481453D01*
X147865703Y-102596352D01*
X147806125Y-102792753D01*
X147786009Y-102996999D01*
X147806125Y-103201246D01*
X147865704Y-103397651D01*
X147959722Y-103573547D01*
X147973964Y-103641950D01*
X147959722Y-103690453D01*
X147865704Y-103866348D01*
X147806125Y-104062753D01*
X147786009Y-104266999D01*
X147806125Y-104471246D01*
X147865704Y-104667651D01*
X147962448Y-104848647D01*
X147962450Y-104848650D01*
X148092650Y-105007299D01*
X148251299Y-105137499D01*
X148251302Y-105137501D01*
X148432298Y-105234245D01*
X148432300Y-105234245D01*
X148432303Y-105234247D01*
X148628702Y-105293824D01*
X148628701Y-105293824D01*
X148648817Y-105295805D01*
X148832950Y-105313941D01*
X149037198Y-105293824D01*
X149233597Y-105234247D01*
X149262005Y-105219063D01*
X149409497Y-105140227D01*
X149477900Y-105125985D01*
X149526403Y-105140227D01*
X149702298Y-105234245D01*
X149702300Y-105234245D01*
X149702303Y-105234247D01*
X149898702Y-105293824D01*
X149898701Y-105293824D01*
X149917014Y-105295627D01*
X150102950Y-105313941D01*
X150307198Y-105293824D01*
X150503597Y-105234247D01*
X150532005Y-105219063D01*
X150684597Y-105137501D01*
X150684600Y-105137499D01*
X150686164Y-105136216D01*
X150843249Y-105007299D01*
X150973450Y-104848649D01*
X151027568Y-104747400D01*
X151070195Y-104667651D01*
X151070195Y-104667650D01*
X151070197Y-104667647D01*
X151129774Y-104471248D01*
X151149891Y-104267000D01*
X151129774Y-104062752D01*
X151070197Y-103866353D01*
X151070195Y-103866350D01*
X151070195Y-103866348D01*
X150976177Y-103690452D01*
X150961935Y-103622049D01*
X150976177Y-103573547D01*
X151070197Y-103397647D01*
X151129774Y-103201248D01*
X151149891Y-102997000D01*
X151129774Y-102792752D01*
X151070197Y-102596353D01*
X151070195Y-102596350D01*
X151070195Y-102596348D01*
X150976177Y-102420452D01*
X150961935Y-102352049D01*
X150976176Y-102303548D01*
X151070197Y-102127647D01*
X151099199Y-102032036D01*
X151137495Y-101973601D01*
X151201307Y-101945145D01*
X151270374Y-101955705D01*
X151322768Y-102001929D01*
X151335790Y-102029717D01*
X151352257Y-102080398D01*
X151352258Y-102080400D01*
X151427232Y-102210259D01*
X151443077Y-102237703D01*
X151457208Y-102253397D01*
X151564613Y-102372684D01*
X151564620Y-102372690D01*
X151711565Y-102479452D01*
X151711566Y-102479452D01*
X151711570Y-102479455D01*
X151810848Y-102523656D01*
X151877501Y-102553333D01*
X151877507Y-102553335D01*
X152055179Y-102591100D01*
X152055180Y-102591100D01*
X152236819Y-102591100D01*
X152236821Y-102591100D01*
X152414493Y-102553335D01*
X152414495Y-102553333D01*
X152414498Y-102553333D01*
X152436949Y-102543336D01*
X152580430Y-102479455D01*
X152727381Y-102372689D01*
X152728462Y-102371489D01*
X152776006Y-102318685D01*
X152848923Y-102237703D01*
X152939743Y-102080397D01*
X152995873Y-101907646D01*
X153014860Y-101727000D01*
X152995873Y-101546354D01*
X152939743Y-101373603D01*
X152848923Y-101216297D01*
X152785043Y-101145351D01*
X152727386Y-101081315D01*
X152727379Y-101081309D01*
X152580434Y-100974547D01*
X152580431Y-100974545D01*
X152580430Y-100974545D01*
X152536227Y-100954864D01*
X152414498Y-100900666D01*
X152414492Y-100900664D01*
X152274584Y-100870926D01*
X152236821Y-100862900D01*
X152055179Y-100862900D01*
X152024034Y-100869519D01*
X151877507Y-100900664D01*
X151877501Y-100900666D01*
X151711570Y-100974545D01*
X151711565Y-100974547D01*
X151564620Y-101081309D01*
X151564613Y-101081315D01*
X151443076Y-101216298D01*
X151352258Y-101373599D01*
X151335790Y-101424283D01*
X151296352Y-101481958D01*
X151231993Y-101509156D01*
X151163147Y-101497241D01*
X151111671Y-101449997D01*
X151099200Y-101421964D01*
X151070197Y-101326353D01*
X151070195Y-101326350D01*
X151070195Y-101326348D01*
X150976177Y-101150452D01*
X150961935Y-101082049D01*
X150976176Y-101033548D01*
X151070197Y-100857647D01*
X151129774Y-100661248D01*
X151149891Y-100457000D01*
X151129774Y-100252752D01*
X151070197Y-100056353D01*
X151070195Y-100056350D01*
X151070195Y-100056348D01*
X150976177Y-99880453D01*
X150961935Y-99812050D01*
X150976177Y-99763547D01*
X150979321Y-99757666D01*
X151070197Y-99587647D01*
X151129774Y-99391248D01*
X151149891Y-99187000D01*
X151129774Y-98982752D01*
X151070197Y-98786353D01*
X151070195Y-98786350D01*
X151070195Y-98786348D01*
X150976177Y-98610453D01*
X150961935Y-98542050D01*
X150976177Y-98493547D01*
X151070195Y-98317651D01*
X151070195Y-98317650D01*
X151070197Y-98317647D01*
X151129774Y-98121248D01*
X151149891Y-97917000D01*
X151129774Y-97712752D01*
X151070197Y-97516353D01*
X151070195Y-97516350D01*
X151070195Y-97516348D01*
X150976177Y-97340453D01*
X150961935Y-97272050D01*
X150976177Y-97223547D01*
X151070195Y-97047651D01*
X151070195Y-97047650D01*
X151070197Y-97047647D01*
X151129774Y-96851248D01*
X151149891Y-96647000D01*
X151129774Y-96442752D01*
X151070197Y-96246353D01*
X151070195Y-96246350D01*
X151070195Y-96246348D01*
X150976177Y-96070452D01*
X150961935Y-96002049D01*
X150976176Y-95953548D01*
X151052673Y-95810431D01*
X151101634Y-95760589D01*
X151169772Y-95745128D01*
X151235451Y-95768959D01*
X151269417Y-95806886D01*
X151295918Y-95852787D01*
X151316077Y-95887703D01*
X151351108Y-95926609D01*
X151437613Y-96022684D01*
X151437620Y-96022690D01*
X151584565Y-96129452D01*
X151584566Y-96129452D01*
X151584570Y-96129455D01*
X151683848Y-96173656D01*
X151750501Y-96203333D01*
X151750507Y-96203335D01*
X151928179Y-96241100D01*
X151928180Y-96241100D01*
X152109819Y-96241100D01*
X152109821Y-96241100D01*
X152287493Y-96203335D01*
X152287495Y-96203333D01*
X152287498Y-96203333D01*
X152320370Y-96188697D01*
X152453430Y-96129455D01*
X152600381Y-96022689D01*
X152601412Y-96021545D01*
X152630716Y-95988999D01*
X152721923Y-95887703D01*
X152812743Y-95730397D01*
X152868873Y-95557646D01*
X152887860Y-95377000D01*
X152868873Y-95196354D01*
X152812743Y-95023603D01*
X152721923Y-94866297D01*
X152658043Y-94795351D01*
X152600386Y-94731315D01*
X152600379Y-94731309D01*
X152453434Y-94624547D01*
X152453431Y-94624545D01*
X152453430Y-94624545D01*
X152409227Y-94604864D01*
X152287498Y-94550666D01*
X152287492Y-94550664D01*
X152145741Y-94520535D01*
X152109821Y-94512900D01*
X151928179Y-94512900D01*
X151897034Y-94519519D01*
X151750507Y-94550664D01*
X151750501Y-94550666D01*
X151584570Y-94624545D01*
X151584565Y-94624547D01*
X151437620Y-94731309D01*
X151437613Y-94731315D01*
X151316075Y-94866298D01*
X151269417Y-94947113D01*
X151218850Y-94995329D01*
X151150242Y-95008551D01*
X151085378Y-94982583D01*
X151052674Y-94943569D01*
X150976175Y-94800450D01*
X150961935Y-94732049D01*
X150976177Y-94683547D01*
X151070197Y-94507647D01*
X151129774Y-94311248D01*
X151149891Y-94107000D01*
X151129774Y-93902752D01*
X151070197Y-93706353D01*
X151070195Y-93706350D01*
X151070195Y-93706348D01*
X150976177Y-93530452D01*
X150961935Y-93462049D01*
X150976176Y-93413548D01*
X151070197Y-93237647D01*
X151129774Y-93041248D01*
X151149891Y-92837000D01*
X151129774Y-92632752D01*
X151070197Y-92436353D01*
X151070195Y-92436350D01*
X151070195Y-92436348D01*
X150973451Y-92255352D01*
X150973449Y-92255349D01*
X150843249Y-92096700D01*
X150684600Y-91966500D01*
X150684597Y-91966498D01*
X150503601Y-91869754D01*
X150446198Y-91852341D01*
X150307198Y-91810176D01*
X150307195Y-91810175D01*
X150307198Y-91810175D01*
X150102950Y-91790059D01*
X149898703Y-91810175D01*
X149702298Y-91869754D01*
X149521307Y-91966496D01*
X149521301Y-91966500D01*
X149440004Y-92033218D01*
X149375694Y-92060530D01*
X149306826Y-92048738D01*
X149298468Y-92043707D01*
X149298302Y-92043996D01*
X149292668Y-92040744D01*
X149117077Y-91962564D01*
X149117069Y-91962562D01*
X148929057Y-91922600D01*
X148736843Y-91922600D01*
X148548830Y-91962562D01*
X148373232Y-92040743D01*
X148334350Y-92068991D01*
X148334350Y-92068992D01*
X148743835Y-92478477D01*
X148711709Y-92483838D01*
X148603607Y-92542340D01*
X148520358Y-92632773D01*
X148471256Y-92744714D01*
X148064952Y-92338410D01*
X148064951Y-92338410D01*
X147993003Y-92463029D01*
X147933606Y-92645833D01*
X147933605Y-92645835D01*
X147913513Y-92837000D01*
X147933605Y-93028164D01*
X147933606Y-93028166D01*
X147993003Y-93210970D01*
X148044024Y-93299341D01*
X148060497Y-93367241D01*
X148037644Y-93433268D01*
X148032491Y-93440006D01*
X147962447Y-93525354D01*
X147865704Y-93706348D01*
X147806125Y-93902753D01*
X147786009Y-94106999D01*
X147806125Y-94311246D01*
X147865704Y-94507651D01*
X147959722Y-94683547D01*
X147973964Y-94751950D01*
X147959722Y-94800453D01*
X147865704Y-94976348D01*
X147806125Y-95172753D01*
X147786009Y-95376999D01*
X147806125Y-95581246D01*
X147830320Y-95661005D01*
X147830943Y-95730872D01*
X147793695Y-95789985D01*
X147730400Y-95819576D01*
X147711659Y-95821000D01*
X143042295Y-95821000D01*
X142975256Y-95801315D01*
X142969410Y-95797318D01*
X142928434Y-95767547D01*
X142928431Y-95767545D01*
X142928430Y-95767545D01*
X142878081Y-95745128D01*
X142762498Y-95693666D01*
X142762492Y-95693664D01*
X142608838Y-95661005D01*
X142584821Y-95655900D01*
X142403179Y-95655900D01*
X142379162Y-95661005D01*
X142225507Y-95693664D01*
X142225501Y-95693666D01*
X142059570Y-95767545D01*
X142059565Y-95767547D01*
X142018590Y-95797318D01*
X141952784Y-95820798D01*
X141945705Y-95821000D01*
X141754995Y-95821000D01*
X141751251Y-95820887D01*
X141689487Y-95817151D01*
X141689482Y-95817151D01*
X141649687Y-95824444D01*
X141628620Y-95828304D01*
X141624921Y-95828867D01*
X141563490Y-95836326D01*
X141563482Y-95836329D01*
X141554049Y-95839906D01*
X141532441Y-95845930D01*
X141522517Y-95847748D01*
X141466100Y-95873139D01*
X141462642Y-95874571D01*
X141404773Y-95896519D01*
X141396462Y-95902256D01*
X141376922Y-95913276D01*
X141367728Y-95917413D01*
X141367725Y-95917416D01*
X141319033Y-95955562D01*
X141316018Y-95957781D01*
X141265076Y-95992945D01*
X141265071Y-95992950D01*
X141224036Y-96039267D01*
X141221469Y-96041994D01*
X140766628Y-96496834D01*
X140705305Y-96530319D01*
X140668140Y-96532681D01*
X140462002Y-96514647D01*
X140461998Y-96514647D01*
X140240542Y-96534021D01*
X140240535Y-96534022D01*
X140025800Y-96591561D01*
X139824323Y-96685512D01*
X139824319Y-96685514D01*
X139642217Y-96813023D01*
X139485023Y-96970217D01*
X139357514Y-97152319D01*
X139357512Y-97152323D01*
X139263561Y-97353800D01*
X139206022Y-97568535D01*
X139206021Y-97568542D01*
X139186647Y-97789997D01*
X139186647Y-97790002D01*
X139206021Y-98011457D01*
X139206022Y-98011465D01*
X139263558Y-98226191D01*
X139263559Y-98226193D01*
X139263560Y-98226196D01*
X139282378Y-98266551D01*
X139357511Y-98427676D01*
X139363122Y-98435689D01*
X139485023Y-98609781D01*
X139642219Y-98766977D01*
X139824323Y-98894488D01*
X140025804Y-98988440D01*
X140240537Y-99045978D01*
X140398724Y-99059817D01*
X140461998Y-99065353D01*
X140462000Y-99065353D01*
X140462002Y-99065353D01*
X140517365Y-99060509D01*
X140683463Y-99045978D01*
X140898196Y-98988440D01*
X141099677Y-98894488D01*
X141281781Y-98766977D01*
X141438977Y-98609781D01*
X141566488Y-98427677D01*
X141660440Y-98226196D01*
X141717978Y-98011463D01*
X141737353Y-97790000D01*
X141719318Y-97583855D01*
X141733085Y-97515357D01*
X141755162Y-97485372D01*
X141936003Y-97304530D01*
X141997326Y-97271046D01*
X142067018Y-97276030D01*
X142074117Y-97278932D01*
X142087075Y-97284701D01*
X142225501Y-97346333D01*
X142225507Y-97346335D01*
X142339692Y-97370605D01*
X142401172Y-97403797D01*
X142434949Y-97464960D01*
X142431841Y-97530213D01*
X142406128Y-97609349D01*
X142406127Y-97609351D01*
X142387140Y-97790000D01*
X142406127Y-97970648D01*
X142406128Y-97970650D01*
X142462257Y-98143398D01*
X142462258Y-98143400D01*
X142510061Y-98226197D01*
X142553077Y-98300703D01*
X142595414Y-98347723D01*
X142674613Y-98435684D01*
X142674620Y-98435690D01*
X142821565Y-98542452D01*
X142821566Y-98542452D01*
X142821570Y-98542455D01*
X142920848Y-98586656D01*
X142987501Y-98616333D01*
X142987507Y-98616335D01*
X143165179Y-98654100D01*
X143165180Y-98654100D01*
X143346819Y-98654100D01*
X143346821Y-98654100D01*
X143524493Y-98616335D01*
X143524495Y-98616333D01*
X143524498Y-98616333D01*
X143549163Y-98605351D01*
X143690430Y-98542455D01*
X143696816Y-98537814D01*
X143731410Y-98512682D01*
X143797216Y-98489202D01*
X143804295Y-98489000D01*
X143907901Y-98489000D01*
X143974940Y-98508685D01*
X144009475Y-98541876D01*
X144014052Y-98548412D01*
X144057023Y-98609781D01*
X144214219Y-98766977D01*
X144396323Y-98894488D01*
X144597804Y-98988440D01*
X144812537Y-99045978D01*
X144970724Y-99059817D01*
X145033998Y-99065353D01*
X145034000Y-99065353D01*
X145034002Y-99065353D01*
X145089365Y-99060509D01*
X145255463Y-99045978D01*
X145470196Y-98988440D01*
X145671677Y-98894488D01*
X145853781Y-98766977D01*
X146010977Y-98609781D01*
X146138488Y-98427677D01*
X146232440Y-98226196D01*
X146289978Y-98011463D01*
X146309353Y-97790000D01*
X146289978Y-97568537D01*
X146267693Y-97485369D01*
X146238145Y-97375093D01*
X146239808Y-97305244D01*
X146278971Y-97247381D01*
X146343199Y-97219877D01*
X146357920Y-97219000D01*
X147817759Y-97219000D01*
X147884798Y-97238685D01*
X147930553Y-97291489D01*
X147940497Y-97360647D01*
X147927118Y-97401453D01*
X147865703Y-97516352D01*
X147806125Y-97712753D01*
X147786009Y-97917000D01*
X147806125Y-98121246D01*
X147865704Y-98317651D01*
X147959722Y-98493547D01*
X147973964Y-98561950D01*
X147959722Y-98610453D01*
X147865704Y-98786348D01*
X147806125Y-98982753D01*
X147786009Y-99187000D01*
X147806125Y-99391246D01*
X147865703Y-99587647D01*
X147927118Y-99702547D01*
X147941359Y-99770950D01*
X147916359Y-99836194D01*
X147860053Y-99877564D01*
X147817759Y-99885000D01*
X138724295Y-99885000D01*
X138657256Y-99865315D01*
X138651410Y-99861318D01*
X138610434Y-99831547D01*
X138610431Y-99831545D01*
X138610430Y-99831545D01*
X138544772Y-99802312D01*
X138444498Y-99757666D01*
X138444492Y-99757664D01*
X138304584Y-99727926D01*
X138266821Y-99719900D01*
X138085179Y-99719900D01*
X138054034Y-99726519D01*
X137907507Y-99757664D01*
X137907501Y-99757666D01*
X137741570Y-99831545D01*
X137741565Y-99831547D01*
X137594620Y-99938309D01*
X137594613Y-99938315D01*
X137473076Y-100073298D01*
X137382258Y-100230599D01*
X137382257Y-100230601D01*
X137326128Y-100403349D01*
X137326127Y-100403351D01*
X137307140Y-100584000D01*
X137326127Y-100764648D01*
X137326128Y-100764650D01*
X137382257Y-100937398D01*
X137382258Y-100937400D01*
X137427060Y-101015000D01*
X137443533Y-101082901D01*
X137420680Y-101148927D01*
X137365759Y-101192118D01*
X137319673Y-101201000D01*
X125234047Y-101201000D01*
X125167008Y-101181315D01*
X125132472Y-101148123D01*
X125090660Y-101088409D01*
X124935038Y-100932787D01*
X124754757Y-100806553D01*
X124754753Y-100806551D01*
X124754751Y-100806550D01*
X124617137Y-100742380D01*
X124564700Y-100696209D01*
X124545548Y-100629015D01*
X124565764Y-100562134D01*
X124617137Y-100517618D01*
X124754753Y-100453447D01*
X124935037Y-100327211D01*
X125090662Y-100171586D01*
X125216898Y-99991302D01*
X125309911Y-99791835D01*
X125366873Y-99579248D01*
X125386055Y-99359999D01*
X125366873Y-99140750D01*
X125309911Y-98928163D01*
X125216898Y-98728697D01*
X125090662Y-98548412D01*
X125090660Y-98548409D01*
X124935038Y-98392787D01*
X124754757Y-98266553D01*
X124754753Y-98266551D01*
X124754751Y-98266550D01*
X124617137Y-98202380D01*
X124564700Y-98156209D01*
X124545548Y-98089015D01*
X124565764Y-98022134D01*
X124617137Y-97977618D01*
X124754753Y-97913447D01*
X124935037Y-97787211D01*
X125090662Y-97631586D01*
X125112544Y-97600335D01*
X125132471Y-97571877D01*
X125187048Y-97528252D01*
X125234046Y-97519000D01*
X137698470Y-97519000D01*
X137748906Y-97529721D01*
X137907501Y-97600333D01*
X137907507Y-97600335D01*
X138085179Y-97638100D01*
X138085180Y-97638100D01*
X138266819Y-97638100D01*
X138266821Y-97638100D01*
X138444493Y-97600335D01*
X138444495Y-97600333D01*
X138444498Y-97600333D01*
X138481503Y-97583857D01*
X138610430Y-97526455D01*
X138757381Y-97419689D01*
X138878923Y-97284703D01*
X138969743Y-97127397D01*
X139025873Y-96954646D01*
X139026214Y-96951404D01*
X139026935Y-96949650D01*
X139027226Y-96948283D01*
X139027476Y-96948336D01*
X139052796Y-96886788D01*
X139061845Y-96876689D01*
X139416028Y-96522506D01*
X139418703Y-96519987D01*
X139465052Y-96478927D01*
X139500223Y-96427971D01*
X139502402Y-96425010D01*
X139540585Y-96376275D01*
X139544722Y-96367080D01*
X139555753Y-96347522D01*
X139561480Y-96339227D01*
X139583423Y-96281366D01*
X139584843Y-96277936D01*
X139610252Y-96221482D01*
X139612069Y-96211563D01*
X139618101Y-96189927D01*
X139621673Y-96180509D01*
X139629131Y-96119088D01*
X139629694Y-96115384D01*
X139640849Y-96054515D01*
X139638060Y-96008409D01*
X139637113Y-95992743D01*
X139637000Y-95988999D01*
X139637000Y-95868099D01*
X139656685Y-95801060D01*
X139689876Y-95766525D01*
X139706689Y-95754752D01*
X139757781Y-95718977D01*
X139914977Y-95561781D01*
X140042488Y-95379677D01*
X140136440Y-95178196D01*
X140193978Y-94963463D01*
X140213353Y-94742000D01*
X140212482Y-94732049D01*
X140196614Y-94550666D01*
X140193978Y-94520537D01*
X140136440Y-94305804D01*
X140042488Y-94104324D01*
X140042486Y-94104321D01*
X140042485Y-94104319D01*
X139914978Y-93922220D01*
X139840919Y-93848161D01*
X139757781Y-93765023D01*
X139591651Y-93648697D01*
X139575676Y-93637511D01*
X139430455Y-93569794D01*
X139374196Y-93543560D01*
X139374193Y-93543559D01*
X139374191Y-93543558D01*
X139159465Y-93486022D01*
X139159457Y-93486021D01*
X138938002Y-93466647D01*
X138937998Y-93466647D01*
X138817307Y-93477206D01*
X138748807Y-93463439D01*
X138698624Y-93414824D01*
X138682500Y-93353678D01*
X138682500Y-92411236D01*
X138684239Y-92395484D01*
X138683968Y-92395459D01*
X138684700Y-92387703D01*
X138684702Y-92387696D01*
X138682500Y-92317632D01*
X138682500Y-92287748D01*
X138681614Y-92280745D01*
X138681157Y-92274926D01*
X138679674Y-92227717D01*
X138679674Y-92227715D01*
X138673974Y-92208096D01*
X138670031Y-92189050D01*
X138667856Y-92171835D01*
X138667474Y-92168807D01*
X138650081Y-92124878D01*
X138648204Y-92119396D01*
X138635019Y-92074011D01*
X138624620Y-92056428D01*
X138616066Y-92038967D01*
X138608552Y-92019987D01*
X138580793Y-91981780D01*
X138577586Y-91976898D01*
X138553544Y-91936245D01*
X138553543Y-91936244D01*
X138553542Y-91936242D01*
X138539108Y-91921808D01*
X138526471Y-91907013D01*
X138514472Y-91890497D01*
X138514470Y-91890494D01*
X138478073Y-91860385D01*
X138473751Y-91856451D01*
X137067819Y-90450518D01*
X137034334Y-90389195D01*
X137031500Y-90362837D01*
X137031500Y-87426766D01*
X137051185Y-87359727D01*
X137103989Y-87313972D01*
X137173147Y-87304028D01*
X137236703Y-87333053D01*
X137243181Y-87339085D01*
X139438266Y-89534170D01*
X139471751Y-89595493D01*
X139473905Y-89608885D01*
X139485127Y-89715646D01*
X139485128Y-89715648D01*
X139485128Y-89715650D01*
X139541257Y-89888398D01*
X139541258Y-89888400D01*
X139557193Y-89916000D01*
X139632077Y-90045703D01*
X139674414Y-90092723D01*
X139753613Y-90180684D01*
X139753620Y-90180690D01*
X139900565Y-90287452D01*
X139900566Y-90287452D01*
X139900570Y-90287455D01*
X139997621Y-90330665D01*
X140066501Y-90361333D01*
X140066507Y-90361335D01*
X140244179Y-90399100D01*
X140244180Y-90399100D01*
X140425819Y-90399100D01*
X140425821Y-90399100D01*
X140603493Y-90361335D01*
X140603495Y-90361333D01*
X140603498Y-90361333D01*
X140625949Y-90351336D01*
X140769430Y-90287455D01*
X140916381Y-90180689D01*
X141037923Y-90045703D01*
X141128743Y-89888397D01*
X141184873Y-89715646D01*
X141203860Y-89535000D01*
X141184873Y-89354354D01*
X141128743Y-89181603D01*
X141037923Y-89024297D01*
X140990318Y-88971426D01*
X140916386Y-88889315D01*
X140916382Y-88889312D01*
X140916381Y-88889311D01*
X140806967Y-88809817D01*
X140764302Y-88754488D01*
X140758323Y-88684875D01*
X140790928Y-88623080D01*
X140806968Y-88609182D01*
X140916381Y-88529689D01*
X141037923Y-88394703D01*
X141128743Y-88237397D01*
X141184873Y-88064646D01*
X141203860Y-87884000D01*
X141184873Y-87703354D01*
X141128743Y-87530603D01*
X141037923Y-87373297D01*
X140975553Y-87304028D01*
X140916386Y-87238315D01*
X140916379Y-87238309D01*
X140769434Y-87131547D01*
X140769431Y-87131545D01*
X140769430Y-87131545D01*
X140725227Y-87111864D01*
X140603498Y-87057666D01*
X140603492Y-87057664D01*
X140463585Y-87027926D01*
X140425821Y-87019900D01*
X140425820Y-87019900D01*
X140418166Y-87019900D01*
X140351127Y-87000215D01*
X140330485Y-86983581D01*
X138279819Y-84932914D01*
X138246334Y-84871591D01*
X138243500Y-84845233D01*
X138243500Y-80850443D01*
X138263185Y-80783404D01*
X138315989Y-80737649D01*
X138385147Y-80727705D01*
X138405819Y-80732512D01*
X138407777Y-80733148D01*
X138493499Y-80751369D01*
X138493500Y-80751369D01*
X138493500Y-79547085D01*
X138500876Y-79558124D01*
X138584894Y-79614263D01*
X138658983Y-79629000D01*
X138709017Y-79629000D01*
X138783106Y-79614263D01*
X138856085Y-79565500D01*
X138874500Y-79565500D01*
X138874500Y-80751369D01*
X138960228Y-80733147D01*
X138960234Y-80733145D01*
X139130947Y-80657138D01*
X139282135Y-80547293D01*
X139407178Y-80408417D01*
X139500616Y-80246579D01*
X139558361Y-80068855D01*
X139558362Y-80068853D01*
X139573000Y-79929586D01*
X139573000Y-79678903D01*
X148471793Y-79678903D01*
X148481672Y-79986970D01*
X148481672Y-79986975D01*
X148481673Y-79986978D01*
X148530867Y-80291261D01*
X148592505Y-80498939D01*
X148618571Y-80586763D01*
X148735295Y-80850443D01*
X148743337Y-80868609D01*
X148903123Y-81132193D01*
X148903127Y-81132198D01*
X148903133Y-81132207D01*
X149095297Y-81373174D01*
X149095299Y-81373176D01*
X149095303Y-81373180D01*
X149095304Y-81373181D01*
X149316724Y-81587614D01*
X149483862Y-81712352D01*
X149563741Y-81771968D01*
X149563743Y-81771969D01*
X149563747Y-81771972D01*
X149832318Y-81923228D01*
X149973057Y-81980207D01*
X150118018Y-82038897D01*
X150118023Y-82038898D01*
X150118025Y-82038899D01*
X150416179Y-82117084D01*
X150721883Y-82156500D01*
X150721890Y-82156500D01*
X150952980Y-82156500D01*
X151051814Y-82150154D01*
X151183601Y-82141693D01*
X151486151Y-82082772D01*
X151778683Y-81985644D01*
X151778689Y-81985640D01*
X151778693Y-81985640D01*
X151969571Y-81893717D01*
X152056393Y-81851907D01*
X152314720Y-81683754D01*
X152549424Y-81483948D01*
X152756650Y-81255769D01*
X152932996Y-81002963D01*
X153075567Y-80729683D01*
X153182020Y-80440415D01*
X153250609Y-80139908D01*
X153280206Y-79833098D01*
X153270327Y-79525022D01*
X153221133Y-79220739D01*
X153133431Y-78925244D01*
X153133429Y-78925239D01*
X153133428Y-78925236D01*
X153008666Y-78643398D01*
X153008663Y-78643391D01*
X152848877Y-78379807D01*
X152848870Y-78379799D01*
X152848866Y-78379792D01*
X152656702Y-78138825D01*
X152656700Y-78138823D01*
X152616309Y-78099707D01*
X152435276Y-77924386D01*
X152306450Y-77828241D01*
X152188258Y-77740031D01*
X152188253Y-77740028D01*
X151919682Y-77588772D01*
X151882383Y-77573671D01*
X151633981Y-77473102D01*
X151466660Y-77429226D01*
X151335821Y-77394916D01*
X151030117Y-77355500D01*
X150799026Y-77355500D01*
X150799020Y-77355500D01*
X150568406Y-77370306D01*
X150568389Y-77370308D01*
X150265854Y-77429226D01*
X150265849Y-77429228D01*
X149973310Y-77526358D01*
X149973306Y-77526359D01*
X149695613Y-77660089D01*
X149695605Y-77660094D01*
X149437286Y-77828241D01*
X149437276Y-77828248D01*
X149202581Y-78028046D01*
X149202571Y-78028056D01*
X148995354Y-78256225D01*
X148995350Y-78256229D01*
X148819005Y-78509033D01*
X148819003Y-78509037D01*
X148676432Y-78782319D01*
X148676429Y-78782326D01*
X148569981Y-79071580D01*
X148569979Y-79071590D01*
X148501391Y-79372089D01*
X148471794Y-79678902D01*
X148471793Y-79678903D01*
X139573000Y-79678903D01*
X139573000Y-79565500D01*
X138874500Y-79565500D01*
X138856085Y-79565500D01*
X138867124Y-79558124D01*
X138923263Y-79474106D01*
X138942976Y-79375000D01*
X138923263Y-79275894D01*
X138867124Y-79191876D01*
X138783106Y-79135737D01*
X138709017Y-79121000D01*
X138658983Y-79121000D01*
X138584894Y-79135737D01*
X138500876Y-79191876D01*
X138493500Y-79202914D01*
X138493500Y-77998629D01*
X138874500Y-77998629D01*
X138874500Y-79184500D01*
X139573000Y-79184500D01*
X139573000Y-78820413D01*
X139558362Y-78681146D01*
X139558361Y-78681144D01*
X139500616Y-78503420D01*
X139407178Y-78341582D01*
X139282135Y-78202706D01*
X139130952Y-78092864D01*
X138960227Y-78016852D01*
X138874500Y-77998629D01*
X138493500Y-77998629D01*
X138493499Y-77998629D01*
X138407770Y-78016852D01*
X138237053Y-78092861D01*
X138231432Y-78096107D01*
X138230643Y-78094741D01*
X138172340Y-78115538D01*
X138104288Y-78099707D01*
X138086609Y-78087594D01*
X138059000Y-78064936D01*
X138001469Y-78017722D01*
X138001465Y-78017720D01*
X138001463Y-78017718D01*
X137824881Y-77923333D01*
X137633271Y-77865208D01*
X137434000Y-77845582D01*
X137234728Y-77865208D01*
X137043118Y-77923333D01*
X136867452Y-78017228D01*
X136799049Y-78031470D01*
X136750546Y-78017228D01*
X136574881Y-77923333D01*
X136383271Y-77865208D01*
X136184000Y-77845582D01*
X135984728Y-77865208D01*
X135793118Y-77923333D01*
X135617453Y-78017228D01*
X135549050Y-78031470D01*
X135500547Y-78017228D01*
X135324881Y-77923333D01*
X135133271Y-77865208D01*
X134934000Y-77845582D01*
X134734728Y-77865208D01*
X134543118Y-77923333D01*
X134367453Y-78017228D01*
X134299050Y-78031470D01*
X134250547Y-78017228D01*
X134074881Y-77923333D01*
X133883271Y-77865208D01*
X133684000Y-77845582D01*
X133484728Y-77865208D01*
X133293118Y-77923333D01*
X133117453Y-78017228D01*
X133049050Y-78031470D01*
X133000547Y-78017228D01*
X132824881Y-77923333D01*
X132633271Y-77865208D01*
X132434000Y-77845582D01*
X132234728Y-77865208D01*
X132043118Y-77923333D01*
X131866536Y-78017718D01*
X131711747Y-78144747D01*
X131584718Y-78299536D01*
X131490333Y-78476118D01*
X131432208Y-78667728D01*
X131432208Y-78667731D01*
X131420923Y-78782317D01*
X131417500Y-78817069D01*
X131417500Y-79932930D01*
X131432208Y-80082271D01*
X131490333Y-80273881D01*
X131584718Y-80450463D01*
X131584720Y-80450465D01*
X131584722Y-80450469D01*
X131624500Y-80498939D01*
X131711747Y-80605252D01*
X131774972Y-80657138D01*
X131866531Y-80732278D01*
X131866534Y-80732280D01*
X131866536Y-80732281D01*
X131999955Y-80803595D01*
X132043120Y-80826667D01*
X132234731Y-80884792D01*
X132434000Y-80904418D01*
X132633269Y-80884792D01*
X132824880Y-80826667D01*
X132868044Y-80803594D01*
X132936447Y-80789352D01*
X133001691Y-80814351D01*
X133043062Y-80870655D01*
X133050499Y-80912952D01*
X133050499Y-83181366D01*
X133048762Y-83197113D01*
X133049032Y-83197139D01*
X133048298Y-83204905D01*
X133050500Y-83274957D01*
X133050500Y-83304859D01*
X133051384Y-83311856D01*
X133051842Y-83317679D01*
X133053326Y-83364889D01*
X133053327Y-83364891D01*
X133059022Y-83384495D01*
X133062967Y-83403542D01*
X133065526Y-83423797D01*
X133065527Y-83423800D01*
X133065528Y-83423803D01*
X133082914Y-83467716D01*
X133084806Y-83473244D01*
X133097981Y-83518592D01*
X133108372Y-83536162D01*
X133116932Y-83553635D01*
X133124447Y-83572617D01*
X133152209Y-83610827D01*
X133155416Y-83615710D01*
X133179458Y-83656362D01*
X133179462Y-83656366D01*
X133193889Y-83670793D01*
X133206526Y-83685588D01*
X133218528Y-83702107D01*
X133254931Y-83732222D01*
X133259231Y-83736135D01*
X134368329Y-84845233D01*
X135093181Y-85570085D01*
X135126666Y-85631408D01*
X135129500Y-85657766D01*
X135129500Y-90594366D01*
X135127761Y-90610113D01*
X135128032Y-90610139D01*
X135127298Y-90617905D01*
X135127298Y-90617908D01*
X135127298Y-90617909D01*
X135129500Y-90687957D01*
X135129500Y-90717859D01*
X135130384Y-90724856D01*
X135130842Y-90730679D01*
X135132326Y-90777889D01*
X135132327Y-90777891D01*
X135138022Y-90797495D01*
X135141967Y-90816542D01*
X135144526Y-90836797D01*
X135144527Y-90836800D01*
X135144528Y-90836803D01*
X135161914Y-90880716D01*
X135163806Y-90886244D01*
X135176981Y-90931592D01*
X135187372Y-90949162D01*
X135195932Y-90966635D01*
X135203447Y-90985617D01*
X135231209Y-91023827D01*
X135234416Y-91028710D01*
X135258458Y-91069362D01*
X135258462Y-91069366D01*
X135272889Y-91083793D01*
X135285526Y-91098588D01*
X135297528Y-91115107D01*
X135333931Y-91145222D01*
X135338231Y-91149135D01*
X135929094Y-91739998D01*
X136236181Y-92047085D01*
X136269666Y-92108408D01*
X136272500Y-92134766D01*
X136272500Y-93457000D01*
X136252815Y-93524039D01*
X136200011Y-93569794D01*
X136148500Y-93581000D01*
X125234047Y-93581000D01*
X125167008Y-93561315D01*
X125132472Y-93528123D01*
X125090660Y-93468409D01*
X124935038Y-93312787D01*
X124754757Y-93186553D01*
X124754753Y-93186551D01*
X124654394Y-93139753D01*
X124617137Y-93122380D01*
X124564700Y-93076209D01*
X124545548Y-93009015D01*
X124565764Y-92942134D01*
X124617137Y-92897618D01*
X124754753Y-92833447D01*
X124935037Y-92707211D01*
X125090662Y-92551586D01*
X125216898Y-92371302D01*
X125309911Y-92171835D01*
X125366873Y-91959248D01*
X125386055Y-91739999D01*
X125366873Y-91520750D01*
X125309911Y-91308163D01*
X125216898Y-91108697D01*
X125101265Y-90943555D01*
X125090660Y-90928409D01*
X125011548Y-90849297D01*
X130019108Y-90849297D01*
X130171336Y-90943554D01*
X130171338Y-90943555D01*
X130368855Y-91020073D01*
X130368865Y-91020076D01*
X130577088Y-91059000D01*
X130788912Y-91059000D01*
X130997134Y-91020076D01*
X130997144Y-91020073D01*
X131194661Y-90943555D01*
X131194665Y-90943553D01*
X131346889Y-90849298D01*
X131346889Y-90849297D01*
X130683001Y-90185408D01*
X130683000Y-90185408D01*
X130019108Y-90849297D01*
X125011548Y-90849297D01*
X124935038Y-90772787D01*
X124754757Y-90646553D01*
X124754753Y-90646551D01*
X124676611Y-90610113D01*
X124617137Y-90582380D01*
X124564700Y-90536209D01*
X124545548Y-90469015D01*
X124565764Y-90402134D01*
X124617137Y-90357618D01*
X124754753Y-90293447D01*
X124935037Y-90167211D01*
X125090662Y-90011586D01*
X125157592Y-89916000D01*
X129535102Y-89916000D01*
X129554647Y-90126925D01*
X129612617Y-90330665D01*
X129612622Y-90330678D01*
X129707038Y-90520290D01*
X129751037Y-90578554D01*
X130413592Y-89916000D01*
X130952406Y-89916000D01*
X131614961Y-90578553D01*
X131658960Y-90520292D01*
X131658967Y-90520280D01*
X131753375Y-90330683D01*
X131753382Y-90330665D01*
X131811352Y-90126925D01*
X131830897Y-89916000D01*
X131830897Y-89915999D01*
X131811352Y-89705074D01*
X131753382Y-89501334D01*
X131753377Y-89501321D01*
X131658961Y-89311709D01*
X131614961Y-89253444D01*
X130952406Y-89915999D01*
X130952406Y-89916000D01*
X130413592Y-89916000D01*
X130413592Y-89915999D01*
X129751037Y-89253444D01*
X129707039Y-89311709D01*
X129707034Y-89311716D01*
X129612622Y-89501321D01*
X129612617Y-89501334D01*
X129554647Y-89705074D01*
X129535102Y-89915999D01*
X129535102Y-89916000D01*
X125157592Y-89916000D01*
X125216898Y-89831302D01*
X125309911Y-89631835D01*
X125366873Y-89419248D01*
X125386055Y-89199999D01*
X125367044Y-88982701D01*
X130019108Y-88982701D01*
X130683000Y-89646592D01*
X130683001Y-89646592D01*
X131346890Y-88982701D01*
X131194663Y-88888445D01*
X131194661Y-88888444D01*
X130997135Y-88811923D01*
X130788912Y-88773000D01*
X130577088Y-88773000D01*
X130368865Y-88811923D01*
X130368864Y-88811923D01*
X130171340Y-88888444D01*
X130171334Y-88888446D01*
X130019109Y-88982700D01*
X130019108Y-88982701D01*
X125367044Y-88982701D01*
X125366873Y-88980750D01*
X125309911Y-88768163D01*
X125216898Y-88568697D01*
X125090662Y-88388412D01*
X125090660Y-88388409D01*
X124935038Y-88232787D01*
X124754757Y-88106553D01*
X124754753Y-88106551D01*
X124664896Y-88064650D01*
X124555286Y-88013538D01*
X124555282Y-88013537D01*
X124555278Y-88013535D01*
X124342704Y-87956577D01*
X124342694Y-87956575D01*
X124123451Y-87937394D01*
X124123449Y-87937394D01*
X123904205Y-87956575D01*
X123904195Y-87956577D01*
X123691621Y-88013535D01*
X123691612Y-88013539D01*
X123492149Y-88106550D01*
X123492147Y-88106551D01*
X123311860Y-88232788D01*
X123156239Y-88388409D01*
X123030002Y-88568696D01*
X123030001Y-88568698D01*
X122965832Y-88706309D01*
X122919659Y-88758748D01*
X122852466Y-88777900D01*
X122785585Y-88757684D01*
X122741068Y-88706309D01*
X122702257Y-88623080D01*
X122676898Y-88568697D01*
X122550662Y-88388412D01*
X122550660Y-88388409D01*
X122395038Y-88232787D01*
X122214757Y-88106553D01*
X122214753Y-88106551D01*
X122124896Y-88064650D01*
X122015286Y-88013538D01*
X122015282Y-88013537D01*
X122015278Y-88013535D01*
X121802704Y-87956577D01*
X121802694Y-87956575D01*
X121583451Y-87937394D01*
X121583449Y-87937394D01*
X121364205Y-87956575D01*
X121364195Y-87956577D01*
X121151621Y-88013535D01*
X121151612Y-88013539D01*
X120952149Y-88106550D01*
X120952147Y-88106551D01*
X120771860Y-88232788D01*
X120616239Y-88388409D01*
X120490002Y-88568696D01*
X120490001Y-88568698D01*
X120396990Y-88768161D01*
X120396986Y-88768170D01*
X120340028Y-88980744D01*
X120340026Y-88980754D01*
X120320845Y-89199998D01*
X120320845Y-89199999D01*
X120340026Y-89419243D01*
X120340028Y-89419253D01*
X120396986Y-89631827D01*
X120396988Y-89631831D01*
X120396989Y-89631835D01*
X120425832Y-89693688D01*
X120490002Y-89831302D01*
X120490004Y-89831306D01*
X120616238Y-90011587D01*
X120771861Y-90167210D01*
X120952142Y-90293444D01*
X120952144Y-90293445D01*
X120952147Y-90293447D01*
X121032000Y-90330683D01*
X121089760Y-90357617D01*
X121142199Y-90403789D01*
X121161351Y-90470983D01*
X121141135Y-90537864D01*
X121089760Y-90582381D01*
X120952149Y-90646550D01*
X120952147Y-90646551D01*
X120771860Y-90772788D01*
X120616239Y-90928409D01*
X120490002Y-91108696D01*
X120490001Y-91108698D01*
X120396990Y-91308161D01*
X120396986Y-91308170D01*
X120340028Y-91520744D01*
X120340026Y-91520754D01*
X120320845Y-91739998D01*
X120320845Y-91739999D01*
X120340026Y-91959243D01*
X120340028Y-91959253D01*
X120396986Y-92171827D01*
X120396988Y-92171831D01*
X120396989Y-92171835D01*
X120435933Y-92255351D01*
X120490002Y-92371302D01*
X120490004Y-92371306D01*
X120616238Y-92551587D01*
X120771861Y-92707210D01*
X120952142Y-92833444D01*
X120952144Y-92833445D01*
X120952147Y-92833447D01*
X121089760Y-92897617D01*
X121142199Y-92943789D01*
X121161351Y-93010983D01*
X121141135Y-93077864D01*
X121089760Y-93122381D01*
X120952149Y-93186550D01*
X120952147Y-93186551D01*
X120771860Y-93312788D01*
X120616239Y-93468409D01*
X120490002Y-93648696D01*
X120490001Y-93648698D01*
X120396990Y-93848161D01*
X120396986Y-93848170D01*
X120340028Y-94060744D01*
X120340026Y-94060754D01*
X120320845Y-94279998D01*
X120320845Y-94279999D01*
X120340026Y-94499243D01*
X120340028Y-94499253D01*
X120396986Y-94711827D01*
X120396988Y-94711831D01*
X120396989Y-94711835D01*
X120464684Y-94857007D01*
X120490002Y-94911302D01*
X120490004Y-94911306D01*
X120616238Y-95091587D01*
X120771861Y-95247210D01*
X120952142Y-95373444D01*
X120952144Y-95373445D01*
X120952147Y-95373447D01*
X121089760Y-95437617D01*
X121142199Y-95483789D01*
X121161351Y-95550983D01*
X121141135Y-95617864D01*
X121089760Y-95662381D01*
X120952149Y-95726550D01*
X120952147Y-95726551D01*
X120771860Y-95852788D01*
X120616239Y-96008409D01*
X120490002Y-96188696D01*
X120490001Y-96188698D01*
X120463116Y-96246353D01*
X120402533Y-96376275D01*
X120396990Y-96388161D01*
X120396986Y-96388170D01*
X120340028Y-96600744D01*
X120340026Y-96600754D01*
X120320845Y-96819998D01*
X120320845Y-96819999D01*
X120340026Y-97039243D01*
X120340028Y-97039253D01*
X120396986Y-97251827D01*
X120396988Y-97251831D01*
X120396989Y-97251835D01*
X120454465Y-97375093D01*
X120490002Y-97451302D01*
X120490004Y-97451306D01*
X120616238Y-97631587D01*
X120771861Y-97787210D01*
X120952142Y-97913444D01*
X120952144Y-97913445D01*
X120952147Y-97913447D01*
X121074811Y-97970646D01*
X121089760Y-97977617D01*
X121142199Y-98023789D01*
X121161351Y-98090983D01*
X121141135Y-98157864D01*
X121089760Y-98202381D01*
X120952149Y-98266550D01*
X120952147Y-98266551D01*
X120771860Y-98392788D01*
X120616239Y-98548409D01*
X120490002Y-98728696D01*
X120490001Y-98728698D01*
X120396990Y-98928161D01*
X120396986Y-98928170D01*
X120340028Y-99140744D01*
X120340026Y-99140754D01*
X120320845Y-99359998D01*
X120320845Y-99359999D01*
X120340026Y-99579243D01*
X120340028Y-99579253D01*
X120396986Y-99791827D01*
X120396988Y-99791831D01*
X120396989Y-99791835D01*
X120440433Y-99885000D01*
X120490002Y-99991302D01*
X120490004Y-99991306D01*
X120616238Y-100171587D01*
X120771861Y-100327210D01*
X120952142Y-100453444D01*
X120952144Y-100453445D01*
X120952147Y-100453447D01*
X121089760Y-100517617D01*
X121142199Y-100563789D01*
X121161351Y-100630983D01*
X121141135Y-100697864D01*
X121089760Y-100742381D01*
X120952149Y-100806550D01*
X120952147Y-100806551D01*
X120771860Y-100932788D01*
X120616239Y-101088409D01*
X120490002Y-101268696D01*
X120490001Y-101268698D01*
X120396990Y-101468161D01*
X120396986Y-101468170D01*
X120340028Y-101680744D01*
X120340026Y-101680754D01*
X120320845Y-101899998D01*
X120320845Y-101899999D01*
X120340026Y-102119243D01*
X120340028Y-102119253D01*
X120396986Y-102331827D01*
X120396988Y-102331831D01*
X120396989Y-102331835D01*
X120416040Y-102372689D01*
X120490002Y-102531302D01*
X120490004Y-102531306D01*
X120616238Y-102711587D01*
X120771861Y-102867210D01*
X120952142Y-102993444D01*
X120952144Y-102993445D01*
X120952147Y-102993447D01*
X121089760Y-103057617D01*
X121142199Y-103103789D01*
X121161351Y-103170983D01*
X121141135Y-103237864D01*
X121089760Y-103282381D01*
X120952149Y-103346550D01*
X120952147Y-103346551D01*
X120771860Y-103472788D01*
X120616239Y-103628409D01*
X120490002Y-103808696D01*
X120490001Y-103808698D01*
X120396990Y-104008161D01*
X120396986Y-104008170D01*
X120340028Y-104220744D01*
X120340026Y-104220754D01*
X120320845Y-104439998D01*
X120320845Y-104439999D01*
X120340026Y-104659243D01*
X120340028Y-104659253D01*
X120396986Y-104871827D01*
X120396988Y-104871831D01*
X120396989Y-104871835D01*
X120460157Y-105007299D01*
X120490002Y-105071302D01*
X120490004Y-105071306D01*
X120616238Y-105251587D01*
X120771861Y-105407210D01*
X120952142Y-105533444D01*
X120952144Y-105533445D01*
X120952147Y-105533447D01*
X121089760Y-105597617D01*
X121142199Y-105643789D01*
X121161351Y-105710983D01*
X121141135Y-105777864D01*
X121089760Y-105822381D01*
X120952149Y-105886550D01*
X120952147Y-105886551D01*
X120771860Y-106012788D01*
X120616239Y-106168409D01*
X120490002Y-106348696D01*
X120490001Y-106348698D01*
X120396990Y-106548161D01*
X120396986Y-106548170D01*
X120340028Y-106760744D01*
X120340026Y-106760754D01*
X120320845Y-106979998D01*
X120320845Y-106979999D01*
X120340026Y-107199243D01*
X120340028Y-107199253D01*
X120396986Y-107411827D01*
X120396988Y-107411831D01*
X120396989Y-107411835D01*
X120458843Y-107544481D01*
X120490002Y-107611302D01*
X120490004Y-107611306D01*
X120616238Y-107791587D01*
X120771861Y-107947210D01*
X120952142Y-108073444D01*
X120952144Y-108073445D01*
X120952147Y-108073447D01*
X121089760Y-108137617D01*
X121142199Y-108183789D01*
X121161351Y-108250983D01*
X121141135Y-108317864D01*
X121089760Y-108362381D01*
X120952149Y-108426550D01*
X120952147Y-108426551D01*
X120771860Y-108552788D01*
X120616239Y-108708409D01*
X120490002Y-108888696D01*
X120490001Y-108888698D01*
X120396990Y-109088161D01*
X120396986Y-109088170D01*
X120340028Y-109300744D01*
X120340026Y-109300754D01*
X120320845Y-109519998D01*
X120320845Y-109519999D01*
X120340026Y-109739243D01*
X120340028Y-109739253D01*
X120396986Y-109951827D01*
X120396988Y-109951831D01*
X120396989Y-109951835D01*
X120401379Y-109961249D01*
X120490002Y-110151302D01*
X120490004Y-110151306D01*
X120616238Y-110331587D01*
X120771861Y-110487210D01*
X120952142Y-110613444D01*
X120952144Y-110613445D01*
X120952147Y-110613447D01*
X121089760Y-110677617D01*
X121142199Y-110723789D01*
X121161351Y-110790983D01*
X121141135Y-110857864D01*
X121089760Y-110902381D01*
X120952149Y-110966550D01*
X120952147Y-110966551D01*
X120771860Y-111092788D01*
X120616239Y-111248409D01*
X120490002Y-111428696D01*
X120490001Y-111428698D01*
X120396990Y-111628161D01*
X120396986Y-111628170D01*
X120340028Y-111840744D01*
X120340026Y-111840754D01*
X120320845Y-112059998D01*
X120320845Y-112059999D01*
X114300500Y-112059999D01*
X114300500Y-100534749D01*
X114512234Y-79678903D01*
X116975793Y-79678903D01*
X116985672Y-79986970D01*
X116985672Y-79986975D01*
X116985673Y-79986978D01*
X117034867Y-80291261D01*
X117096505Y-80498939D01*
X117122571Y-80586763D01*
X117239295Y-80850443D01*
X117247337Y-80868609D01*
X117407123Y-81132193D01*
X117407127Y-81132198D01*
X117407133Y-81132207D01*
X117599297Y-81373174D01*
X117599299Y-81373176D01*
X117599303Y-81373180D01*
X117599304Y-81373181D01*
X117820724Y-81587614D01*
X117987862Y-81712352D01*
X118067741Y-81771968D01*
X118067743Y-81771969D01*
X118067747Y-81771972D01*
X118336318Y-81923228D01*
X118477057Y-81980207D01*
X118622018Y-82038897D01*
X118622023Y-82038898D01*
X118622025Y-82038899D01*
X118920179Y-82117084D01*
X119225883Y-82156500D01*
X119225890Y-82156500D01*
X119456980Y-82156500D01*
X119555814Y-82150154D01*
X119687601Y-82141693D01*
X119990151Y-82082772D01*
X120282683Y-81985644D01*
X120282689Y-81985640D01*
X120282693Y-81985640D01*
X120473571Y-81893717D01*
X120560393Y-81851907D01*
X120818720Y-81683754D01*
X121053424Y-81483948D01*
X121260650Y-81255769D01*
X121436996Y-81002963D01*
X121579567Y-80729683D01*
X121686020Y-80440415D01*
X121754609Y-80139908D01*
X121784206Y-79833098D01*
X121774327Y-79525022D01*
X121725133Y-79220739D01*
X121637431Y-78925244D01*
X121637429Y-78925239D01*
X121637428Y-78925236D01*
X121512666Y-78643398D01*
X121512663Y-78643391D01*
X121352877Y-78379807D01*
X121352870Y-78379799D01*
X121352866Y-78379792D01*
X121160702Y-78138825D01*
X121160700Y-78138823D01*
X121120309Y-78099707D01*
X120939276Y-77924386D01*
X120810450Y-77828241D01*
X120692258Y-77740031D01*
X120692253Y-77740028D01*
X120423682Y-77588772D01*
X120386383Y-77573671D01*
X120137981Y-77473102D01*
X119970660Y-77429226D01*
X119839821Y-77394916D01*
X119534117Y-77355500D01*
X119303026Y-77355500D01*
X119303020Y-77355500D01*
X119072406Y-77370306D01*
X119072389Y-77370308D01*
X118769854Y-77429226D01*
X118769849Y-77429228D01*
X118477310Y-77526358D01*
X118477306Y-77526359D01*
X118199613Y-77660089D01*
X118199605Y-77660094D01*
X117941286Y-77828241D01*
X117941276Y-77828248D01*
X117706581Y-78028046D01*
X117706571Y-78028056D01*
X117499354Y-78256225D01*
X117499350Y-78256229D01*
X117323005Y-78509033D01*
X117323003Y-78509037D01*
X117180432Y-78782319D01*
X117180429Y-78782326D01*
X117073981Y-79071580D01*
X117073979Y-79071590D01*
X117005391Y-79372089D01*
X116975794Y-79678902D01*
X116975793Y-79678903D01*
X114512234Y-79678903D01*
X114518400Y-79071590D01*
X114551460Y-75815241D01*
X114571825Y-75748405D01*
X114625090Y-75703189D01*
X114675454Y-75692500D01*
X154815500Y-75692500D01*
X154882539Y-75712185D01*
G37*
%TD.AperFunction*%
%TD*%
M02*
